{
.appVersion = "1354";
DisplayStrings = (
"Outward/space Handles:\012/t_t \012\012Large/space Handles:\012JJJMM/Eng/Eng/Eng/Nhookleft/Nhookleft/Nhookleft PRRSSS/Germandbls/Germandbls/Germandbls/Schwa UUU/M.alt/M.alt/M.alt/N.alt/Eng.alt/Eng.alt/Eng.alt/Nhookleft.alt/Nhookleft.alt/Nhookleft.alt aaaæææbbbccdddee/schwa/schwa fgghhh/jdotless kkk/kgreenlandic/kgreenlandic/kgreenlandic lmmmnnn/eng/eng/eng/nhookleft/nhookleft/nhookleft opppþþþqqqrrrsssßßß/longs tttuuuvvwwyyzzz/c_k/c_k/c_k/f_f/f_f_i/f_f_l/f_f_l/f_f_l/f_h/f_h/f_h/fl/fl/s_t/s_t/s_t/t_t/t_t/t_t ªºº/mu/mu/mu/pi/pi 223335566699/two.lf/two.lf/three.lf/three.lf/three.lf/five.lf/five.lf/five.lf/six.lf/six.lf/nine.lf/nine.lf/zerosuperior ²²²³³/fivesuperior/fivesuperior/sixsuperior/sixsuperior/sevensuperior ..,,,::;;;!!!¡¡¡???¿¿¿··/quotesinglbase/quotedblleft/quotedblleft/quotedblleft/quotedblright/quotedblright/quotedblright/quoteleft/quoteleft/quoteleft/quoteright/quoteright/quoteright/apostrophe/apostrophe/apostrophe \"'/cedi ¢¢/colonsign $/florin/florin/kip/kip/lira/lira/lira/naira/naira/naira £££/won/won/won/approxequal/approxequal ~~/infinity/integral/partialdiff/perthousand &&&¶¶§§§©©/trademark/trademark/literSign/estimated/hookabovecomb/hookabovecomb/hookabovecomb/commaturnedabovecomb/commaturnedabovecomb/commaturnedabovecomb/commaabovecomb/commaabovecomb/commaabovecomb/commaaccentcomb/commaaccentcomb/commaaccentcomb/tilde ¸/ogonek/ogonek/ogonek/cedillacomb.alt/cedillacomb.alt/caron.alt/caron.alt/caron.alt/tildecomb.case/hookabovecomb.case/hookabovecomb.case/commaturnedabovecomb.case/commaturnedabovecomb.case/commaturnedabovecomb.case/commaaccentcomb.case/commaaccentcomb.case/commaaccentcomb.case/cedillacomb.case/ogonekcomb.case/ogonekcomb.case/apostrophecomb/apostrophecomb/apostrophecomb \012\012"
);
classes = (
{
automatic = 1;

glyphs = (
{
color = 4;
glyphname = A;
layers = (
{
anchors = (
{
name = bottom;
position = "{237, 0}";
},
{
name = ogonek;
position = "{452, 0}";
},
{
name = top;
position = "{332, 603}";
}
);
background = {
anchors = (
{
name = top;
position = "{332, 603}";
}
);
};
layerId = "D9712079-C16A-42CB-8BA4-BD9ECFFACF10";
paths = (
{
closed = 1;
nodes = (
"90 0 LINE",
"182 229 LINE",
"318 545 LINE",
"324 545 LINE",
"346 232 LINE",
"376 0 LINE",
"466 0 LINE",
"391 600 LINE",
"379 612 LINE",
"275 603 LINE",
"2 0 LINE"
);
},
{
closed = 1;
nodes = (
"171 0 LINE",
"179 46 LINE",
"77 73 LINE",
"-35 38 LINE",
"-41 0 LINE"
);
},
{
closed = 1;
nodes = (
"509 0 LINE",
"515 38 LINE",
"412 75 LINE",
"304 46 LINE",
"297 0 LINE"
);
},
{
closed = 1;
nodes = (
"389 203 LINE",
"385 256 LINE",
"154 256 LINE",
"132 203 LINE"
);
}
);
width = 552;
},
{
anchors = (
{
name = bottom;
position = "{193, 0}";
},
{
name = ogonek;
position = "{366, 0}";
},
{
name = top;
position = "{282, 591}";
}
);
layerId = "16B79A64-180D-495F-8650-CA27198DF3EF";
paths = (
{
closed = 1;
nodes = (
"25 0 LINE",
"124 229 LINE",
"274 579 LINE",
"280 579 LINE",
"316 232 LINE",
"340 0 LINE",
"368 0 LINE",
"302 591 LINE",
"293 600 LINE",
"256 591 LINE",
"-2 0 LINE"
);
},
{
closed = 1;
nodes = (
"95 0 LINE",
"98 18 LINE",
"24 28 LINE",
"-54 15 LINE",
"-57 0 LINE"
);
},
{
closed = 1;
nodes = (
"425 0 LINE",
"428 15 LINE",
"350 28 LINE",
"276 18 LINE",
"273 0 LINE"
);
},
{
closed = 1;
nodes = (
"329 218 LINE",
"327 239 LINE",
"106 239 LINE",
"96 218 LINE"
);
}
);
width = 438;
},
{
anchors = (
{
name = bottom;
position = "{276, 0}";
},
{
name = ogonek;
position = "{523, 0}";
},
{
name = top;
position = "{384, 613}";
}
);
layerId = "E259E77F-022A-45EF-A0F1-1168268390B3";
paths = (
{
closed = 1;
nodes = (
"145 0 LINE",
"238 239 LINE",
"340 478 LINE",
"349 478 LINE",
"362 242 LINE",
"380 0 LINE",
"560 0 LINE",
"493 603 LINE",
"474 622 LINE",
"292 613 LINE",
"-13 0 LINE"
);
},
{
closed = 1;
nodes = (
"246 0 LINE",
"259 80 LINE",
"129 108 LINE",
"-42 72 LINE",
"-53 0 LINE"
);
},
{
closed = 1;
nodes = (
"597 0 LINE",
"608 72 LINE",
"448 108 LINE",
"311 80 LINE",
"298 0 LINE"
);
},
{
closed = 1;
nodes = (
"410 168 LINE",
"425 261 LINE",
"183 261 LINE",
"168 168 LINE"
);
}
);
width = 624;
}
);
leftKerningGroup = A;
rightKerningGroup = A;
unicode = 0041;
},
{
color = 4;
glyphname = AE;
layers = (
{
anchors = (
{
name = top;
position = "{457, 603}";
}
);
layerId = "D9712079-C16A-42CB-8BA4-BD9ECFFACF10";
paths = (
{
closed = 1;
nodes = (
"54 0 LINE",
"390 603 LINE",
"323 603 LINE",
"-34 0 LINE"
);
},
{
closed = 1;
nodes = (
"143 0 LINE",
"151 46 LINE",
"49 73 LINE",
"-63 38 LINE",
"-69 0 LINE"
);
},
{
closed = 1;
nodes = (
"621 0 LINE",
"621 44 LINE",
"328 69 LINE",
"233 38 LINE",
"227 0 LINE"
);
},
{
closed = 1;
nodes = (
"361 203 LINE",
"357 256 LINE",
"126 256 LINE",
"104 203 LINE"
);
},
{
closed = 1;
nodes = (
"376 0 LINE",
"481 603 LINE",
"390 603 LINE",
"285 0 LINE"
);
},
{
closed = 1;
nodes = (
"621 0 LINE",
"652 179 LINE",
"602 180 LINE",
"543 0 LINE"
);
},
{
closed = 1;
nodes = (
"566 290 LINE",
"574 337 LINE",
"416 343 LINE",
"406 284 LINE"
);
},
{
closed = 1;
nodes = (
"650 560 LINE",
"658 603 LINE",
"232 603 LINE",
"225 565 LINE",
"315 536 LINE"
);
},
{
closed = 1;
nodes = (
"666 428 LINE",
"698 603 LINE",
"621 603 LINE",
"616 428 LINE"
);
}
);
width = 680;
},
{
anchors = (
{
name = top;
position = "{462, 591}";
}
);
layerId = "16B79A64-180D-495F-8650-CA27198DF3EF";
paths = (
{
closed = 1;
nodes = (
"25 0 LINE",
"375 591 LINE",
"349 591 LINE",
"-4 0 LINE"
);
},
{
closed = 1;
nodes = (
"93 0 LINE",
"96 18 LINE",
"22 28 LINE",
"-56 15 LINE",
"-59 0 LINE"
);
},
{
closed = 1;
nodes = (
"539 0 LINE",
"542 19 LINE",
"293 28 LINE",
"215 18 LINE",
"212 0 LINE"
);
},
{
closed = 1;
nodes = (
"327 218 LINE",
"325 239 LINE",
"155 239 LINE",
"145 218 LINE"
);
},
{
closed = 1;
nodes = (
"298 0 LINE",
"401 591 LINE",
"373 591 LINE",
"270 0 LINE"
);
},
{
closed = 1;
nodes = (
"548 0 LINE",
"571 136 LINE",
"552 137 LINE",
"516 0 LINE"
);
},
{
closed = 1;
nodes = (
"506 298 LINE",
"509 317 LINE",
"349 321 LINE",
"344 294 LINE"
);
},
{
closed = 1;
nodes = (
"612 570 LINE",
"615 591 LINE",
"270 591 LINE",
"267 573 LINE",
"345 563 LINE"
);
},
{
closed = 1;
nodes = (
"615 465 LINE",
"636 591 LINE",
"604 591 LINE",
"596 465 LINE"
);
}
);
width = 622;
},
{
anchors = (
{
name = top;
position = "{495, 613}";
}
);
color = -1;
layerId = "E259E77F-022A-45EF-A0F1-1168268390B3";
paths = (
{
closed = 1;
nodes = (
"49 0 LINE",
"420 613 LINE",
"310 613 LINE",
"-109 0 LINE"
);
},
{
closed = 1;
nodes = (
"156 0 LINE",
"169 80 LINE",
"39 108 LINE",
"-132 72 LINE",
"-143 0 LINE"
);
},
{
closed = 1;
nodes = (
"660 0 LINE",
"674 82 LINE",
"391 108 LINE",
"221 72 LINE",
"209 0 LINE"
);
},
{
closed = 1;
nodes = (
"320 168 LINE",
"335 261 LINE",
"93 261 LINE",
"78 168 LINE"
);
},
{
closed = 1;
nodes = (
"449 0 LINE",
"554 613 LINE",
"372 613 LINE",
"267 0 LINE"
);
},
{
closed = 1;
nodes = (
"704 0 LINE",
"739 235 LINE",
"650 235 LINE",
"586 0 LINE"
);
},
{
closed = 1;
nodes = (
"624 269 LINE",
"640 362 LINE",
"480 368 LINE",
"464 263 LINE"
);
},
{
closed = 1;
nodes = (
"725 532 LINE",
"739 613 LINE",
"161 613 LINE",
"150 541 LINE",
"297 506 LINE"
);
},
{
closed = 1;
nodes = (
"765 384 LINE",
"802 613 LINE",
"685 613 LINE",
"676 384 LINE"
);
}
);
width = 772;
}
);
leftKerningGroup = A;
rightKerningGroup = E;
rightMetricsKey = E;
unicode = 00C6;
},
{
color = 4;
glyphname = B;
layers = (
{
layerId = "D9712079-C16A-42CB-8BA4-BD9ECFFACF10";
paths = (
{
closed = 1;
nodes = (
"252 0 LINE SMOOTH",
"376 0 OFFCURVE",
"458 80 OFFCURVE",
"458 201 CURVE SMOOTH",
"458 262 OFFCURVE",
"416 302 OFFCURVE",
"355 313 CURVE",
"356 319 LINE",
"433 356 OFFCURVE",
"468 404 OFFCURVE",
"468 497 CURVE SMOOTH",
"468 577 OFFCURVE",
"422 603 OFFCURVE",
"342 603 CURVE SMOOTH",
"105 603 LINE",
"98 565 LINE",
"178 537 LINE",
"192 539 OFFCURVE",
"335 556 OFFCURVE",
"347 556 CURVE SMOOTH",
"367 556 OFFCURVE",
"376 541 OFFCURVE",
"376 509 CURVE SMOOTH",
"376 446 OFFCURVE",
"364 330 OFFCURVE",
"280 330 CURVE SMOOTH",
"178 330 LINE",
"168 273 LINE",
"297 273 LINE SMOOTH",
"338 273 OFFCURVE",
"367 270 OFFCURVE",
"367 222 CURVE SMOOTH",
"367 166 OFFCURVE",
"343 47 OFFCURVE",
"287 47 CURVE SMOOTH",
"273 47 OFFCURVE",
"117 66 OFFCURVE",
"105 68 CURVE",
"9 38 LINE",
"3 0 LINE"
);
},
{
closed = 1;
nodes = (
"151 0 LINE",
"256 603 LINE",
"165 603 LINE",
"60 0 LINE"
);
}
);
width = 481;
},
{
layerId = "16B79A64-180D-495F-8650-CA27198DF3EF";
paths = (
{
closed = 1;
nodes = (
"220 0 LINE SMOOTH",
"317 0 OFFCURVE",
"389 89 OFFCURVE",
"389 202 CURVE SMOOTH",
"389 263 OFFCURVE",
"351 295 OFFCURVE",
"295 303 CURVE",
"296 307 LINE",
"361 329 OFFCURVE",
"406 413 OFFCURVE",
"406 499 CURVE SMOOTH",
"406 574 OFFCURVE",
"358 591 OFFCURVE",
"283 591 CURVE SMOOTH",
"112 591 LINE",
"109 576 LINE",
"188 563 LINE",
"232 565 OFFCURVE",
"295 567 OFFCURVE",
"307 567 CURVE SMOOTH",
"348 567 OFFCURVE",
"377 547 OFFCURVE",
"377 502 CURVE SMOOTH",
"377 418 OFFCURVE",
"337 315 OFFCURVE",
"259 315 CURVE SMOOTH",
"146 315 LINE",
"141 289 LINE",
"267 289 LINE SMOOTH",
"332 289 OFFCURVE",
"358 255 OFFCURVE",
"358 205 CURVE SMOOTH",
"358 99 OFFCURVE",
"298 24 OFFCURVE",
"226 24 CURVE SMOOTH",
"212 24 OFFCURVE",
"136 24 OFFCURVE",
"93 28 CURVE",
"15 15 LINE",
"12 0 LINE"
);
},
{
closed = 1;
nodes = (
"98 0 LINE",
"201 591 LINE",
"173 591 LINE",
"70 0 LINE"
);
}
);
width = 426;
},
{
background = {
paths = (
{
closed = 1;
nodes = (
"229 257 LINE",
"336 257 LINE SMOOTH",
"377 257 OFFCURVE",
"406 259 OFFCURVE",
"406 216 CURVE SMOOTH",
"406 160 OFFCURVE",
"386 75 OFFCURVE",
"330 75 CURVE SMOOTH",
"316 75 OFFCURVE",
"242 96 OFFCURVE",
"195 108 CURVE",
"23 73 LINE",
"12 0 LINE",
"370 0 LINE SMOOTH",
"509 0 OFFCURVE",
"593 85 OFFCURVE",
"593 206 CURVE SMOOTH",
"593 267 OFFCURVE",
"550 306 OFFCURVE",
"489 317 CURVE",
"490 324 LINE",
"567 357 OFFCURVE",
"605 406 OFFCURVE",
"605 499 CURVE SMOOTH",
"605 576 OFFCURVE",
"538 613 OFFCURVE",
"458 613 CURVE SMOOTH",
"114 613 LINE",
"103 541 LINE",
"263 505 LINE",
"319 524 OFFCURVE",
"375 542 OFFCURVE",
"387 542 CURVE SMOOTH",
"408 542 OFFCURVE",
"419 524 OFFCURVE",
"419 492 CURVE SMOOTH",
"419 423 OFFCURVE",
"411 353 OFFCURVE",
"321 353 CURVE SMOOTH",
"244 353 LINE"
);
},
{
closed = 1;
nodes = (
"357 613 LINE",
"175 613 LINE",
"70 0 LINE",
"252 0 LINE"
);
}
);
};
color = -1;
layerId = "E259E77F-022A-45EF-A0F1-1168268390B3";
paths = (
{
closed = 1;
nodes = (
"333 0 LINE SMOOTH",
"472 0 OFFCURVE",
"556 85 OFFCURVE",
"556 206 CURVE SMOOTH",
"556 267 OFFCURVE",
"513 306 OFFCURVE",
"452 317 CURVE",
"453 324 LINE",
"530 357 OFFCURVE",
"568 406 OFFCURVE",
"568 499 CURVE SMOOTH",
"568 576 OFFCURVE",
"501 613 OFFCURVE",
"421 613 CURVE SMOOTH",
"77 613 LINE",
"66 541 LINE",
"226 505 LINE",
"282 524 OFFCURVE",
"342 542 OFFCURVE",
"354 542 CURVE SMOOTH",
"375 542 OFFCURVE",
"386 524 OFFCURVE",
"386 492 CURVE SMOOTH",
"386 423 OFFCURVE",
"378 351 OFFCURVE",
"288 351 CURVE SMOOTH",
"207 351 LINE",
"192 257 LINE",
"299 257 LINE SMOOTH",
"340 257 OFFCURVE",
"369 257 OFFCURVE",
"369 216 CURVE SMOOTH",
"369 160 OFFCURVE",
"349 79 OFFCURVE",
"293 79 CURVE SMOOTH",
"279 79 OFFCURVE",
"205 96 OFFCURVE",
"158 108 CURVE",
"-14 73 LINE",
"-25 0 LINE"
);
},
{
closed = 1;
nodes = (
"215 0 LINE",
"320 613 LINE",
"138 613 LINE",
"33 0 LINE"
);
}
);
width = 569;
}
);
leftKerningGroup = H;
leftMetricsKey = H;
rightKerningGroup = B;
unicode = 0042;
},
{
color = 4;
glyphname = C;
layers = (
{
anchors = (
{
name = bottom;
position = "{251, 0}";
},
{
name = top;
position = "{336, 603}";
}
);
background = {
paths = (
{
closed = 1;
nodes = (
"227 -9 OFFCURVE",
"363 4 OFFCURVE",
"400 14 CURVE",
"401 65 LINE",
"270 65 LINE SMOOTH",
"219 65 OFFCURVE",
"174 79 OFFCURVE",
"174 196 CURVE SMOOTH",
"174 339 OFFCURVE",
"222 513 OFFCURVE",
"278 537 CURVE SMOOTH",
"285 540 OFFCURVE",
"298 542 OFFCURVE",
"313 542 CURVE SMOOTH",
"347 542 OFFCURVE",
"393 540 OFFCURVE",
"423 534 CURVE",
"502 601 LINE",
"445 606 OFFCURVE",
"351 611 OFFCURVE",
"332 611 CURVE SMOOTH",
"306 611 OFFCURVE",
"188 535 OFFCURVE",
"149 494 CURVE",
"110 418 OFFCURVE",
"80 284 OFFCURVE",
"80 193 CURVE SMOOTH",
"80 53 OFFCURVE",
"141 -9 OFFCURVE",
"212 -9 CURVE SMOOTH"
);
},
{
closed = 1;
nodes = (
"400 14 LINE",
"429 184 LINE",
"379 185 LINE",
"324 14 LINE"
);
},
{
closed = 1;
nodes = (
"410 428 LINE",
"462 428 LINE",
"502 601 LINE",
"420 601 LINE"
);
}
);
};
layerId = "D9712079-C16A-42CB-8BA4-BD9ECFFACF10";
paths = (
{
closed = 1;
nodes = (
"190 -9 OFFCURVE",
"332 4 OFFCURVE",
"369 14 CURVE",
"370 65 LINE",
"233 65 LINE SMOOTH",
"182 65 OFFCURVE",
"137 79 OFFCURVE",
"137 196 CURVE SMOOTH",
"137 339 OFFCURVE",
"185 513 OFFCURVE",
"241 537 CURVE SMOOTH",
"248 540 OFFCURVE",
"261 542 OFFCURVE",
"276 542 CURVE SMOOTH",
"310 542 OFFCURVE",
"362 540 OFFCURVE",
"392 534 CURVE",
"471 601 LINE",
"414 606 OFFCURVE",
"314 611 OFFCURVE",
"295 611 CURVE SMOOTH",
"269 611 OFFCURVE",
"151 535 OFFCURVE",
"112 494 CURVE",
"73 418 OFFCURVE",
"43 284 OFFCURVE",
"43 193 CURVE SMOOTH",
"43 53 OFFCURVE",
"104 -9 OFFCURVE",
"175 -9 CURVE SMOOTH"
);
},
{
closed = 1;
nodes = (
"369 14 LINE",
"398 184 LINE",
"348 185 LINE",
"293 14 LINE"
);
},
{
closed = 1;
nodes = (
"431 428 LINE",
"471 601 LINE",
"389 601 LINE",
"379 428 LINE"
);
}
);
width = 435;
},
{
anchors = (
{
name = bottom;
position = "{229, 0}";
},
{
name = top;
position = "{315, 591}";
}
);
layerId = "16B79A64-180D-495F-8650-CA27198DF3EF";
paths = (
{
closed = 1;
nodes = (
"202 -9 OFFCURVE",
"301 -2 OFFCURVE",
"331 1 CURVE",
"332 21 LINE",
"179 22 LINE SMOOTH",
"131 22 OFFCURVE",
"84 79 OFFCURVE",
"84 205 CURVE SMOOTH",
"84 444 OFFCURVE",
"181 511 OFFCURVE",
"223 540 CURVE SMOOTH",
"246 556 OFFCURVE",
"274 572 OFFCURVE",
"301 572 CURVE SMOOTH",
"326 572 OFFCURVE",
"370 568 OFFCURVE",
"407 562 CURVE",
"427 591 LINE",
"378 597 OFFCURVE",
"314 601 OFFCURVE",
"295 601 CURVE SMOOTH",
"264 601 OFFCURVE",
"181 547 OFFCURVE",
"132 491 CURVE",
"86 426 OFFCURVE",
"52 319 OFFCURVE",
"52 204 CURVE SMOOTH",
"52 102 OFFCURVE",
"84 -9 OFFCURVE",
"186 -9 CURVE SMOOTH"
);
},
{
closed = 1;
nodes = (
"331 1 LINE",
"353 137 LINE",
"334 138 LINE",
"299 1 LINE"
);
},
{
closed = 1;
nodes = (
"403 455 LINE",
"427 591 LINE",
"393 591 LINE",
"384 455 LINE"
);
}
);
width = 393;
},
{
anchors = (
{
name = bottom;
position = "{269, 0}";
},
{
name = top;
position = "{361, 613}";
}
);
color = -1;
layerId = "E259E77F-022A-45EF-A0F1-1168268390B3";
paths = (
{
closed = 1;
nodes = (
"225 -9 OFFCURVE",
"398 4 OFFCURVE",
"435 14 CURVE",
"436 101 LINE",
"310 101 LINE SMOOTH",
"259 101 OFFCURVE",
"216 112 OFFCURVE",
"216 189 CURVE SMOOTH",
"216 263 OFFCURVE",
"259 502 OFFCURVE",
"300 520 CURVE SMOOTH",
"316 527 OFFCURVE",
"331 529 OFFCURVE",
"346 529 CURVE SMOOTH",
"375 529 OFFCURVE",
"417 520 OFFCURVE",
"447 510 CURVE",
"533 616 LINE",
"476 621 OFFCURVE",
"373 625 OFFCURVE",
"354 625 CURVE SMOOTH",
"319 625 OFFCURVE",
"171 557 OFFCURVE",
"97 508 CURVE",
"63 427 OFFCURVE",
"25 280 OFFCURVE",
"25 189 CURVE SMOOTH",
"25 39 OFFCURVE",
"139 -9 OFFCURVE",
"210 -9 CURVE SMOOTH"
);
},
{
closed = 1;
nodes = (
"435 14 LINE",
"466 224 LINE",
"379 224 LINE",
"310 14 LINE"
);
},
{
closed = 1;
nodes = (
"488 391 LINE",
"533 616 LINE",
"410 616 LINE",
"395 391 LINE"
);
}
);
width = 498;
}
);
leftKerningGroup = O;
leftMetricsKey = O;
rightKerningGroup = C;
unicode = 0043;
},
{
color = 4;
glyphname = D;
layers = (
{
anchors = (
{
name = bottom;
position = "{201, 0}";
},
{
name = center;
position = "{186, 308}";
},
{
name = top;
position = "{339, 603}";
}
);
layerId = "D9712079-C16A-42CB-8BA4-BD9ECFFACF10";
paths = (
{
closed = 1;
nodes = (
"272 0 LINE SMOOTH",
"448 0 OFFCURVE",
"534 222 OFFCURVE",
"534 416 CURVE SMOOTH",
"534 550 OFFCURVE",
"454 603 OFFCURVE",
"371 603 CURVE SMOOTH",
"105 603 LINE",
"98 565 LINE",
"185 535 LINE",
"197 537 OFFCURVE",
"362 551 OFFCURVE",
"382 551 CURVE SMOOTH",
"421 551 OFFCURVE",
"439 499 OFFCURVE",
"439 420 CURVE SMOOTH",
"439 290 OFFCURVE",
"382 52 OFFCURVE",
"295 52 CURVE SMOOTH",
"276 52 OFFCURVE",
"121 68 OFFCURVE",
"111 70 CURVE",
"9 38 LINE",
"3 0 LINE"
);
},
{
closed = 1;
nodes = (
"152 0 LINE",
"253 603 LINE",
"165 603 LINE",
"62 0 LINE"
);
}
);
width = 550;
},
{
anchors = (
{
name = bottom;
position = "{167, 0}";
},
{
name = center;
position = "{154, 308}";
},
{
name = top;
position = "{309, 591}";
}
);
layerId = "16B79A64-180D-495F-8650-CA27198DF3EF";
paths = (
{
closed = 1;
nodes = (
"211 0 LINE SMOOTH",
"382 0 OFFCURVE",
"464 207 OFFCURVE",
"464 404 CURVE SMOOTH",
"464 538 OFFCURVE",
"401 591 OFFCURVE",
"318 591 CURVE SMOOTH",
"112 591 LINE",
"109 576 LINE",
"184 563 LINE",
"224 565 OFFCURVE",
"297 568 OFFCURVE",
"317 568 CURVE SMOOTH",
"386 568 OFFCURVE",
"434 517 OFFCURVE",
"434 408 CURVE SMOOTH",
"434 156 OFFCURVE",
"314 24 OFFCURVE",
"222 24 CURVE SMOOTH",
"203 24 OFFCURVE",
"133 25 OFFCURVE",
"93 28 CURVE",
"15 15 LINE",
"12 0 LINE"
);
},
{
closed = 1;
nodes = (
"98 0 LINE",
"199 579 LINE",
"171 579 LINE",
"70 0 LINE"
);
}
);
width = 482;
},
{
anchors = (
{
name = bottom;
position = "{228, 0}";
},
{
name = center;
position = "{197, 308}";
},
{
name = top;
position = "{367, 613}";
}
);
background = {
paths = (
{
closed = 1;
nodes = (
"226 506 LINE",
"288 524 OFFCURVE",
"348 536 OFFCURVE",
"363 536 CURVE SMOOTH",
"402 536 OFFCURVE",
"419 516 OFFCURVE",
"419 437 CURVE SMOOTH",
"419 307 OFFCURVE",
"369 80 OFFCURVE",
"282 80 CURVE SMOOTH",
"263 80 OFFCURVE",
"190 94 OFFCURVE",
"140 108 CURVE",
"-14 72 LINE",
"-25 0 LINE",
"347 0 LINE SMOOTH",
"523 0 OFFCURVE",
"610 227 OFFCURVE",
"610 421 CURVE SMOOTH",
"610 560 OFFCURVE",
"531 613 OFFCURVE",
"448 613 CURVE SMOOTH",
"77 613 LINE",
"66 541 LINE"
);
},
{
closed = 1;
nodes = (
"320 613 LINE",
"138 613 LINE",
"33 0 LINE",
"215 0 LINE"
);
}
);
};
color = -1;
layerId = "E259E77F-022A-45EF-A0F1-1168268390B3";
paths = (
{
closed = 1;
nodes = (
"347 0 LINE SMOOTH",
"523 0 OFFCURVE",
"610 227 OFFCURVE",
"610 421 CURVE SMOOTH",
"610 560 OFFCURVE",
"531 613 OFFCURVE",
"448 613 CURVE SMOOTH",
"77 613 LINE",
"66 541 LINE",
"226 506 LINE",
"288 524 OFFCURVE",
"348 536 OFFCURVE",
"363 536 CURVE SMOOTH",
"402 536 OFFCURVE",
"419 516 OFFCURVE",
"419 437 CURVE SMOOTH",
"419 307 OFFCURVE",
"369 84 OFFCURVE",
"282 84 CURVE SMOOTH",
"263 84 OFFCURVE",
"190 97 OFFCURVE",
"140 108 CURVE",
"-14 72 LINE",
"-25 0 LINE"
);
},
{
closed = 1;
nodes = (
"215 0 LINE",
"320 613 LINE",
"138 613 LINE",
"33 0 LINE"
);
}
);
width = 608;
}
);
leftKerningGroup = H;
leftMetricsKey = H;
rightKerningGroup = O;
rightMetricsKey = O;
unicode = 0044;
},
{
color = 4;
glyphname = E;
layers = (
{
anchors = (
{
name = bottom;
position = "{235, 0}";
},
{
name = ogonek;
position = "{397, 0}";
},
{
name = top;
position = "{302, 603}";
}
);
layerId = "D9712079-C16A-42CB-8BA4-BD9ECFFACF10";
paths = (
{
closed = 1;
nodes = (
"152 0 LINE",
"257 603 LINE",
"166 603 LINE",
"61 0 LINE"
);
},
{
closed = 1;
nodes = (
"397 0 LINE",
"397 46 LINE",
"104 69 LINE",
"9 38 LINE",
"3 0 LINE"
);
},
{
closed = 1;
nodes = (
"397 0 LINE",
"428 179 LINE",
"378 180 LINE",
"319 0 LINE"
);
},
{
closed = 1;
nodes = (
"342 290 LINE",
"350 337 LINE",
"192 343 LINE",
"182 284 LINE"
);
},
{
closed = 1;
nodes = (
"466 560 LINE",
"474 603 LINE",
"105 603 LINE",
"98 565 LINE",
"188 534 LINE"
);
},
{
closed = 1;
nodes = (
"442 428 LINE",
"474 603 LINE",
"397 603 LINE",
"392 428 LINE"
);
}
);
width = 456;
},
{
anchors = (
{
name = bottom;
position = "{213, 0}";
},
{
name = ogonek;
position = "{348, 0}";
},
{
name = top;
position = "{294, 591}";
}
);
layerId = "16B79A64-180D-495F-8650-CA27198DF3EF";
paths = (
{
closed = 1;
nodes = (
"98 0 LINE",
"201 591 LINE",
"173 591 LINE",
"70 0 LINE"
);
},
{
closed = 1;
nodes = (
"339 0 LINE",
"342 19 LINE",
"93 28 LINE",
"15 15 LINE",
"12 0 LINE"
);
},
{
closed = 1;
nodes = (
"348 0 LINE",
"371 136 LINE",
"352 137 LINE",
"316 0 LINE"
);
},
{
closed = 1;
nodes = (
"306 304 LINE",
"309 323 LINE",
"149 327 LINE",
"144 300 LINE"
);
},
{
closed = 1;
nodes = (
"412 570 LINE",
"415 591 LINE",
"112 591 LINE",
"109 576 LINE",
"187 563 LINE"
);
},
{
closed = 1;
nodes = (
"415 465 LINE",
"436 591 LINE",
"404 591 LINE",
"396 465 LINE"
);
}
);
width = 422;
},
{
anchors = (
{
name = bottom;
position = "{250, 0}";
},
{
name = ogonek;
position = "{459, 0}";
},
{
name = top;
position = "{320, 613}";
}
);
layerId = "E259E77F-022A-45EF-A0F1-1168268390B3";
paths = (
{
closed = 1;
nodes = (
"215 0 LINE",
"320 613 LINE",
"138 613 LINE",
"33 0 LINE"
);
},
{
closed = 1;
nodes = (
"416 0 LINE",
"430 82 LINE",
"157 108 LINE",
"-13 72 LINE",
"-25 0 LINE"
);
},
{
closed = 1;
nodes = (
"459 0 LINE",
"494 235 LINE",
"405 235 LINE",
"341 0 LINE"
);
},
{
closed = 1;
nodes = (
"380 269 LINE",
"396 362 LINE",
"246 368 LINE",
"230 263 LINE"
);
},
{
closed = 1;
nodes = (
"481 532 LINE",
"495 613 LINE",
"77 613 LINE",
"66 541 LINE",
"213 506 LINE"
);
},
{
closed = 1;
nodes = (
"520 384 LINE",
"557 613 LINE",
"440 613 LINE",
"431 384 LINE"
);
}
);
width = 527;
}
);
leftKerningGroup = H;
leftMetricsKey = H;
rightKerningGroup = E;
unicode = 0045;
},
{
color = 4;
glyphname = F;
layers = (
{
background = {
paths = (
{
closed = 1;
nodes = (
"45 38 LINE",
"39 0 LINE",
"291 0 LINE",
"299 44 LINE",
"199 63 LINE",
"237 278 LINE",
"377 283 LINE",
"386 330 LINE",
"247 335 LINE",
"282 540 LINE",
"294 542 OFFCURVE",
"406 552 OFFCURVE",
"432 554 CURVE",
"428 428 LINE",
"478 428 LINE",
"510 603 LINE",
"141 603 LINE",
"134 565 LINE",
"192 545 LINE",
"107 58 LINE"
);
}
);
};
color = -1;
layerId = "D9712079-C16A-42CB-8BA4-BD9ECFFACF10";
paths = (
{
closed = 1;
nodes = (
"152 0 LINE",
"257 603 LINE",
"166 603 LINE",
"61 0 LINE"
);
},
{
closed = 1;
nodes = (
"255 0 LINE",
"263 44 LINE",
"114 72 LINE",
"9 38 LINE",
"3 0 LINE"
);
},
{
closed = 1;
nodes = (
"342 278 LINE",
"350 325 LINE",
"192 331 LINE",
"182 272 LINE"
);
},
{
closed = 1;
nodes = (
"461 560 LINE",
"469 603 LINE",
"105 603 LINE",
"98 565 LINE",
"188 534 LINE"
);
},
{
closed = 1;
nodes = (
"437 428 LINE",
"469 603 LINE",
"392 603 LINE",
"387 428 LINE"
);
}
);
width = 417;
},
{
color = -1;
layerId = "16B79A64-180D-495F-8650-CA27198DF3EF";
paths = (
{
closed = 1;
nodes = (
"98 0 LINE",
"201 591 LINE",
"173 591 LINE",
"70 0 LINE"
);
},
{
closed = 1;
nodes = (
"184 0 LINE",
"187 18 LINE",
"93 28 LINE",
"15 15 LINE",
"12 0 LINE"
);
},
{
closed = 1;
nodes = (
"307 293 LINE",
"310 312 LINE",
"150 316 LINE",
"145 289 LINE"
);
},
{
closed = 1;
nodes = (
"408 570 LINE",
"411 591 LINE",
"112 591 LINE",
"109 576 LINE",
"187 563 LINE"
);
},
{
closed = 1;
nodes = (
"411 465 LINE",
"432 591 LINE",
"400 591 LINE",
"392 465 LINE"
);
}
);
width = 385;
},
{
background = {
paths = (
{
closed = 1;
nodes = (
"250 506 LINE",
"513 532 LINE",
"527 613 LINE",
"114 613 LINE",
"103 541 LINE"
);
},
{
closed = 1;
nodes = (
"357 613 LINE",
"175 613 LINE",
"70 0 LINE",
"252 0 LINE"
);
},
{
closed = 1;
nodes = (
"463 385 LINE",
"551 385 LINE",
"590 613 LINE",
"551 709 OFFCURVE",
"472 613 LINE"
);
},
{
closed = 1;
nodes = (
"268 255 LINE",
"418 261 LINE",
"434 354 LINE",
"284 360 LINE"
);
},
{
closed = 1;
nodes = (
"23 72 LINE",
"12 0 LINE",
"351 0 LINE",
"364 80 LINE",
"194 108 LINE"
);
}
);
};
layerId = "E259E77F-022A-45EF-A0F1-1168268390B3";
paths = (
{
closed = 1;
nodes = (
"215 0 LINE",
"320 613 LINE",
"138 613 LINE",
"33 0 LINE"
);
},
{
closed = 1;
nodes = (
"314 0 LINE",
"327 80 LINE",
"157 108 LINE",
"-14 72 LINE",
"-25 0 LINE"
);
},
{
closed = 1;
nodes = (
"381 252 LINE",
"397 345 LINE",
"247 351 LINE",
"231 246 LINE"
);
},
{
closed = 1;
nodes = (
"476 532 LINE",
"490 613 LINE",
"77 613 LINE",
"66 541 LINE",
"213 506 LINE"
);
},
{
closed = 1;
nodes = (
"515 389 LINE",
"552 613 LINE",
"435 613 LINE",
"426 389 LINE"
);
}
);
width = 501;
}
);
leftKerningGroup = H;
leftMetricsKey = H;
rightKerningGroup = F;
unicode = 0046;
},
{
color = 4;
glyphname = G;
layers = (
{
anchors = (
{
name = bottom;
position = "{235, 0}";
},
{
name = top;
position = "{332, 603}";
}
);
background = {
paths = (
{
closed = 1;
nodes = (
"262 -9 OFFCURVE",
"407 38 OFFCURVE",
"440 59 CURVE",
"472 252 LINE",
"390 252 LINE",
"359 69 LINE",
"258 59 LINE",
"194 59 OFFCURVE",
"172 95 OFFCURVE",
"172 196 CURVE SMOOTH",
"172 339 OFFCURVE",
"220 513 OFFCURVE",
"276 537 CURVE SMOOTH",
"283 540 OFFCURVE",
"296 542 OFFCURVE",
"311 542 CURVE SMOOTH",
"353 542 OFFCURVE",
"411 536 OFFCURVE",
"440 530 CURVE",
"520 599 LINE",
"464 604 OFFCURVE",
"349 611 OFFCURVE",
"330 611 CURVE SMOOTH",
"304 611 OFFCURVE",
"186 535 OFFCURVE",
"147 494 CURVE",
"108 418 OFFCURVE",
"78 284 OFFCURVE",
"78 193 CURVE SMOOTH",
"78 53 OFFCURVE",
"147 -9 OFFCURVE",
"243 -9 CURVE SMOOTH"
);
},
{
closed = 1;
nodes = (
"522 252 LINE",
"529 291 LINE",
"307 291 LINE",
"299 245 LINE",
"410 223 LINE"
);
},
{
closed = 1;
nodes = (
"428 427 LINE",
"480 427 LINE",
"520 599 LINE",
"438 599 LINE"
);
}
);
};
color = -1;
layerId = "D9712079-C16A-42CB-8BA4-BD9ECFFACF10";
paths = (
{
closed = 1;
nodes = (
"227 -9 OFFCURVE",
"378 38 OFFCURVE",
"411 59 CURVE",
"443 252 LINE",
"361 252 LINE",
"330 69 LINE",
"223 59 LINE",
"159 59 OFFCURVE",
"137 95 OFFCURVE",
"137 196 CURVE SMOOTH",
"137 339 OFFCURVE",
"185 513 OFFCURVE",
"241 537 CURVE SMOOTH",
"248 540 OFFCURVE",
"261 542 OFFCURVE",
"276 542 CURVE SMOOTH",
"318 542 OFFCURVE",
"382 536 OFFCURVE",
"411 530 CURVE",
"491 599 LINE",
"435 604 OFFCURVE",
"314 611 OFFCURVE",
"295 611 CURVE SMOOTH",
"269 611 OFFCURVE",
"151 535 OFFCURVE",
"112 494 CURVE",
"73 418 OFFCURVE",
"43 284 OFFCURVE",
"43 193 CURVE SMOOTH",
"43 53 OFFCURVE",
"112 -9 OFFCURVE",
"208 -9 CURVE SMOOTH"
);
},
{
closed = 1;
nodes = (
"493 252 LINE",
"500 291 LINE",
"278 291 LINE",
"270 245 LINE",
"381 223 LINE"
);
},
{
closed = 1;
nodes = (
"451 427 LINE",
"491 599 LINE",
"409 599 LINE",
"399 427 LINE"
);
}
);
width = 511;
},
{
anchors = (
{
name = bottom;
position = "{217, 0}";
},
{
name = top;
position = "{314, 591}";
}
);
background = {
paths = (
{
closed = 1;
nodes = (
"237 -9 OFFCURVE",
"313 4 OFFCURVE",
"374 17 CURVE",
"417 270 LINE",
"392 270 LINE",
"352 31 LINE",
"224 18 LINE",
"153 18 OFFCURVE",
"119 87 OFFCURVE",
"119 205 CURVE SMOOTH",
"119 444 OFFCURVE",
"216 510 OFFCURVE",
"258 540 CURVE SMOOTH",
"281 556 OFFCURVE",
"309 572 OFFCURVE",
"336 572 CURVE SMOOTH",
"361 572 OFFCURVE",
"403 567 OFFCURVE",
"442 560 CURVE",
"474 591 LINE",
"418 596 OFFCURVE",
"349 601 OFFCURVE",
"330 601 CURVE SMOOTH",
"299 601 OFFCURVE",
"216 547 OFFCURVE",
"167 491 CURVE",
"121 426 OFFCURVE",
"87 319 OFFCURVE",
"87 204 CURVE SMOOTH",
"87 75 OFFCURVE",
"127 -9 OFFCURVE",
"218 -9 CURVE SMOOTH"
);
},
{
closed = 1;
nodes = (
"479 269 LINE",
"482 287 LINE",
"320 287 LINE",
"317 269 LINE",
"401 263 LINE"
);
},
{
closed = 1;
nodes = (
"430 455 LINE",
"449 455 LINE",
"474 591 LINE",
"440 591 LINE"
);
}
);
};
color = -1;
layerId = "16B79A64-180D-495F-8650-CA27198DF3EF";
paths = (
{
closed = 1;
nodes = (
"202 -9 OFFCURVE",
"288 4 OFFCURVE",
"349 17 CURVE",
"392 270 LINE",
"367 270 LINE",
"327 31 LINE",
"189 18 LINE",
"118 18 OFFCURVE",
"84 87 OFFCURVE",
"84 205 CURVE SMOOTH",
"84 444 OFFCURVE",
"181 511 OFFCURVE",
"223 540 CURVE SMOOTH",
"246 556 OFFCURVE",
"274 572 OFFCURVE",
"301 572 CURVE SMOOTH",
"326 572 OFFCURVE",
"373 567 OFFCURVE",
"412 560 CURVE",
"444 591 LINE",
"388 596 OFFCURVE",
"314 601 OFFCURVE",
"295 601 CURVE SMOOTH",
"264 601 OFFCURVE",
"181 547 OFFCURVE",
"132 491 CURVE",
"86 426 OFFCURVE",
"52 319 OFFCURVE",
"52 204 CURVE SMOOTH",
"52 75 OFFCURVE",
"92 -9 OFFCURVE",
"183 -9 CURVE SMOOTH"
);
},
{
closed = 1;
nodes = (
"454 269 LINE",
"457 287 LINE",
"295 287 LINE",
"292 269 LINE",
"376 263 LINE"
);
},
{
closed = 1;
nodes = (
"419 455 LINE",
"444 591 LINE",
"410 591 LINE",
"400 455 LINE"
);
}
);
width = 462;
},
{
anchors = (
{
name = bottom;
position = "{278, 0}";
},
{
name = top;
position = "{362, 613}";
}
);
layerId = "E259E77F-022A-45EF-A0F1-1168268390B3";
paths = (
{
closed = 1;
nodes = (
"275 -9 OFFCURVE",
"419 31 OFFCURVE",
"492 59 CURVE",
"524 252 LINE",
"370 252 LINE",
"345 106 LINE",
"294 99 LINE SMOOTH",
"248 93 OFFCURVE",
"216 112 OFFCURVE",
"216 189 CURVE SMOOTH",
"216 263 OFFCURVE",
"259 502 OFFCURVE",
"300 520 CURVE SMOOTH",
"316 527 OFFCURVE",
"331 529 OFFCURVE",
"346 529 CURVE SMOOTH",
"384 529 OFFCURVE",
"433 516 OFFCURVE",
"465 504 CURVE",
"566 616 LINE",
"509 621 OFFCURVE",
"373 625 OFFCURVE",
"354 625 CURVE SMOOTH",
"319 625 OFFCURVE",
"171 557 OFFCURVE",
"97 508 CURVE",
"63 427 OFFCURVE",
"25 280 OFFCURVE",
"25 189 CURVE SMOOTH",
"25 39 OFFCURVE",
"169 -9 OFFCURVE",
"240 -9 CURVE SMOOTH"
);
},
{
closed = 1;
nodes = (
"569 242 LINE",
"580 315 LINE",
"309 315 LINE",
"297 235 LINE",
"408 213 LINE"
);
},
{
closed = 1;
nodes = (
"521 391 LINE",
"566 616 LINE",
"443 616 LINE",
"428 391 LINE"
);
}
);
width = 568;
}
);
leftKerningGroup = O;
leftMetricsKey = O;
rightKerningGroup = G;
unicode = 0047;
},
{
color = 4;
glyphname = H;
layers = (
{
anchors = (
{
name = bottom;
position = "{259, 0}";
},
{
name = center;
position = "{338, 448}";
},
{
name = top;
position = "{365, 603}";
}
);
color = -1;
layerId = "D9712079-C16A-42CB-8BA4-BD9ECFFACF10";
paths = (
{
closed = 1;
nodes = (
"459 0 LINE",
"564 603 LINE",
"473 603 LINE",
"368 0 LINE"
);
},
{
closed = 1;
nodes = (
"216 0 LINE",
"224 46 LINE",
"122 74 LINE",
"9 38 LINE",
"3 0 LINE"
);
},
{
closed = 1;
nodes = (
"520 0 LINE",
"526 38 LINE",
"422 74 LINE",
"315 46 LINE",
"307 0 LINE"
);
},
{
closed = 1;
nodes = (
"152 0 LINE",
"257 603 LINE",
"166 603 LINE",
"61 0 LINE"
);
},
{
closed = 1;
nodes = (
"448 284 LINE",
"457 337 LINE",
"180 337 LINE",
"171 284 LINE"
);
},
{
closed = 1;
nodes = (
"310 557 LINE",
"318 603 LINE",
"105 603 LINE",
"99 565 LINE",
"203 529 LINE"
);
},
{
closed = 1;
nodes = (
"616 565 LINE",
"622 603 LINE",
"409 603 LINE",
"401 557 LINE",
"503 529 LINE"
);
}
);
width = 597;
},
{
anchors = (
{
name = bottom;
position = "{232, 0}";
},
{
name = center;
position = "{309, 444}";
},
{
name = top;
position = "{337, 591}";
}
);
color = -1;
layerId = "16B79A64-180D-495F-8650-CA27198DF3EF";
paths = (
{
closed = 1;
nodes = (
"394 0 LINE",
"497 591 LINE",
"469 591 LINE",
"366 0 LINE"
);
},
{
closed = 1;
nodes = (
"164 0 LINE",
"167 18 LINE",
"93 28 LINE",
"15 15 LINE",
"12 0 LINE"
);
},
{
closed = 1;
nodes = (
"455 0 LINE",
"458 15 LINE",
"380 28 LINE",
"306 18 LINE",
"303 0 LINE"
);
},
{
closed = 1;
nodes = (
"98 0 LINE",
"201 591 LINE",
"173 591 LINE",
"70 0 LINE"
);
},
{
closed = 1;
nodes = (
"421 294 LINE",
"426 317 LINE",
"149 317 LINE",
"144 294 LINE"
);
},
{
closed = 1;
nodes = (
"261 573 LINE",
"264 591 LINE",
"112 591 LINE",
"109 576 LINE",
"187 563 LINE"
);
},
{
closed = 1;
nodes = (
"552 576 LINE",
"555 591 LINE",
"403 591 LINE",
"400 573 LINE",
"474 563 LINE"
);
}
);
width = 540;
},
{
anchors = (
{
name = bottom;
position = "{289, 0}";
},
{
name = center;
position = "{368, 449}";
},
{
name = top;
position = "{392, 613}";
}
);
layerId = "E259E77F-022A-45EF-A0F1-1168268390B3";
paths = (
{
closed = 1;
nodes = (
"545 0 LINE",
"650 613 LINE",
"468 613 LINE",
"363 0 LINE"
);
},
{
closed = 1;
nodes = (
"274 0 LINE",
"287 80 LINE",
"157 108 LINE",
"-14 72 LINE",
"-25 0 LINE"
);
},
{
closed = 1;
nodes = (
"606 0 LINE",
"617 72 LINE",
"457 108 LINE",
"320 80 LINE",
"307 0 LINE"
);
},
{
closed = 1;
nodes = (
"215 0 LINE",
"320 613 LINE",
"138 613 LINE",
"33 0 LINE"
);
},
{
closed = 1;
nodes = (
"458 264 LINE",
"473 357 LINE",
"231 357 LINE",
"216 264 LINE"
);
},
{
closed = 1;
nodes = (
"363 533 LINE",
"376 613 LINE",
"77 613 LINE",
"66 541 LINE",
"226 505 LINE"
);
},
{
closed = 1;
nodes = (
"697 541 LINE",
"708 613 LINE",
"409 613 LINE",
"396 533 LINE",
"526 505 LINE"
);
}
);
width = 657;
}
);
leftKerningGroup = H;
rightKerningGroup = H;
unicode = 0048;
},
{
color = 4;
glyphname = I;
layers = (
{
anchors = (
{
name = bottom;
position = "{110, 0}";
},
{
name = ogonek;
position = "{216, 0}";
},
{
name = top;
position = "{214, 603}";
}
);
color = -1;
layerId = "D9712079-C16A-42CB-8BA4-BD9ECFFACF10";
paths = (
{
closed = 1;
nodes = (
"152 0 LINE",
"257 603 LINE",
"166 603 LINE",
"61 0 LINE"
);
},
{
closed = 1;
nodes = (
"216 0 LINE",
"224 46 LINE",
"122 74 LINE",
"9 38 LINE",
"3 0 LINE"
);
},
{
closed = 1;
nodes = (
"310 557 LINE",
"318 603 LINE",
"105 603 LINE",
"99 565 LINE",
"203 529 LINE"
);
}
);
width = 293;
},
{
anchors = (
{
name = bottom;
position = "{85, 0}";
},
{
name = ogonek;
position = "{164, 0}";
},
{
name = top;
position = "{192, 591}";
}
);
color = -1;
layerId = "16B79A64-180D-495F-8650-CA27198DF3EF";
paths = (
{
closed = 1;
nodes = (
"98 0 LINE",
"201 591 LINE",
"173 591 LINE",
"70 0 LINE"
);
},
{
closed = 1;
nodes = (
"164 0 LINE",
"167 18 LINE",
"93 28 LINE",
"15 15 LINE",
"12 0 LINE"
);
},
{
closed = 1;
nodes = (
"261 573 LINE",
"264 591 LINE",
"112 591 LINE",
"109 576 LINE",
"187 563 LINE"
);
}
);
width = 249;
},
{
anchors = (
{
name = bottom;
position = "{125, 0}";
},
{
name = ogonek;
position = "{279, 0}";
},
{
name = top;
position = "{231, 613}";
}
);
layerId = "E259E77F-022A-45EF-A0F1-1168268390B3";
paths = (
{
closed = 1;
nodes = (
"215 0 LINE",
"320 613 LINE",
"138 613 LINE",
"33 0 LINE"
);
},
{
closed = 1;
nodes = (
"279 0 LINE",
"292 80 LINE",
"157 108 LINE",
"-14 72 LINE",
"-25 0 LINE"
);
},
{
closed = 1;
nodes = (
"368 533 LINE",
"381 613 LINE",
"77 613 LINE",
"66 541 LINE",
"226 505 LINE"
);
}
);
width = 330;
}
);
leftKerningGroup = H;
leftMetricsKey = H;
rightKerningGroup = H;
rightMetricsKey = H;
unicode = 0049;
},
{
color = 4;
glyphname = J;
layers = (
{
anchors = (
{
name = top;
position = "{213, 603}";
}
);
layerId = "D9712079-C16A-42CB-8BA4-BD9ECFFACF10";
paths = (
{
closed = 1;
nodes = (
"32 -123 OFFCURVE",
"148 -24 OFFCURVE",
"159 38 CURVE SMOOTH",
"244 540 LINE",
"156 545 LINE",
"75 70 LINE SMOOTH",
"69 35 OFFCURVE",
"54 -43 OFFCURVE",
"24 -49 CURVE SMOOTH",
"9 -52 OFFCURVE",
"-48 -52 OFFCURVE",
"-74 -52 CURVE",
"-89 -99 LINE",
"-56 -110 OFFCURVE",
"-13 -123 OFFCURVE",
"2 -123 CURVE SMOOTH"
);
},
{
closed = 1;
nodes = (
"310 557 LINE",
"318 603 LINE",
"105 603 LINE",
"99 565 LINE",
"203 529 LINE"
);
}
);
width = 281;
},
{
anchors = (
{
name = top;
position = "{187, 591}";
}
);
layerId = "16B79A64-180D-495F-8650-CA27198DF3EF";
paths = (
{
closed = 1;
nodes = (
"48 -99 OFFCURVE",
"91 -39 OFFCURVE",
"101 17 CURVE SMOOTH",
"196 572 LINE",
"169 577 LINE",
"73 21 LINE SMOOTH",
"64 -29 OFFCURVE",
"43 -68 OFFCURVE",
"27 -71 CURVE SMOOTH",
"14 -73 OFFCURVE",
"-40 -73 OFFCURVE",
"-66 -73 CURVE",
"-69 -90 LINE",
"-44 -94 OFFCURVE",
"12 -99 OFFCURVE",
"18 -99 CURVE SMOOTH"
);
},
{
closed = 1;
nodes = (
"259 573 LINE",
"262 591 LINE",
"110 591 LINE",
"107 576 LINE",
"185 563 LINE"
);
}
);
width = 243;
},
{
anchors = (
{
name = top;
position = "{225, 613}";
}
);
layerId = "E259E77F-022A-45EF-A0F1-1168268390B3";
paths = (
{
closed = 1;
nodes = (
"69 -153 OFFCURVE",
"207 -23 OFFCURVE",
"218 44 CURVE SMOOTH",
"303 550 LINE",
"122 555 LINE",
"40 80 LINE SMOOTH",
"34 45 OFFCURVE",
"19 -34 OFFCURVE",
"-1 -39 CURVE SMOOTH",
"-14 -42 OFFCURVE",
"-93 -42 OFFCURVE",
"-119 -42 CURVE",
"-137 -120 LINE",
"-96 -131 OFFCURVE",
"-1 -153 OFFCURVE",
"34 -153 CURVE SMOOTH"
);
},
{
closed = 1;
nodes = (
"362 533 LINE",
"375 613 LINE",
"71 613 LINE",
"60 541 LINE",
"220 505 LINE"
);
}
);
width = 319;
}
);
leftKerningGroup = J;
rightKerningGroup = J;
unicode = 004A;
},
{
color = 4;
glyphname = K;
layers = (
{
anchors = (
{
name = bottom;
position = "{271, 0}";
}
);
layerId = "D9712079-C16A-42CB-8BA4-BD9ECFFACF10";
paths = (
{
closed = 1;
nodes = (
"152 0 LINE",
"257 603 LINE",
"166 603 LINE",
"61 0 LINE"
);
},
{
closed = 1;
nodes = (
"216 0 LINE",
"224 46 LINE",
"122 74 LINE",
"9 38 LINE",
"3 0 LINE"
);
},
{
closed = 1;
nodes = (
"504 0 LINE",
"510 42 LINE",
"465 58 LINE",
"432 106 OFFCURVE",
"340 257 OFFCURVE",
"308 320 CURVE",
"236 320 LINE",
"231 292 LINE",
"264 219 OFFCURVE",
"344 63 OFFCURVE",
"374 0 CURVE"
);
},
{
closed = 1;
nodes = (
"310 557 LINE",
"318 603 LINE",
"105 603 LINE",
"99 565 LINE",
"203 529 LINE"
);
},
{
closed = 1;
nodes = (
"563 603 LINE",
"473 603 LINE",
"236 320 LINE",
"261 268 LINE"
);
},
{
closed = 1;
nodes = (
"574 565 LINE",
"580 603 LINE",
"368 603 LINE",
"360 557 LINE",
"461 529 LINE"
);
}
);
width = 516;
},
{
anchors = (
{
name = bottom;
position = "{233, 0}";
}
);
background = {
paths = (
{
closed = 1;
nodes = (
"258 261 OFFCURVE",
"264 267 OFFCURVE",
"264 275 CURVE SMOOTH",
"264 283 OFFCURVE",
"258 289 OFFCURVE",
"250 289 CURVE SMOOTH",
"242 289 OFFCURVE",
"236 283 OFFCURVE",
"236 275 CURVE SMOOTH",
"236 267 OFFCURVE",
"242 261 OFFCURVE",
"250 261 CURVE SMOOTH"
);
},
{
closed = 1;
nodes = (
"380 29 OFFCURVE",
"386 35 OFFCURVE",
"386 43 CURVE SMOOTH",
"386 51 OFFCURVE",
"380 57 OFFCURVE",
"372 57 CURVE SMOOTH",
"364 57 OFFCURVE",
"358 51 OFFCURVE",
"358 43 CURVE SMOOTH",
"358 35 OFFCURVE",
"364 29 OFFCURVE",
"372 29 CURVE SMOOTH"
);
},
{
closed = 1;
nodes = (
"258 326 OFFCURVE",
"264 332 OFFCURVE",
"264 340 CURVE SMOOTH",
"264 348 OFFCURVE",
"258 354 OFFCURVE",
"250 354 CURVE SMOOTH",
"242 354 OFFCURVE",
"236 348 OFFCURVE",
"236 340 CURVE SMOOTH",
"236 332 OFFCURVE",
"242 326 OFFCURVE",
"250 326 CURVE SMOOTH"
);
},
{
closed = 1;
nodes = (
"478 545 OFFCURVE",
"484 551 OFFCURVE",
"484 559 CURVE SMOOTH",
"484 567 OFFCURVE",
"478 573 OFFCURVE",
"470 573 CURVE SMOOTH",
"462 573 OFFCURVE",
"456 567 OFFCURVE",
"456 559 CURVE SMOOTH",
"456 551 OFFCURVE",
"462 545 OFFCURVE",
"470 545 CURVE SMOOTH"
);
}
);
};
layerId = "16B79A64-180D-495F-8650-CA27198DF3EF";
paths = (
{
closed = 1;
nodes = (
"98 0 LINE",
"201 591 LINE",
"173 591 LINE",
"70 0 LINE"
);
},
{
closed = 1;
nodes = (
"164 0 LINE",
"167 18 LINE",
"93 28 LINE",
"15 15 LINE",
"12 0 LINE"
);
},
{
closed = 1;
nodes = (
"443 0 LINE",
"446 19 LINE",
"377 28 LINE",
"343 75 OFFCURVE",
"236 257 OFFCURVE",
"203 320 CURVE",
"181 320 LINE",
"179 304 LINE",
"220 231 OFFCURVE",
"319 63 OFFCURVE",
"354 0 CURVE"
);
},
{
closed = 1;
nodes = (
"261 573 LINE",
"264 591 LINE",
"112 591 LINE",
"109 576 LINE",
"187 563 LINE"
);
},
{
closed = 1;
nodes = (
"486 591 LINE",
"451 591 LINE",
"181 320 LINE",
"191 303 LINE"
);
},
{
closed = 1;
nodes = (
"523 573 LINE",
"526 591 LINE",
"374 591 LINE",
"371 570 LINE",
"445 563 LINE"
);
}
);
width = 460;
},
{
anchors = (
{
name = bottom;
position = "{314, 0}";
}
);
background = {
paths = (
{
closed = 1;
nodes = (
"357 613 LINE",
"175 613 LINE",
"70 0 LINE",
"252 0 LINE"
);
},
{
closed = 1;
nodes = (
"263 505 LINE",
"395 533 LINE",
"408 613 LINE",
"114 613 LINE",
"103 541 LINE"
);
},
{
closed = 1;
nodes = (
"23 72 LINE",
"12 0 LINE",
"311 0 LINE",
"324 80 LINE",
"194 108 LINE"
);
},
{
closed = 1;
nodes = (
"403 268 LINE",
"714 613 LINE",
"569 613 LINE",
"328 335 LINE"
);
},
{
closed = 1;
nodes = (
"703 541 LINE",
"714 613 LINE",
"445 613 LINE",
"432 533 LINE",
"532 505 LINE"
);
},
{
closed = 1;
nodes = (
"624 0 LINE",
"635 72 LINE",
"582 100 LINE",
"554 153 OFFCURVE",
"498 276 OFFCURVE",
"465 350 CURVE",
"328 335 LINE",
"319 278 LINE",
"341 205 OFFCURVE",
"386 73 OFFCURVE",
"413 0 CURVE"
);
}
);
};
layerId = "E259E77F-022A-45EF-A0F1-1168268390B3";
paths = (
{
closed = 1;
nodes = (
"215 0 LINE",
"320 613 LINE",
"138 613 LINE",
"33 0 LINE"
);
},
{
closed = 1;
nodes = (
"274 0 LINE",
"287 80 LINE",
"157 108 LINE",
"-14 72 LINE",
"-25 0 LINE"
);
},
{
closed = 1;
nodes = (
"587 0 LINE",
"598 72 LINE",
"539 101 LINE",
"513 154 OFFCURVE",
"460 276 OFFCURVE",
"428 350 CURVE",
"291 335 LINE",
"282 278 LINE",
"304 205 OFFCURVE",
"349 73 OFFCURVE",
"376 0 CURVE"
);
},
{
closed = 1;
nodes = (
"358 533 LINE",
"371 613 LINE",
"77 613 LINE",
"66 541 LINE",
"226 505 LINE"
);
},
{
closed = 1;
nodes = (
"677 613 LINE",
"532 613 LINE",
"291 335 LINE",
"366 268 LINE"
);
},
{
closed = 1;
nodes = (
"666 541 LINE",
"677 613 LINE",
"408 613 LINE",
"395 533 LINE",
"495 505 LINE"
);
}
);
width = 613;
}
);
leftKerningGroup = H;
leftMetricsKey = H;
rightKerningGroup = K;
unicode = 004B;
},
{
color = 4;
glyphname = L;
layers = (
{
anchors = (
{
name = bottom;
position = "{224, 0}";
},
{
name = center;
position = "{207, 298}";
},
{
name = top;
position = "{220, 603}";
},
{
name = topright;
position = "{382, 448}";
}
);
background = {
paths = (
{
closed = 1;
nodes = (
"45 38 LINE",
"39 0 LINE",
"433 0 LINE",
"464 179 LINE",
"414 179 LINE",
"371 49 LINE",
"325 52 OFFCURVE",
"244 58 OFFCURVE",
"199 63 CURVE",
"107 58 LINE"
);
}
);
};
guideLines = (
{
position = "{434, 681}";
}
);
layerId = "D9712079-C16A-42CB-8BA4-BD9ECFFACF10";
paths = (
{
closed = 1;
nodes = (
"152 0 LINE",
"257 603 LINE",
"166 603 LINE",
"61 0 LINE"
);
},
{
closed = 1;
nodes = (
"397 0 LINE",
"397 44 LINE",
"104 69 LINE",
"9 38 LINE",
"3 0 LINE"
);
},
{
closed = 1;
nodes = (
"397 0 LINE",
"431 199 LINE",
"381 200 LINE",
"319 0 LINE"
);
},
{
closed = 1;
nodes = (
"330 557 LINE",
"338 603 LINE",
"105 603 LINE",
"99 565 LINE",
"203 529 LINE"
);
}
);
width = 450;
},
{
anchors = (
{
name = bottom;
position = "{203, 0}";
},
{
name = center;
position = "{175, 305}";
},
{
name = top;
position = "{191, 591}";
},
{
name = topright;
position = "{342, 440}";
}
);
background = {
paths = (
{
closed = 1;
nodes = (
"307 591 LINE",
"303 570 LINE",
"234 564 LINE",
"143 27 LINE",
"341 27 LINE",
"370 142 LINE",
"388 142 LINE",
"367 0 LINE",
"55 0 LINE",
"58 20 LINE",
"114 25 LINE",
"205 566 LINE",
"152 573 LINE",
"155 591 LINE"
);
}
);
};
guideLines = (
{
position = "{434, 637}";
}
);
layerId = "16B79A64-180D-495F-8650-CA27198DF3EF";
paths = (
{
closed = 1;
nodes = (
"98 0 LINE",
"201 591 LINE",
"173 591 LINE",
"70 0 LINE"
);
},
{
closed = 1;
nodes = (
"319 0 LINE",
"322 19 LINE",
"93 28 LINE",
"15 15 LINE",
"12 0 LINE"
);
},
{
closed = 1;
nodes = (
"328 0 LINE",
"353 147 LINE",
"334 148 LINE",
"296 0 LINE"
);
},
{
closed = 1;
nodes = (
"261 573 LINE",
"264 591 LINE",
"112 591 LINE",
"109 576 LINE",
"187 563 LINE"
);
}
);
width = 388;
},
{
anchors = (
{
name = bottom;
position = "{246, 0}";
},
{
name = center;
position = "{209, 307}";
},
{
name = top;
position = "{229, 613}";
},
{
name = topright;
position = "{393, 462}";
}
);
background = {
paths = (
{
closed = 1;
nodes = (
"215 0 LINE",
"320 613 LINE",
"138 613 LINE",
"33 0 LINE"
);
},
{
closed = 1;
nodes = (
"416 0 LINE",
"430 87 LINE",
"157 108 LINE",
"-13 72 LINE",
"-25 0 LINE"
);
},
{
closed = 1;
nodes = (
"459 0 LINE",
"499 263 LINE",
"412 263 LINE",
"331 0 LINE"
);
},
{
closed = 1;
nodes = (
"393 533 LINE",
"406 613 LINE",
"77 613 LINE",
"66 541 LINE",
"226 505 LINE"
);
}
);
};
guideLines = (
{
position = "{434, 743}";
}
);
layerId = "E259E77F-022A-45EF-A0F1-1168268390B3";
paths = (
{
closed = 1;
nodes = (
"215 0 LINE",
"320 613 LINE",
"138 613 LINE",
"33 0 LINE"
);
},
{
closed = 1;
nodes = (
"416 0 LINE",
"430 87 LINE",
"157 108 LINE",
"-13 72 LINE",
"-25 0 LINE"
);
},
{
closed = 1;
nodes = (
"459 0 LINE",
"491 219 LINE",
"398 219 LINE",
"331 0 LINE"
);
},
{
closed = 1;
nodes = (
"393 533 LINE",
"406 613 LINE",
"77 613 LINE",
"66 541 LINE",
"226 505 LINE"
);
}
);
width = 511;
}
);
leftKerningGroup = H;
leftMetricsKey = H;
rightKerningGroup = L;
unicode = 004C;
},
{
glyphname = Lslash;
layers = (
{
background = {
paths = (
{
closed = 1;
nodes = (
"323 401 LINE",
"327 419 LINE",
"319 422 LINE",
"50 268 LINE",
"46 251 LINE",
"55 248 LINE"
);
}
);
};
components = (
{
name = L;
},
{
name = slashshortcomb.case;
transform = "{1, 0, 0, 1, 29, -30}";
}
);
layerId = "16B79A64-180D-495F-8650-CA27198DF3EF";
width = 388;
},
{
background = {
paths = (
{
closed = 1;
nodes = (
"358 378 LINE",
"366 428 LINE",
"353 431 LINE",
"59 309 LINE",
"51 258 LINE",
"63 255 LINE"
);
}
);
};
components = (
{
name = L;
},
{
name = slashshortcomb.case;
transform = "{1, 0, 0, 1, 22, -54}";
}
);
layerId = "D9712079-C16A-42CB-8BA4-BD9ECFFACF10";
width = 450;
},
{
background = {
paths = (
{
closed = 1;
nodes = (
"398 328 LINE",
"416 428 LINE",
"393 441 LINE",
"55 319 LINE",
"37 218 LINE",
"61 205 LINE"
);
}
);
};
components = (
{
name = L;
},
{
name = slashshortcomb.case;
transform = "{1, 0, 0, 1, 7, -21}";
}
);
layerId = "E259E77F-022A-45EF-A0F1-1168268390B3";
width = 511;
}
);
leftKerningGroup = H;
rightKerningGroup = L;
unicode = 0141;
},
{
color = 4;
glyphname = M;
layers = (
{
background = {
paths = (
{
closed = 1;
nodes = (
"529 276 OFFCURVE",
"545 292 OFFCURVE",
"545 311 CURVE SMOOTH",
"545 329 OFFCURVE",
"529 345 OFFCURVE",
"510 345 CURVE SMOOTH",
"492 345 OFFCURVE",
"476 329 OFFCURVE",
"476 311 CURVE SMOOTH",
"476 292 OFFCURVE",
"492 276 OFFCURVE",
"510 276 CURVE SMOOTH"
);
},
{
closed = 1;
nodes = (
"181 256 OFFCURVE",
"197 272 OFFCURVE",
"197 291 CURVE SMOOTH",
"197 309 OFFCURVE",
"181 325 OFFCURVE",
"162 325 CURVE SMOOTH",
"144 325 OFFCURVE",
"128 309 OFFCURVE",
"128 291 CURVE SMOOTH",
"128 272 OFFCURVE",
"144 256 OFFCURVE",
"162 256 CURVE SMOOTH"
);
},
{
closed = 1;
nodes = (
"668 220 OFFCURVE",
"687 239 OFFCURVE",
"687 263 CURVE SMOOTH",
"687 286 OFFCURVE",
"668 305 OFFCURVE",
"645 305 CURVE SMOOTH",
"621 305 OFFCURVE",
"602 286 OFFCURVE",
"602 263 CURVE SMOOTH",
"602 239 OFFCURVE",
"621 220 OFFCURVE",
"645 220 CURVE SMOOTH"
);
},
{
closed = 1;
nodes = (
"336 220 OFFCURVE",
"355 239 OFFCURVE",
"355 263 CURVE SMOOTH",
"355 286 OFFCURVE",
"336 305 OFFCURVE",
"313 305 CURVE SMOOTH",
"289 305 OFFCURVE",
"270 286 OFFCURVE",
"270 263 CURVE SMOOTH",
"270 239 OFFCURVE",
"289 220 OFFCURVE",
"313 220 CURVE SMOOTH"
);
},
{
closed = 1;
nodes = (
"308 603 LINE",
"128 603 LINE",
"121 565 LINE",
"226 529 LINE"
);
},
{
closed = 1;
nodes = (
"664 525 LINE",
"786 565 LINE",
"793 603 LINE",
"607 603 LINE"
);
},
{
closed = 1;
nodes = (
"653 0 LINE",
"733 603 LINE",
"607 603 LINE",
"386 121 LINE",
"375 121 LINE",
"308 603 LINE",
"191 603 LINE",
"67 0 LINE",
"150 0 LINE",
"242 491 LINE",
"249 491 LINE",
"249 491 OFFCURVE",
"264 347 OFFCURVE",
"272 295 CURVE SMOOTH",
"310 42 LINE",
"324 34 LINE",
"421 48 LINE",
"544 301 LINE SMOOTH",
"575 365 OFFCURVE",
"630 491 OFFCURVE",
"630 491 CURVE",
"637 491 LINE",
"562 0 LINE"
);
},
{
closed = 1;
nodes = (
"17 38 LINE",
"11 0 LINE",
"215 0 LINE",
"223 46 LINE",
"125 73 LINE"
);
},
{
closed = 1;
nodes = (
"712 0 LINE",
"718 38 LINE",
"614 74 LINE",
"508 46 LINE",
"500 0 LINE"
);
}
);
};
layerId = "D9712079-C16A-42CB-8BA4-BD9ECFFACF10";
paths = (
{
closed = 1;
nodes = (
"110 0 LINE",
"208 499 LINE",
"215 499 LINE",
"221 434 OFFCURVE",
"231 333 OFFCURVE",
"237 295 CURVE SMOOTH",
"275 42 LINE",
"289 34 LINE",
"388 48 LINE",
"511 301 LINE SMOOTH",
"530 340 OFFCURVE",
"575 442 OFFCURVE",
"602 499 CURVE",
"609 499 LINE",
"534 0 LINE",
"625 0 LINE",
"705 603 LINE",
"582 603 LINE",
"358 121 LINE",
"347 121 LINE",
"280 603 LINE",
"166 603 LINE",
"42 0 LINE"
);
},
{
closed = 1;
nodes = (
"187 0 LINE",
"195 46 LINE",
"97 73 LINE",
"-8 38 LINE",
"-14 0 LINE"
);
},
{
closed = 1;
nodes = (
"684 0 LINE",
"690 38 LINE",
"586 74 LINE",
"480 46 LINE",
"472 0 LINE"
);
},
{
closed = 1;
nodes = (
"280 603 LINE",
"103 603 LINE",
"96 565 LINE",
"198 529 LINE"
);
},
{
closed = 1;
nodes = (
"758 565 LINE",
"765 603 LINE",
"582 603 LINE",
"636 525 LINE"
);
}
);
width = 745;
},
{
background = {
paths = (
{
closed = 1;
nodes = (
"250 591 LINE",
"144 591 LINE",
"141 573 LINE",
"219 563 LINE"
);
},
{
closed = 1;
nodes = (
"572 563 LINE",
"650 573 LINE",
"653 591 LINE",
"549 591 LINE"
);
},
{
closed = 1;
nodes = (
"508 0 LINE",
"595 591 LINE",
"549 591 LINE",
"317 62 LINE",
"308 62 LINE",
"250 591 LINE",
"205 591 LINE",
"93 0 LINE",
"120 0 LINE",
"222 549 LINE",
"229 549 LINE",
"229 549 OFFCURVE",
"254 306 OFFCURVE",
"260 254 CURVE SMOOTH",
"285 42 LINE",
"299 34 LINE",
"337 48 LINE",
"434 262 LINE SMOOTH",
"463 326 OFFCURVE",
"557 549 OFFCURVE",
"557 549 CURVE",
"564 549 LINE",
"480 0 LINE"
);
},
{
closed = 1;
nodes = (
"116 28 LINE",
"40 18 LINE",
"37 0 LINE",
"185 0 LINE",
"188 21 LINE"
);
},
{
closed = 1;
nodes = (
"493 28 LINE",
"419 21 LINE",
"416 0 LINE",
"568 0 LINE",
"571 18 LINE"
);
}
);
};
layerId = "16B79A64-180D-495F-8650-CA27198DF3EF";
paths = (
{
closed = 1;
nodes = (
"83 0 LINE",
"189 554 LINE",
"197 554 LINE",
"207 447 OFFCURVE",
"223 292 OFFCURVE",
"227 254 CURVE SMOOTH",
"252 42 LINE",
"266 34 LINE",
"300 48 LINE",
"397 262 LINE SMOOTH",
"426 326 OFFCURVE",
"524 554 OFFCURVE",
"525 554 CURVE",
"532 554 LINE",
"447 0 LINE",
"475 0 LINE",
"562 591 LINE",
"518 591 LINE",
"285 61 LINE",
"276 61 LINE",
"217 591 LINE",
"174 591 LINE",
"62 0 LINE"
);
},
{
closed = 1;
nodes = (
"152 0 LINE",
"155 18 LINE",
"83 28 LINE",
"9 15 LINE",
"6 0 LINE"
);
},
{
closed = 1;
nodes = (
"535 0 LINE",
"538 15 LINE",
"460 28 LINE",
"386 18 LINE",
"383 0 LINE"
);
},
{
closed = 1;
nodes = (
"217 591 LINE",
"113 591 LINE",
"110 576 LINE",
"186 563 LINE"
);
},
{
closed = 1;
nodes = (
"617 576 LINE",
"620 591 LINE",
"518 591 LINE",
"539 563 LINE"
);
}
);
width = 609;
},
{
background = {
paths = (
{
closed = 1;
nodes = (
"399 613 LINE",
"120 613 LINE",
"109 541 LINE",
"269 505 LINE"
);
},
{
closed = 1;
nodes = (
"727 505 LINE",
"898 541 LINE",
"908 613 LINE",
"614 613 LINE"
);
},
{
closed = 1;
nodes = (
"775 0 LINE",
"848 613 LINE",
"614 613 LINE",
"467 283 LINE",
"448 283 LINE",
"399 613 LINE",
"185 613 LINE",
"48 0 LINE",
"208 0 LINE",
"275 363 LINE",
"290 363 LINE",
"291 332 OFFCURVE",
"296 285 OFFCURVE",
"303 248 CURVE SMOOTH",
"345 38 LINE",
"384 26 LINE",
"473 44 LINE",
"595 288 LINE SMOOTH",
"605 308 OFFCURVE",
"618 333 OFFCURVE",
"627 361 CURVE",
"642 361 LINE",
"597 0 LINE"
);
},
{
closed = 1;
nodes = (
"-1 72 LINE",
"-12 0 LINE",
"272 0 LINE",
"285 80 LINE",
"170 108 LINE"
);
},
{
closed = 1;
nodes = (
"683 108 LINE",
"551 80 LINE",
"538 0 LINE",
"832 0 LINE",
"843 72 LINE"
);
},
{
closed = 1;
nodes = (
"570 246 OFFCURVE",
"596 272 OFFCURVE",
"596 303 CURVE SMOOTH",
"596 334 OFFCURVE",
"570 360 OFFCURVE",
"539 360 CURVE SMOOTH",
"507 360 OFFCURVE",
"481 334 OFFCURVE",
"481 303 CURVE SMOOTH",
"481 272 OFFCURVE",
"507 246 OFFCURVE",
"539 246 CURVE SMOOTH"
);
},
{
closed = 1;
nodes = (
"206 246 OFFCURVE",
"232 272 OFFCURVE",
"232 303 CURVE SMOOTH",
"232 334 OFFCURVE",
"206 360 OFFCURVE",
"175 360 CURVE SMOOTH",
"143 360 OFFCURVE",
"117 334 OFFCURVE",
"117 303 CURVE SMOOTH",
"117 272 OFFCURVE",
"143 246 OFFCURVE",
"175 246 CURVE SMOOTH"
);
},
{
closed = 1;
nodes = (
"766 174 OFFCURVE",
"806 214 OFFCURVE",
"806 262 CURVE SMOOTH",
"806 310 OFFCURVE",
"766 350 OFFCURVE",
"718 350 CURVE SMOOTH",
"670 350 OFFCURVE",
"630 310 OFFCURVE",
"630 262 CURVE SMOOTH",
"630 214 OFFCURVE",
"670 174 OFFCURVE",
"718 174 CURVE SMOOTH"
);
},
{
closed = 1;
nodes = (
"419 174 OFFCURVE",
"459 214 OFFCURVE",
"459 262 CURVE SMOOTH",
"459 310 OFFCURVE",
"419 350 OFFCURVE",
"371 350 CURVE SMOOTH",
"323 350 OFFCURVE",
"283 310 OFFCURVE",
"283 262 CURVE SMOOTH",
"283 214 OFFCURVE",
"323 174 OFFCURVE",
"371 174 CURVE SMOOTH"
);
}
);
};
layerId = "E259E77F-022A-45EF-A0F1-1168268390B3";
paths = (
{
closed = 1;
nodes = (
"144 0 LINE",
"216 383 LINE",
"231 383 LINE",
"235 352 OFFCURVE",
"242 305 OFFCURVE",
"248 268 CURVE SMOOTH",
"285 38 LINE",
"324 26 LINE",
"441 44 LINE",
"568 309 LINE SMOOTH",
"578 329 OFFCURVE",
"590 354 OFFCURVE",
"600 382 CURVE",
"615 382 LINE",
"565 0 LINE",
"743 0 LINE",
"816 613 LINE",
"587 613 LINE",
"440 283 LINE",
"421 283 LINE",
"372 613 LINE",
"158 613 LINE",
"21 0 LINE"
);
},
{
closed = 1;
nodes = (
"230 0 LINE",
"243 80 LINE",
"138 108 LINE",
"-28 72 LINE",
"-39 0 LINE"
);
},
{
closed = 1;
nodes = (
"800 0 LINE",
"811 72 LINE",
"651 108 LINE",
"519 80 LINE",
"506 0 LINE"
);
},
{
closed = 1;
nodes = (
"372 613 LINE",
"93 613 LINE",
"82 541 LINE",
"237 505 LINE"
);
},
{
closed = 1;
nodes = (
"866 541 LINE",
"876 613 LINE",
"587 613 LINE",
"695 505 LINE"
);
}
);
width = 841;
}
);
leftKerningGroup = M;
rightKerningGroup = M;
unicode = 004D;
},
{
color = 4;
glyphname = N;
layers = (
{
anchors = (
{
name = bottom;
position = "{274, 0}";
},
{
name = top;
position = "{359, 603}";
}
);
layerId = "D9712079-C16A-42CB-8BA4-BD9ECFFACF10";
paths = (
{
closed = 1;
nodes = (
"460 7 LINE",
"564 603 LINE",
"478 603 LINE",
"402 81 LINE",
"395 81 LINE",
"384 146 OFFCURVE",
"367 242 OFFCURVE",
"360 268 CURVE SMOOTH",
"277 603 LINE",
"166 603 LINE",
"61 0 LINE",
"147 0 LINE",
"219 496 LINE",
"226 496 LINE",
"237 432 OFFCURVE",
"255 333 OFFCURVE",
"264 295 CURVE SMOOTH",
"337 1 LINE",
"351 -7 LINE"
);
},
{
closed = 1;
nodes = (
"208 0 LINE",
"216 46 LINE",
"114 74 LINE",
"9 38 LINE",
"3 0 LINE"
);
},
{
closed = 1;
nodes = (
"277 603 LINE",
"105 603 LINE",
"98 565 LINE",
"203 529 LINE"
);
},
{
closed = 1;
nodes = (
"616 565 LINE",
"622 603 LINE",
"416 603 LINE",
"408 557 LINE",
"502 529 LINE"
);
}
);
width = 591;
},
{
anchors = (
{
name = bottom;
position = "{237, 0}";
},
{
name = top;
position = "{329, 591}";
}
);
layerId = "16B79A64-180D-495F-8650-CA27198DF3EF";
paths = (
{
closed = 1;
nodes = (
"394 7 LINE",
"496 591 LINE",
"470 591 LINE",
"372 25 LINE",
"366 25 LINE",
"343 114 OFFCURVE",
"311 242 OFFCURVE",
"304 268 CURVE SMOOTH",
"219 591 LINE",
"172 591 LINE",
"69 0 LINE",
"99 0 LINE",
"194 563 LINE",
"200 563 LINE",
"223 470 OFFCURVE",
"258 333 OFFCURVE",
"268 295 CURVE SMOOTH",
"346 1 LINE",
"360 -7 LINE"
);
},
{
closed = 1;
nodes = (
"164 0 LINE",
"167 18 LINE",
"93 28 LINE",
"15 15 LINE",
"12 0 LINE"
);
},
{
closed = 1;
nodes = (
"219 591 LINE",
"112 591 LINE",
"109 576 LINE",
"187 563 LINE"
);
},
{
closed = 1;
nodes = (
"552 576 LINE",
"555 591 LINE",
"403 591 LINE",
"400 573 LINE",
"474 563 LINE"
);
}
);
width = 530;
},
{
anchors = (
{
name = bottom;
position = "{315, 0}";
},
{
name = top;
position = "{391, 613}";
}
);
layerId = "E259E77F-022A-45EF-A0F1-1168268390B3";
paths = (
{
closed = 1;
nodes = (
"544 7 LINE",
"648 613 LINE",
"490 613 LINE",
"435 262 LINE",
"423 262 LINE",
"410 307 OFFCURVE",
"380 391 OFFCURVE",
"369 428 CURVE SMOOTH",
"312 613 LINE",
"138 613 LINE",
"33 0 LINE",
"197 0 LINE",
"238 324 LINE",
"251 324 LINE",
"262 282 OFFCURVE",
"294 199 OFFCURVE",
"311 155 CURVE SMOOTH",
"367 11 LINE",
"394 -7 LINE"
);
},
{
closed = 1;
nodes = (
"264 0 LINE",
"277 80 LINE",
"157 108 LINE",
"-14 72 LINE",
"-25 0 LINE"
);
},
{
closed = 1;
nodes = (
"312 613 LINE",
"77 613 LINE",
"66 541 LINE",
"253 505 LINE"
);
},
{
closed = 1;
nodes = (
"694 541 LINE",
"705 613 LINE",
"419 613 LINE",
"406 533 LINE",
"536 505 LINE"
);
}
);
width = 651;
}
);
leftKerningGroup = H;
leftMetricsKey = H;
rightKerningGroup = N;
unicode = 004E;
},
{
color = 4;
glyphname = Eng;
layers = (
{
layerId = "D9712079-C16A-42CB-8BA4-BD9ECFFACF10";
paths = (
{
closed = 1;
nodes = (
"460 7 LINE",
"564 603 LINE",
"478 603 LINE",
"413 146 LINE",
"406 146 LINE",
"394 204 OFFCURVE",
"376 290 OFFCURVE",
"368 316 CURVE SMOOTH",
"277 603 LINE",
"166 603 LINE",
"61 0 LINE",
"147 0 LINE",
"219 496 LINE",
"226 496 LINE",
"242 432 OFFCURVE",
"268 333 OFFCURVE",
"280 295 CURVE SMOOTH",
"380 -15 LINE"
);
},
{
closed = 1;
nodes = (
"208 0 LINE",
"216 46 LINE",
"114 74 LINE",
"9 38 LINE",
"3 0 LINE"
);
},
{
closed = 1;
nodes = (
"349 -153 OFFCURVE",
"449 -55 OFFCURVE",
"460 7 CURVE",
"392 40 LINE",
"386 5 OFFCURVE",
"371 -73 OFFCURVE",
"341 -79 CURVE SMOOTH",
"326 -82 OFFCURVE",
"269 -82 OFFCURVE",
"243 -82 CURVE",
"228 -129 LINE",
"261 -138 OFFCURVE",
"304 -153 OFFCURVE",
"319 -153 CURVE SMOOTH"
);
},
{
closed = 1;
nodes = (
"277 603 LINE",
"105 603 LINE",
"98 565 LINE",
"203 529 LINE"
);
},
{
closed = 1;
nodes = (
"616 565 LINE",
"622 603 LINE",
"416 603 LINE",
"408 557 LINE",
"502 529 LINE"
);
}
);
width = 586;
},
{
layerId = "16B79A64-180D-495F-8650-CA27198DF3EF";
paths = (
{
closed = 1;
nodes = (
"393 7 LINE",
"495 591 LINE",
"469 591 LINE",
"377 45 LINE",
"371 45 LINE",
"350 126 OFFCURVE",
"318 242 OFFCURVE",
"311 268 CURVE SMOOTH",
"218 591 LINE",
"171 591 LINE",
"68 0 LINE",
"98 0 LINE",
"193 563 LINE",
"199 563 LINE",
"224 470 OFFCURVE",
"260 333 OFFCURVE",
"272 295 CURVE SMOOTH",
"365 -9 LINE"
);
},
{
closed = 1;
nodes = (
"163 0 LINE",
"166 21 LINE",
"92 28 LINE",
"14 18 LINE",
"11 0 LINE"
);
},
{
closed = 1;
nodes = (
"342 -129 OFFCURVE",
"382 -71 OFFCURVE",
"393 7 CURVE",
"371 24 LINE",
"358 -48 OFFCURVE",
"341 -97 OFFCURVE",
"319 -101 CURVE SMOOTH",
"304 -104 OFFCURVE",
"252 -103 OFFCURVE",
"226 -103 CURVE",
"223 -120 LINE",
"248 -124 OFFCURVE",
"304 -129 OFFCURVE",
"310 -129 CURVE SMOOTH"
);
},
{
closed = 1;
nodes = (
"218 591 LINE",
"111 591 LINE",
"108 573 LINE",
"186 563 LINE"
);
},
{
closed = 1;
nodes = (
"551 573 LINE",
"554 591 LINE",
"402 591 LINE",
"399 570 LINE",
"473 563 LINE"
);
}
);
width = 535;
},
{
layerId = "E259E77F-022A-45EF-A0F1-1168268390B3";
paths = (
{
closed = 1;
nodes = (
"544 7 LINE",
"648 613 LINE",
"490 613 LINE",
"438 255 LINE",
"426 255 LINE",
"416 300 OFFCURVE",
"392 392 OFFCURVE",
"379 428 CURVE SMOOTH",
"312 613 LINE",
"138 613 LINE",
"33 0 LINE",
"197 0 LINE",
"238 324 LINE",
"251 324 LINE",
"267 282 OFFCURVE",
"300 198 OFFCURVE",
"320 155 CURVE SMOOTH",
"394 -7 LINE"
);
},
{
closed = 1;
nodes = (
"264 0 LINE",
"277 80 LINE",
"157 108 LINE",
"-14 72 LINE",
"-25 0 LINE"
);
},
{
closed = 1;
nodes = (
"427 -184 OFFCURVE",
"533 -60 OFFCURVE",
"544 7 CURVE",
"398 49 LINE",
"392 14 OFFCURVE",
"377 -65 OFFCURVE",
"357 -70 CURVE SMOOTH",
"342 -74 OFFCURVE",
"265 -73 OFFCURVE",
"239 -73 CURVE",
"221 -151 LINE",
"262 -162 OFFCURVE",
"357 -184 OFFCURVE",
"392 -184 CURVE SMOOTH"
);
},
{
closed = 1;
nodes = (
"312 613 LINE",
"77 613 LINE",
"66 541 LINE",
"253 505 LINE"
);
},
{
closed = 1;
nodes = (
"694 541 LINE",
"705 613 LINE",
"419 613 LINE",
"406 533 LINE",
"536 505 LINE"
);
}
);
width = 649;
}
);
leftKerningGroup = H;
leftMetricsKey = H;
rightKerningGroup = J;
rightMetricsKey = J;
unicode = 014A;
},
{
color = 4;
glyphname = Nhookleft;
layers = (
{
layerId = "D9712079-C16A-42CB-8BA4-BD9ECFFACF10";
paths = (
{
closed = 1;
nodes = (
"27 -153 OFFCURVE",
"141 -54 OFFCURVE",
"150 8 CURVE SMOOTH",
"221 496 LINE",
"228 496 LINE",
"239 432 OFFCURVE",
"257 333 OFFCURVE",
"266 295 CURVE SMOOTH",
"339 1 LINE",
"353 -7 LINE",
"462 7 LINE",
"566 603 LINE",
"480 603 LINE",
"404 81 LINE",
"397 81 LINE",
"362 268 LINE",
"279 603 LINE",
"168 603 LINE",
"70 40 LINE SMOOTH",
"64 5 OFFCURVE",
"49 -73 OFFCURVE",
"19 -79 CURVE SMOOTH",
"4 -82 OFFCURVE",
"-53 -82 OFFCURVE",
"-79 -82 CURVE",
"-94 -129 LINE",
"-61 -138 OFFCURVE",
"-18 -153 OFFCURVE",
"-3 -153 CURVE SMOOTH"
);
},
{
closed = 1;
nodes = (
"279 603 LINE",
"107 603 LINE",
"100 565 LINE",
"205 529 LINE"
);
},
{
closed = 1;
nodes = (
"618 565 LINE",
"624 603 LINE",
"418 603 LINE",
"410 557 LINE",
"504 529 LINE"
);
}
);
width = 593;
},
{
layerId = "16B79A64-180D-495F-8650-CA27198DF3EF";
paths = (
{
closed = 1;
nodes = (
"43 -129 OFFCURVE",
"88 -69 OFFCURVE",
"97 -13 CURVE SMOOTH",
"194 563 LINE",
"200 563 LINE",
"223 470 OFFCURVE",
"258 333 OFFCURVE",
"268 295 CURVE SMOOTH",
"346 1 LINE",
"360 -7 LINE",
"394 7 LINE",
"496 591 LINE",
"470 591 LINE",
"372 25 LINE",
"366 25 LINE",
"304 268 LINE",
"219 591 LINE",
"172 591 LINE",
"68 -9 LINE SMOOTH",
"59 -59 OFFCURVE",
"38 -98 OFFCURVE",
"22 -101 CURVE SMOOTH",
"7 -104 OFFCURVE",
"-45 -103 OFFCURVE",
"-71 -103 CURVE",
"-74 -120 LINE",
"-49 -124 OFFCURVE",
"7 -129 OFFCURVE",
"13 -129 CURVE SMOOTH"
);
},
{
closed = 1;
nodes = (
"219 591 LINE",
"112 591 LINE",
"109 573 LINE",
"187 563 LINE"
);
},
{
closed = 1;
nodes = (
"552 573 LINE",
"555 591 LINE",
"403 591 LINE",
"400 570 LINE",
"474 563 LINE"
);
}
);
width = 530;
},
{
layerId = "E259E77F-022A-45EF-A0F1-1168268390B3";
paths = (
{
closed = 1;
nodes = (
"64 -184 OFFCURVE",
"184 -54 OFFCURVE",
"192 13 CURVE SMOOTH",
"231 324 LINE",
"244 324 LINE",
"255 282 OFFCURVE",
"287 199 OFFCURVE",
"304 155 CURVE SMOOTH",
"360 11 LINE",
"387 -7 LINE",
"537 7 LINE",
"641 613 LINE",
"483 613 LINE",
"428 262 LINE",
"416 262 LINE",
"362 428 LINE",
"305 613 LINE",
"131 613 LINE",
"35 49 LINE SMOOTH",
"29 14 OFFCURVE",
"14 -65 OFFCURVE",
"-6 -70 CURVE SMOOTH",
"-21 -74 OFFCURVE",
"-98 -73 OFFCURVE",
"-124 -73 CURVE",
"-142 -151 LINE",
"-101 -162 OFFCURVE",
"-6 -184 OFFCURVE",
"29 -184 CURVE SMOOTH"
);
},
{
closed = 1;
nodes = (
"305 613 LINE",
"70 613 LINE",
"59 541 LINE",
"246 505 LINE"
);
},
{
closed = 1;
nodes = (
"687 541 LINE",
"698 613 LINE",
"412 613 LINE",
"399 533 LINE",
"529 505 LINE"
);
}
);
width = 644;
}
);
leftKerningGroup = J;
leftMetricsKey = J;
rightKerningGroup = N;
rightMetricsKey = N;
unicode = 019D;
},
{
color = 4;
glyphname = O;
layers = (
{
anchors = (
{
name = bottom;
position = "{226, 0}";
},
{
name = center;
position = "{280, 307}";
},
{
name = ogonek;
position = "{288, 0}";
},
{
name = top;
position = "{327, 603}";
},
{
name = topright;
position = "{374, 603}";
}
);
background = {
paths = (
{
closed = 1;
nodes = (
"324 -9 OFFCURVE",
"438 62 OFFCURVE",
"479 108 CURVE",
"513 192 OFFCURVE",
"547 315 OFFCURVE",
"547 409 CURVE SMOOTH",
"547 550 OFFCURVE",
"474 611 OFFCURVE",
"332 611 CURVE SMOOTH",
"306 611 OFFCURVE",
"188 535 OFFCURVE",
"149 494 CURVE",
"115 413 OFFCURVE",
"80 284 OFFCURVE",
"80 193 CURVE SMOOTH",
"80 53 OFFCURVE",
"153 -9 OFFCURVE",
"295 -9 CURVE SMOOTH"
);
},
{
closed = 1;
nodes = (
"210 51 OFFCURVE",
"174 84 OFFCURVE",
"174 179 CURVE SMOOTH",
"174 266 OFFCURVE",
"214 488 OFFCURVE",
"269 543 CURVE",
"289 548 OFFCURVE",
"315 552 OFFCURVE",
"343 552 CURVE SMOOTH",
"402 552 OFFCURVE",
"452 529 OFFCURVE",
"452 427 CURVE SMOOTH",
"452 340 OFFCURVE",
"419 177 OFFCURVE",
"387 94 CURVE",
"381 86 OFFCURVE",
"312 51 OFFCURVE",
"297 51 CURVE SMOOTH"
);
}
);
};
layerId = "D9712079-C16A-42CB-8BA4-BD9ECFFACF10";
paths = (
{
closed = 1;
nodes = (
"289 -9 OFFCURVE",
"403 62 OFFCURVE",
"444 108 CURVE",
"478 192 OFFCURVE",
"512 315 OFFCURVE",
"512 409 CURVE SMOOTH",
"512 550 OFFCURVE",
"439 611 OFFCURVE",
"297 611 CURVE SMOOTH",
"272 611 OFFCURVE",
"151 538 OFFCURVE",
"116 495 CURVE",
"79 435 OFFCURVE",
"45 299 OFFCURVE",
"45 203 CURVE SMOOTH",
"45 56 OFFCURVE",
"111 -9 OFFCURVE",
"260 -9 CURVE SMOOTH"
);
},
{
closed = 1;
nodes = (
"165 51 OFFCURVE",
"139 91 OFFCURVE",
"139 196 CURVE SMOOTH",
"139 339 OFFCURVE",
"186 514 OFFCURVE",
"243 537 CURVE SMOOTH",
"263 545 OFFCURVE",
"281 548 OFFCURVE",
"308 548 CURVE SMOOTH",
"379 548 OFFCURVE",
"417 515 OFFCURVE",
"417 427 CURVE SMOOTH",
"417 340 OFFCURVE",
"384 177 OFFCURVE",
"352 94 CURVE",
"346 86 OFFCURVE",
"277 51 OFFCURVE",
"262 51 CURVE SMOOTH"
);
}
);
width = 526;
},
{
anchors = (
{
name = bottom;
position = "{214, 0}";
},
{
name = center;
position = "{269, 307}";
},
{
name = ogonek;
position = "{264, 0}";
},
{
name = top;
position = "{312, 591}";
},
{
name = topright;
position = "{365, 591}";
}
);
background = {
paths = (
{
closed = 1;
nodes = (
"106 175 OFFCURVE",
"112 181 OFFCURVE",
"112 189 CURVE SMOOTH",
"112 197 OFFCURVE",
"106 203 OFFCURVE",
"98 203 CURVE SMOOTH",
"90 203 OFFCURVE",
"84 197 OFFCURVE",
"84 189 CURVE SMOOTH",
"84 181 OFFCURVE",
"90 175 OFFCURVE",
"98 175 CURVE SMOOTH"
);
},
{
closed = 1;
nodes = (
"255 542 OFFCURVE",
"259 546 OFFCURVE",
"259 552 CURVE SMOOTH",
"259 558 OFFCURVE",
"255 562 OFFCURVE",
"249 562 CURVE SMOOTH",
"243 562 OFFCURVE",
"239 558 OFFCURVE",
"239 552 CURVE SMOOTH",
"239 546 OFFCURVE",
"243 542 OFFCURVE",
"249 542 CURVE SMOOTH"
);
},
{
closed = 1;
nodes = (
"315 8 OFFCURVE",
"319 12 OFFCURVE",
"319 18 CURVE SMOOTH",
"319 24 OFFCURVE",
"315 28 OFFCURVE",
"309 28 CURVE SMOOTH",
"303 28 OFFCURVE",
"299 24 OFFCURVE",
"299 18 CURVE SMOOTH",
"299 12 OFFCURVE",
"303 8 OFFCURVE",
"309 8 CURVE SMOOTH"
);
},
{
closed = 1;
nodes = (
"388 57 OFFCURVE",
"392 61 OFFCURVE",
"392 67 CURVE SMOOTH",
"392 73 OFFCURVE",
"388 77 OFFCURVE",
"382 77 CURVE SMOOTH",
"376 77 OFFCURVE",
"372 73 OFFCURVE",
"372 67 CURVE SMOOTH",
"372 61 OFFCURVE",
"376 57 OFFCURVE",
"382 57 CURVE SMOOTH"
);
},
{
closed = 1;
nodes = (
"297 -9 OFFCURVE",
"392 53 OFFCURVE",
"433 101 CURVE",
"483 184 OFFCURVE",
"510 304 OFFCURVE",
"510 388 CURVE SMOOTH",
"510 519 OFFCURVE",
"459 601 OFFCURVE",
"327 601 CURVE SMOOTH",
"296 601 OFFCURVE",
"213 547 OFFCURVE",
"164 491 CURVE",
"118 426 OFFCURVE",
"84 319 OFFCURVE",
"84 204 CURVE SMOOTH",
"84 73 OFFCURVE",
"135 -9 OFFCURVE",
"267 -9 CURVE SMOOTH"
);
},
{
closed = 1;
nodes = (
"153 20 OFFCURVE",
"116 100 OFFCURVE",
"116 205 CURVE SMOOTH",
"116 467 OFFCURVE",
"239 530 OFFCURVE",
"279 555 CURVE",
"299 565 OFFCURVE",
"312 572 OFFCURVE",
"335 572 CURVE SMOOTH",
"441 572 OFFCURVE",
"478 492 OFFCURVE",
"478 387 CURVE SMOOTH",
"478 302 OFFCURVE",
"456 190 OFFCURVE",
"412 114 CURVE",
"386 82 OFFCURVE",
"320 36 OFFCURVE",
"293 26 CURVE",
"281 21 OFFCURVE",
"269 20 OFFCURVE",
"259 20 CURVE SMOOTH"
);
}
);
};
layerId = "16B79A64-180D-495F-8650-CA27198DF3EF";
paths = (
{
closed = 1;
nodes = (
"265 -9 OFFCURVE",
"360 53 OFFCURVE",
"401 101 CURVE",
"451 184 OFFCURVE",
"478 304 OFFCURVE",
"478 388 CURVE SMOOTH",
"478 519 OFFCURVE",
"427 601 OFFCURVE",
"295 601 CURVE SMOOTH",
"264 601 OFFCURVE",
"181 547 OFFCURVE",
"132 491 CURVE",
"86 426 OFFCURVE",
"52 319 OFFCURVE",
"52 204 CURVE SMOOTH",
"52 73 OFFCURVE",
"103 -9 OFFCURVE",
"235 -9 CURVE SMOOTH"
);
},
{
closed = 1;
nodes = (
"129 20 OFFCURVE",
"84 86 OFFCURVE",
"84 205 CURVE SMOOTH",
"84 444 OFFCURVE",
"181 511 OFFCURVE",
"223 540 CURVE SMOOTH",
"246 556 OFFCURVE",
"274 572 OFFCURVE",
"301 572 CURVE SMOOTH",
"409 572 OFFCURVE",
"446 492 OFFCURVE",
"446 387 CURVE SMOOTH",
"446 302 OFFCURVE",
"424 190 OFFCURVE",
"380 114 CURVE",
"352 83 OFFCURVE",
"277 20 OFFCURVE",
"232 20 CURVE SMOOTH"
);
}
);
width = 496;
},
{
anchors = (
{
name = bottom;
position = "{261, 0}";
},
{
name = center;
position = "{314, 307}";
},
{
name = ogonek;
position = "{326, 0}";
},
{
name = top;
position = "{360, 613}";
},
{
name = topright;
position = "{462, 613}";
}
);
layerId = "E259E77F-022A-45EF-A0F1-1168268390B3";
paths = (
{
closed = 1;
nodes = (
"311 -13 OFFCURVE",
"455 48 OFFCURVE",
"531 104 CURVE",
"565 188 OFFCURVE",
"602 329 OFFCURVE",
"602 423 CURVE SMOOTH",
"602 574 OFFCURVE",
"506 625 OFFCURVE",
"354 625 CURVE SMOOTH",
"319 625 OFFCURVE",
"171 557 OFFCURVE",
"97 508 CURVE",
"63 427 OFFCURVE",
"25 280 OFFCURVE",
"25 189 CURVE SMOOTH",
"25 39 OFFCURVE",
"122 -13 OFFCURVE",
"274 -13 CURVE SMOOTH"
);
},
{
closed = 1;
nodes = (
"229 79 OFFCURVE",
"216 112 OFFCURVE",
"216 189 CURVE SMOOTH",
"216 263 OFFCURVE",
"258 502 OFFCURVE",
"300 520 CURVE SMOOTH",
"316 527 OFFCURVE",
"331 529 OFFCURVE",
"346 529 CURVE SMOOTH",
"394 529 OFFCURVE",
"411 494 OFFCURVE",
"411 417 CURVE SMOOTH",
"411 341 OFFCURVE",
"382 172 OFFCURVE",
"353 102 CURVE",
"338 93 OFFCURVE",
"304 79 OFFCURVE",
"299 79 CURVE SMOOTH"
);
}
);
width = 597;
}
);
leftKerningGroup = O;
rightKerningGroup = O;
unicode = 004F;
},
{
color = 4;
glyphname = OE;
layers = (
{
color = -1;
layerId = "D9712079-C16A-42CB-8BA4-BD9ECFFACF10";
paths = (
{
closed = 1;
nodes = (
"382 0 LINE",
"374 77 LINE",
"327 67 OFFCURVE",
"287 61 OFFCURVE",
"253 61 CURVE SMOOTH",
"177 61 OFFCURVE",
"138 93 OFFCURVE",
"138 188 CURVE SMOOTH",
"138 339 OFFCURVE",
"182 505 OFFCURVE",
"242 534 CURVE SMOOTH",
"258 542 OFFCURVE",
"282 545 OFFCURVE",
"309 545 CURVE SMOOTH",
"354 545 OFFCURVE",
"408 536 OFFCURVE",
"451 524 CURVE",
"508 603 LINE",
"298 603 LINE SMOOTH",
"268 603 OFFCURVE",
"155 533 OFFCURVE",
"115 487 CURVE",
"78 427 OFFCURVE",
"44 297 OFFCURVE",
"44 202 CURVE SMOOTH",
"44 62 OFFCURVE",
"117 0 OFFCURVE",
"259 0 CURVE SMOOTH"
);
},
{
closed = 1;
nodes = (
"424 0 LINE",
"529 603 LINE",
"438 603 LINE",
"333 0 LINE"
);
},
{
closed = 1;
nodes = (
"738 560 LINE",
"746 603 LINE",
"438 603 LINE",
"460 534 LINE"
);
},
{
closed = 1;
nodes = (
"714 428 LINE",
"746 603 LINE",
"669 603 LINE",
"664 428 LINE"
);
},
{
closed = 1;
nodes = (
"614 290 LINE",
"622 337 LINE",
"464 343 LINE",
"454 284 LINE"
);
},
{
closed = 1;
nodes = (
"669 0 LINE",
"669 44 LINE",
"376 69 LINE",
"333 0 LINE"
);
},
{
closed = 1;
nodes = (
"669 0 LINE",
"700 179 LINE",
"650 180 LINE",
"591 0 LINE"
);
}
);
width = 728;
},
{
color = -1;
layerId = "16B79A64-180D-495F-8650-CA27198DF3EF";
paths = (
{
closed = 1;
nodes = (
"374 0 LINE",
"365 33 LINE",
"325 27 OFFCURVE",
"291 24 OFFCURVE",
"260 24 CURVE SMOOTH",
"128 24 OFFCURVE",
"84 73 OFFCURVE",
"84 218 CURVE SMOOTH",
"84 433 OFFCURVE",
"182 501 OFFCURVE",
"224 530 CURVE SMOOTH",
"247 546 OFFCURVE",
"278 564 OFFCURVE",
"303 564 CURVE SMOOTH",
"364 564 OFFCURVE",
"404 562 OFFCURVE",
"449 557 CURVE",
"465 591 LINE",
"296 591 LINE SMOOTH",
"265 591 OFFCURVE",
"182 538 OFFCURVE",
"133 482 CURVE",
"85 422 OFFCURVE",
"53 322 OFFCURVE",
"53 204 CURVE SMOOTH",
"53 73 OFFCURVE",
"104 0 OFFCURVE",
"236 0 CURVE SMOOTH"
);
},
{
closed = 1;
nodes = (
"370 0 LINE",
"473 591 LINE",
"445 591 LINE",
"342 0 LINE"
);
},
{
closed = 1;
nodes = (
"684 570 LINE",
"687 591 LINE",
"445 591 LINE",
"452 563 LINE"
);
},
{
closed = 1;
nodes = (
"687 465 LINE",
"708 591 LINE",
"676 591 LINE",
"668 465 LINE"
);
},
{
closed = 1;
nodes = (
"578 298 LINE",
"581 317 LINE",
"421 321 LINE",
"416 294 LINE"
);
},
{
closed = 1;
nodes = (
"611 0 LINE",
"614 19 LINE",
"365 28 LINE",
"342 0 LINE"
);
},
{
closed = 1;
nodes = (
"620 0 LINE",
"643 136 LINE",
"624 137 LINE",
"588 0 LINE"
);
}
);
width = 694;
},
{
color = -1;
layerId = "E259E77F-022A-45EF-A0F1-1168268390B3";
paths = (
{
closed = 1;
nodes = (
"489 0 LINE",
"465 112 LINE",
"389 95 OFFCURVE",
"338 87 OFFCURVE",
"295 87 CURVE SMOOTH",
"239 87 OFFCURVE",
"216 109 OFFCURVE",
"216 189 CURVE SMOOTH",
"216 263 OFFCURVE",
"255 482 OFFCURVE",
"300 508 CURVE SMOOTH",
"311 515 OFFCURVE",
"338 518 OFFCURVE",
"368 518 CURVE SMOOTH",
"399 518 OFFCURVE",
"433 515 OFFCURVE",
"460 507 CURVE",
"532 613 LINE",
"354 613 LINE SMOOTH",
"319 613 OFFCURVE",
"171 545 OFFCURVE",
"97 496 CURVE",
"63 415 OFFCURVE",
"25 280 OFFCURVE",
"25 202 CURVE SMOOTH",
"25 52 OFFCURVE",
"122 0 OFFCURVE",
"274 0 CURVE SMOOTH"
);
},
{
closed = 1;
nodes = (
"529 0 LINE",
"634 613 LINE",
"452 613 LINE",
"347 0 LINE"
);
},
{
closed = 1;
nodes = (
"805 532 LINE",
"819 613 LINE",
"452 613 LINE",
"527 506 LINE"
);
},
{
closed = 1;
nodes = (
"845 384 LINE",
"882 613 LINE",
"765 613 LINE",
"756 384 LINE"
);
},
{
closed = 1;
nodes = (
"704 269 LINE",
"720 362 LINE",
"560 368 LINE",
"544 263 LINE"
);
},
{
closed = 1;
nodes = (
"740 0 LINE",
"754 82 LINE",
"471 108 LINE",
"347 0 LINE"
);
},
{
closed = 1;
nodes = (
"784 0 LINE",
"819 235 LINE",
"730 235 LINE",
"666 0 LINE"
);
}
);
width = 852;
}
);
leftKerningGroup = O;
leftMetricsKey = O;
rightKerningGroup = E;
rightMetricsKey = E;
unicode = 0152;
},
{
color = 4;
glyphname = P;
layers = (
{
background = {
paths = (
{
closed = 1;
nodes = (
"185 215 LINE",
"300 215 LINE SMOOTH",
"395 215 OFFCURVE",
"492 270 OFFCURVE",
"518 429 CURVE",
"540 557 OFFCURVE",
"489 603 OFFCURVE",
"394 603 CURVE SMOOTH",
"142 603 LINE",
"135 565 LINE",
"219 536 LINE",
"234 538 OFFCURVE",
"372 552 OFFCURVE",
"391 552 CURVE SMOOTH",
"427 552 OFFCURVE",
"436 494 OFFCURVE",
"419 396 CURVE SMOOTH",
"398 277 OFFCURVE",
"371 272 OFFCURVE",
"321 272 CURVE SMOOTH",
"194 272 LINE"
);
},
{
closed = 1;
nodes = (
"293 603 LINE",
"202 603 LINE",
"97 0 LINE",
"188 0 LINE"
);
},
{
closed = 1;
nodes = (
"45 38 LINE",
"39 0 LINE",
"272 0 LINE",
"280 46 LINE",
"158 74 LINE"
);
}
);
};
color = -1;
layerId = "D9712079-C16A-42CB-8BA4-BD9ECFFACF10";
paths = (
{
closed = 1;
nodes = (
"263 215 LINE SMOOTH",
"407 215 OFFCURVE",
"486 340 OFFCURVE",
"486 483 CURVE SMOOTH",
"486 570 OFFCURVE",
"437 603 OFFCURVE",
"357 603 CURVE SMOOTH",
"105 603 LINE",
"98 565 LINE",
"182 536 LINE",
"197 538 OFFCURVE",
"335 552 OFFCURVE",
"354 552 CURVE SMOOTH",
"378 552 OFFCURVE",
"390 526 OFFCURVE",
"390 478 CURVE SMOOTH",
"390 427 OFFCURVE",
"383 272 OFFCURVE",
"294 272 CURVE SMOOTH",
"157 272 LINE",
"148 215 LINE"
);
},
{
closed = 1;
nodes = (
"235 0 LINE",
"243 46 LINE",
"121 74 LINE",
"8 38 LINE",
"2 0 LINE"
);
},
{
closed = 1;
nodes = (
"151 0 LINE",
"256 603 LINE",
"165 603 LINE",
"60 0 LINE"
);
}
);
width = 476;
},
{
color = -1;
layerId = "16B79A64-180D-495F-8650-CA27198DF3EF";
paths = (
{
closed = 1;
nodes = (
"228 241 LINE SMOOTH",
"360 241 OFFCURVE",
"426 345 OFFCURVE",
"426 477 CURVE SMOOTH",
"426 558 OFFCURVE",
"387 591 OFFCURVE",
"306 591 CURVE SMOOTH",
"112 591 LINE",
"109 576 LINE",
"188 563 LINE",
"242 565 OFFCURVE",
"305 567 OFFCURVE",
"324 567 CURVE SMOOTH",
"380 567 OFFCURVE",
"396 522 OFFCURVE",
"396 466 CURVE SMOOTH",
"396 360 OFFCURVE",
"340 267 OFFCURVE",
"250 267 CURVE SMOOTH",
"129 267 LINE",
"124 241 LINE"
);
},
{
closed = 1;
nodes = (
"184 0 LINE",
"187 18 LINE",
"93 28 LINE",
"15 15 LINE",
"12 0 LINE"
);
},
{
closed = 1;
nodes = (
"98 0 LINE",
"201 591 LINE",
"173 591 LINE",
"70 0 LINE"
);
}
);
width = 421;
},
{
background = {
paths = (
{
closed = 1;
nodes = (
"212 203 LINE",
"391 203 LINE SMOOTH",
"535 203 OFFCURVE",
"622 342 OFFCURVE",
"622 485 CURVE SMOOTH",
"622 572 OFFCURVE",
"553 613 OFFCURVE",
"473 613 CURVE SMOOTH",
"114 613 LINE",
"103 541 LINE",
"263 505 LINE",
"308 517 OFFCURVE",
"381 538 OFFCURVE",
"394 538 CURVE SMOOTH",
"420 538 OFFCURVE",
"438 524 OFFCURVE",
"438 474 CURVE SMOOTH",
"438 408 OFFCURVE",
"435 299 OFFCURVE",
"346 299 CURVE SMOOTH",
"228 299 LINE"
);
},
{
closed = 1;
nodes = (
"357 613 LINE",
"175 613 LINE",
"70 0 LINE",
"252 0 LINE"
);
},
{
closed = 1;
nodes = (
"23 72 LINE",
"12 0 LINE",
"351 0 LINE",
"364 80 LINE",
"194 108 LINE"
);
}
);
};
color = -1;
layerId = "E259E77F-022A-45EF-A0F1-1168268390B3";
paths = (
{
closed = 1;
nodes = (
"344 203 LINE SMOOTH",
"488 203 OFFCURVE",
"575 342 OFFCURVE",
"575 485 CURVE SMOOTH",
"575 572 OFFCURVE",
"506 613 OFFCURVE",
"426 613 CURVE SMOOTH",
"77 613 LINE",
"66 541 LINE",
"226 505 LINE",
"271 517 OFFCURVE",
"339 538 OFFCURVE",
"352 538 CURVE SMOOTH",
"378 538 OFFCURVE",
"391 524 OFFCURVE",
"391 474 CURVE SMOOTH",
"391 408 OFFCURVE",
"388 299 OFFCURVE",
"299 299 CURVE SMOOTH",
"191 299 LINE",
"175 203 LINE"
);
},
{
closed = 1;
nodes = (
"314 0 LINE",
"327 80 LINE",
"157 108 LINE",
"-14 72 LINE",
"-25 0 LINE"
);
},
{
closed = 1;
nodes = (
"215 0 LINE",
"320 613 LINE",
"138 613 LINE",
"33 0 LINE"
);
}
);
width = 541;
}
);
leftKerningGroup = H;
leftMetricsKey = H;
rightKerningGroup = P;
unicode = 0050;
},
{
color = 4;
glyphname = Thorn;
layers = (
{
color = -1;
layerId = "D9712079-C16A-42CB-8BA4-BD9ECFFACF10";
paths = (
{
closed = 1;
nodes = (
"245 136 LINE SMOOTH",
"376 136 OFFCURVE",
"465 245 OFFCURVE",
"465 373 CURVE SMOOTH",
"465 452 OFFCURVE",
"415 490 OFFCURVE",
"333 490 CURVE SMOOTH",
"196 490 LINE",
"185 427 LINE",
"200 429 OFFCURVE",
"312 439 OFFCURVE",
"331 439 CURVE SMOOTH",
"356 439 OFFCURVE",
"368 410 OFFCURVE",
"368 366 CURVE SMOOTH",
"368 270 OFFCURVE",
"350 193 OFFCURVE",
"267 193 CURVE SMOOTH",
"146 193 LINE",
"135 136 LINE"
);
},
{
closed = 1;
nodes = (
"236 0 LINE",
"244 46 LINE",
"122 74 LINE",
"9 38 LINE",
"3 0 LINE"
);
},
{
closed = 1;
nodes = (
"152 0 LINE",
"257 603 LINE",
"166 603 LINE",
"61 0 LINE"
);
},
{
closed = 1;
nodes = (
"310 557 LINE",
"318 603 LINE",
"105 603 LINE",
"99 565 LINE",
"203 529 LINE"
);
}
);
width = 452;
},
{
color = -1;
layerId = "16B79A64-180D-495F-8650-CA27198DF3EF";
paths = (
{
closed = 1;
nodes = (
"217 146 LINE SMOOTH",
"346 146 OFFCURVE",
"412 241 OFFCURVE",
"412 364 CURVE SMOOTH",
"412 443 OFFCURVE",
"372 466 OFFCURVE",
"293 466 CURVE SMOOTH",
"168 466 LINE",
"164 438 LINE",
"218 440 OFFCURVE",
"289 442 OFFCURVE",
"308 442 CURVE SMOOTH",
"364 442 OFFCURVE",
"382 407 OFFCURVE",
"382 351 CURVE SMOOTH",
"382 261 OFFCURVE",
"330 172 OFFCURVE",
"240 172 CURVE SMOOTH",
"115 172 LINE",
"110 146 LINE"
);
},
{
closed = 1;
nodes = (
"164 0 LINE",
"167 18 LINE",
"93 28 LINE",
"15 15 LINE",
"12 0 LINE"
);
},
{
closed = 1;
nodes = (
"98 0 LINE",
"201 591 LINE",
"173 591 LINE",
"70 0 LINE"
);
},
{
closed = 1;
nodes = (
"261 573 LINE",
"264 591 LINE",
"112 591 LINE",
"109 576 LINE",
"187 563 LINE"
);
}
);
width = 417;
},
{
color = -1;
layerId = "E259E77F-022A-45EF-A0F1-1168268390B3";
paths = (
{
closed = 1;
nodes = (
"324 138 LINE SMOOTH",
"468 138 OFFCURVE",
"555 237 OFFCURVE",
"555 380 CURVE SMOOTH",
"555 467 OFFCURVE",
"491 498 OFFCURVE",
"411 498 CURVE SMOOTH",
"256 498 LINE",
"226 402 LINE",
"261 412 OFFCURVE",
"309 423 OFFCURVE",
"326 423 CURVE SMOOTH",
"354 423 OFFCURVE",
"371 414 OFFCURVE",
"371 377 CURVE SMOOTH",
"371 309 OFFCURVE",
"366 234 OFFCURVE",
"279 234 CURVE SMOOTH",
"191 234 LINE",
"175 138 LINE"
);
},
{
closed = 1;
nodes = (
"304 0 LINE",
"317 80 LINE",
"157 108 LINE",
"-14 72 LINE",
"-25 0 LINE"
);
},
{
closed = 1;
nodes = (
"215 0 LINE",
"320 613 LINE",
"138 613 LINE",
"33 0 LINE"
);
},
{
closed = 1;
nodes = (
"363 541 LINE",
"376 613 LINE",
"77 613 LINE",
"66 541 LINE",
"226 505 LINE"
);
}
);
width = 534;
}
);
leftKerningGroup = H;
leftMetricsKey = H;
rightKerningGroup = Thorn;
unicode = 00DE;
},
{
color = 4;
glyphname = Q;
layers = (
{
color = -1;
layerId = "D9712079-C16A-42CB-8BA4-BD9ECFFACF10";
paths = (
{
closed = 1;
nodes = (
"289 -9 OFFCURVE",
"403 62 OFFCURVE",
"444 108 CURVE",
"478 192 OFFCURVE",
"512 315 OFFCURVE",
"512 409 CURVE SMOOTH",
"512 550 OFFCURVE",
"439 611 OFFCURVE",
"297 611 CURVE SMOOTH",
"272 611 OFFCURVE",
"151 538 OFFCURVE",
"116 495 CURVE",
"79 435 OFFCURVE",
"45 299 OFFCURVE",
"45 203 CURVE SMOOTH",
"45 56 OFFCURVE",
"111 -9 OFFCURVE",
"260 -9 CURVE SMOOTH"
);
},
{
closed = 1;
nodes = (
"409 -118 LINE",
"441 -62 LINE",
"250 12 LINE",
"176 12 LINE",
"364 -118 LINE"
);
},
{
closed = 1;
nodes = (
"165 51 OFFCURVE",
"139 91 OFFCURVE",
"139 196 CURVE SMOOTH",
"139 339 OFFCURVE",
"186 514 OFFCURVE",
"243 537 CURVE SMOOTH",
"263 545 OFFCURVE",
"281 548 OFFCURVE",
"308 548 CURVE SMOOTH",
"379 548 OFFCURVE",
"417 515 OFFCURVE",
"417 427 CURVE SMOOTH",
"417 340 OFFCURVE",
"384 177 OFFCURVE",
"352 94 CURVE",
"346 86 OFFCURVE",
"277 51 OFFCURVE",
"262 51 CURVE SMOOTH"
);
}
);
width = 526;
},
{
color = -1;
layerId = "16B79A64-180D-495F-8650-CA27198DF3EF";
paths = (
{
closed = 1;
nodes = (
"265 -9 OFFCURVE",
"360 53 OFFCURVE",
"401 101 CURVE",
"451 184 OFFCURVE",
"478 304 OFFCURVE",
"478 388 CURVE SMOOTH",
"478 519 OFFCURVE",
"427 601 OFFCURVE",
"295 601 CURVE SMOOTH",
"264 601 OFFCURVE",
"181 547 OFFCURVE",
"132 491 CURVE",
"86 426 OFFCURVE",
"52 319 OFFCURVE",
"52 204 CURVE SMOOTH",
"52 73 OFFCURVE",
"103 -9 OFFCURVE",
"235 -9 CURVE SMOOTH"
);
},
{
closed = 1;
nodes = (
"390 -102 LINE",
"404 -80 LINE",
"229 5 LINE",
"197 5 LINE",
"376 -102 LINE"
);
},
{
closed = 1;
nodes = (
"129 20 OFFCURVE",
"84 86 OFFCURVE",
"84 205 CURVE SMOOTH",
"84 444 OFFCURVE",
"181 511 OFFCURVE",
"223 540 CURVE SMOOTH",
"246 556 OFFCURVE",
"274 572 OFFCURVE",
"301 572 CURVE SMOOTH",
"409 572 OFFCURVE",
"446 492 OFFCURVE",
"446 387 CURVE SMOOTH",
"446 302 OFFCURVE",
"424 190 OFFCURVE",
"380 114 CURVE",
"352 83 OFFCURVE",
"277 20 OFFCURVE",
"232 20 CURVE SMOOTH"
);
}
);
width = 496;
},
{
background = {
anchors = (
{
name = ogonek;
position = "{308, 0}";
},
{
name = top;
position = "{392, 650}";
}
);
paths = (
{
closed = 1;
nodes = (
"344 -13 OFFCURVE",
"488 48 OFFCURVE",
"564 104 CURVE",
"598 188 OFFCURVE",
"635 329 OFFCURVE",
"635 423 CURVE SMOOTH",
"635 574 OFFCURVE",
"539 625 OFFCURVE",
"387 625 CURVE SMOOTH",
"352 625 OFFCURVE",
"204 557 OFFCURVE",
"130 508 CURVE",
"96 427 OFFCURVE",
"58 280 OFFCURVE",
"58 189 CURVE SMOOTH",
"58 39 OFFCURVE",
"155 -13 OFFCURVE",
"307 -13 CURVE SMOOTH"
);
},
{
closed = 1;
nodes = (
"262 79 OFFCURVE",
"249 112 OFFCURVE",
"249 189 CURVE SMOOTH",
"249 263 OFFCURVE",
"291 502 OFFCURVE",
"333 520 CURVE SMOOTH",
"349 527 OFFCURVE",
"364 529 OFFCURVE",
"379 529 CURVE SMOOTH",
"427 529 OFFCURVE",
"444 494 OFFCURVE",
"444 417 CURVE SMOOTH",
"444 341 OFFCURVE",
"415 172 OFFCURVE",
"386 102 CURVE",
"371 93 OFFCURVE",
"337 79 OFFCURVE",
"332 79 CURVE SMOOTH"
);
}
);
};
color = -1;
layerId = "E259E77F-022A-45EF-A0F1-1168268390B3";
paths = (
{
closed = 1;
nodes = (
"311 -13 OFFCURVE",
"455 48 OFFCURVE",
"531 104 CURVE",
"565 188 OFFCURVE",
"602 329 OFFCURVE",
"602 423 CURVE SMOOTH",
"602 574 OFFCURVE",
"506 625 OFFCURVE",
"354 625 CURVE SMOOTH",
"319 625 OFFCURVE",
"171 557 OFFCURVE",
"97 508 CURVE",
"63 427 OFFCURVE",
"25 280 OFFCURVE",
"25 189 CURVE SMOOTH",
"25 39 OFFCURVE",
"122 -13 OFFCURVE",
"274 -13 CURVE SMOOTH"
);
},
{
closed = 1;
nodes = (
"463 -167 LINE",
"532 -40 LINE",
"311 20 LINE",
"151 20 LINE",
"394 -167 LINE"
);
},
{
closed = 1;
nodes = (
"229 79 OFFCURVE",
"216 112 OFFCURVE",
"216 189 CURVE SMOOTH",
"216 263 OFFCURVE",
"258 502 OFFCURVE",
"300 520 CURVE SMOOTH",
"316 527 OFFCURVE",
"331 529 OFFCURVE",
"346 529 CURVE SMOOTH",
"394 529 OFFCURVE",
"411 494 OFFCURVE",
"411 417 CURVE SMOOTH",
"411 341 OFFCURVE",
"382 172 OFFCURVE",
"353 102 CURVE",
"338 93 OFFCURVE",
"304 79 OFFCURVE",
"299 79 CURVE SMOOTH"
);
}
);
width = 597;
}
);
leftKerningGroup = O;
rightKerningGroup = O;
unicode = 0051;
},
{
color = 4;
glyphname = R;
layers = (
{
anchors = (
{
name = bottom;
position = "{259, 0}";
},
{
name = top;
position = "{307, 603}";
}
);
color = -1;
layerId = "D9712079-C16A-42CB-8BA4-BD9ECFFACF10";
paths = (
{
closed = 1;
nodes = (
"261 260 LINE SMOOTH",
"391 260 OFFCURVE",
"480 375 OFFCURVE",
"480 492 CURVE SMOOTH",
"480 575 OFFCURVE",
"429 603 OFFCURVE",
"347 603 CURVE SMOOTH",
"105 603 LINE",
"98 565 LINE",
"184 535 LINE",
"197 537 OFFCURVE",
"328 552 OFFCURVE",
"344 552 CURVE SMOOTH",
"370 552 OFFCURVE",
"383 533 OFFCURVE",
"383 489 CURVE SMOOTH",
"383 412 OFFCURVE",
"368 317 OFFCURVE",
"288 317 CURVE SMOOTH",
"175 317 LINE",
"165 260 LINE"
);
},
{
closed = 1;
nodes = (
"215 0 LINE",
"223 46 LINE",
"121 74 LINE",
"8 38 LINE",
"2 0 LINE"
);
},
{
closed = 1;
nodes = (
"151 0 LINE",
"256 603 LINE",
"165 603 LINE",
"60 0 LINE"
);
},
{
closed = 1;
nodes = (
"461 0 LINE",
"468 42 LINE",
"419 57 LINE",
"399 100 OFFCURVE",
"358 190 OFFCURVE",
"329 262 CURVE",
"332 284 LINE",
"246 284 LINE",
"335 0 LINE"
);
}
);
width = 480;
},
{
anchors = (
{
name = bottom;
position = "{229, 0}";
},
{
name = top;
position = "{281, 591}";
}
);
color = -1;
hints = (
{
place = "{1243.977, 0}";
type = Stem;
}
);
layerId = "16B79A64-180D-495F-8650-CA27198DF3EF";
paths = (
{
closed = 1;
nodes = (
"253 276 LINE SMOOTH",
"354 276 OFFCURVE",
"421 382 OFFCURVE",
"421 483 CURVE SMOOTH",
"421 564 OFFCURVE",
"384 591 OFFCURVE",
"303 591 CURVE SMOOTH",
"112 591 LINE",
"109 576 LINE",
"188 563 LINE",
"242 565 OFFCURVE",
"298 566 OFFCURVE",
"317 566 CURVE SMOOTH",
"373 566 OFFCURVE",
"391 529 OFFCURVE",
"391 473 CURVE SMOOTH",
"391 391 OFFCURVE",
"342 302 OFFCURVE",
"258 302 CURVE SMOOTH",
"133 302 LINE",
"129 276 LINE"
);
},
{
closed = 1;
nodes = (
"164 0 LINE",
"167 18 LINE",
"93 28 LINE",
"15 15 LINE",
"12 0 LINE"
);
},
{
closed = 1;
nodes = (
"98 0 LINE",
"201 591 LINE",
"173 591 LINE",
"70 0 LINE"
);
},
{
closed = 1;
nodes = (
"432 0 LINE",
"434 18 LINE",
"372 27 LINE",
"352 70 OFFCURVE",
"304 199 OFFCURVE",
"275 271 CURVE",
"278 284 LINE",
"245 284 LINE",
"344 0 LINE"
);
}
);
width = 444;
},
{
anchors = (
{
name = bottom;
position = "{293, 0}";
},
{
name = top;
position = "{352, 613}";
}
);
color = -1;
layerId = "E259E77F-022A-45EF-A0F1-1168268390B3";
paths = (
{
closed = 1;
nodes = (
"355 240 LINE SMOOTH",
"491 240 OFFCURVE",
"578 370 OFFCURVE",
"578 497 CURVE SMOOTH",
"578 580 OFFCURVE",
"517 613 OFFCURVE",
"435 613 CURVE SMOOTH",
"77 613 LINE",
"66 541 LINE",
"226 505 LINE",
"274 517 OFFCURVE",
"339 538 OFFCURVE",
"355 538 CURVE SMOOTH",
"384 538 OFFCURVE",
"394 519 OFFCURVE",
"394 475 CURVE SMOOTH",
"394 403 OFFCURVE",
"378 337 OFFCURVE",
"302 337 CURVE SMOOTH",
"207 337 LINE",
"190 240 LINE"
);
},
{
closed = 1;
nodes = (
"274 0 LINE",
"287 80 LINE",
"157 108 LINE",
"-14 72 LINE",
"-25 0 LINE"
);
},
{
closed = 1;
nodes = (
"215 0 LINE",
"320 613 LINE",
"138 613 LINE",
"33 0 LINE"
);
},
{
closed = 1;
nodes = (
"566 0 LINE",
"576 72 LINE",
"519 100 LINE",
"498 149 OFFCURVE",
"481 190 OFFCURVE",
"458 259 CURVE",
"461 281 LINE",
"288 281 LINE",
"345 0 LINE"
);
}
);
width = 567;
}
);
leftKerningGroup = H;
leftMetricsKey = H;
rightKerningGroup = R;
unicode = 0052;
},
{
color = 4;
glyphname = S;
layers = (
{
anchors = (
{
name = bottom;
position = "{178, 0}";
},
{
name = top;
position = "{298, 603}";
}
);
background = {
paths = (
{
closed = 1;
nodes = (
"131 1 LINE",
"142 184 LINE",
"90 184 LINE",
"49 1 LINE"
);
},
{
closed = 1;
nodes = (
"388 595 LINE",
"379 422 LINE",
"431 422 LINE",
"471 595 LINE"
);
},
{
closed = 1;
nodes = (
"471 595 LINE",
"415 601 OFFCURVE",
"331 611 OFFCURVE",
"312 611 CURVE SMOOTH",
"278 611 OFFCURVE",
"163 533 OFFCURVE",
"133 488 CURVE",
"126 469 OFFCURVE",
"122 452 OFFCURVE",
"119 436 CURVE SMOOTH",
"109 376 OFFCURVE",
"131 325 OFFCURVE",
"216 273 CURVE SMOOTH",
"299 223 OFFCURVE",
"339 190 OFFCURVE",
"330 137 CURVE SMOOTH",
"324 101 OFFCURVE",
"286 55 OFFCURVE",
"276 55 CURVE SMOOTH",
"236 55 OFFCURVE",
"184 65 OFFCURVE",
"135 72 CURVE",
"49 1 LINE",
"106 -4 OFFCURVE",
"185 -9 OFFCURVE",
"233 -9 CURVE SMOOTH",
"271 -9 OFFCURVE",
"377 62 OFFCURVE",
"412 114 CURVE",
"417 126 OFFCURVE",
"422 146 OFFCURVE",
"425 163 CURVE SMOOTH",
"444 267 OFFCURVE",
"344 315 OFFCURVE",
"281 358 CURVE SMOOTH",
"228 395 OFFCURVE",
"202 418 OFFCURVE",
"210 469 CURVE SMOOTH",
"216 502 OFFCURVE",
"238 547 OFFCURVE",
"253 547 CURVE SMOOTH",
"283 547 OFFCURVE",
"349 531 OFFCURVE",
"385 524 CURVE"
);
}
);
};
color = -1;
layerId = "D9712079-C16A-42CB-8BA4-BD9ECFFACF10";
paths = (
{
closed = 1;
nodes = (
"232 -9 OFFCURVE",
"338 62 OFFCURVE",
"373 114 CURVE",
"380 130 OFFCURVE",
"388 165 OFFCURVE",
"388 188 CURVE SMOOTH",
"388 275 OFFCURVE",
"305 315 OFFCURVE",
"242 358 CURVE SMOOTH",
"203 385 OFFCURVE",
"170 412 OFFCURVE",
"170 452 CURVE SMOOTH",
"170 509 OFFCURVE",
"196 542 OFFCURVE",
"214 542 CURVE SMOOTH",
"244 542 OFFCURVE",
"310 531 OFFCURVE",
"346 524 CURVE",
"432 595 LINE",
"376 601 OFFCURVE",
"292 611 OFFCURVE",
"273 611 CURVE SMOOTH",
"239 611 OFFCURVE",
"124 533 OFFCURVE",
"94 488 CURVE",
"85 468 OFFCURVE",
"78 436 OFFCURVE",
"78 410 CURVE SMOOTH",
"78 341 OFFCURVE",
"130 303 OFFCURVE",
"182 270 CURVE SMOOTH",
"237 235 OFFCURVE",
"292 205 OFFCURVE",
"292 151 CURVE SMOOTH",
"292 126 OFFCURVE",
"258 58 OFFCURVE",
"237 58 CURVE SMOOTH",
"197 58 OFFCURVE",
"145 65 OFFCURVE",
"96 72 CURVE",
"10 1 LINE",
"67 -4 OFFCURVE",
"146 -9 OFFCURVE",
"194 -9 CURVE SMOOTH"
);
},
{
closed = 1;
nodes = (
"92 1 LINE",
"103 184 LINE",
"51 184 LINE",
"10 1 LINE"
);
},
{
closed = 1;
nodes = (
"392 422 LINE",
"432 595 LINE",
"349 595 LINE",
"340 422 LINE"
);
}
);
width = 423;
},
{
anchors = (
{
name = bottom;
position = "{157, 0}";
},
{
name = top;
position = "{258, 591}";
}
);
background = {
paths = (
{
closed = 1;
nodes = (
"384 584 LINE",
"375 458 LINE",
"393 458 LINE",
"418 584 LINE"
);
},
{
closed = 1;
nodes = (
"418 585 LINE",
"376 593 OFFCURVE",
"294 601 OFFCURVE",
"253 601 CURVE SMOOTH",
"230 601 OFFCURVE",
"156 541 OFFCURVE",
"127 501 CURVE",
"116 480 OFFCURVE",
"111 460 OFFCURVE",
"111 439 CURVE SMOOTH",
"111 387 OFFCURVE",
"163 348 OFFCURVE",
"220 305 CURVE SMOOTH",
"282 258 OFFCURVE",
"350 230 OFFCURVE",
"350 172 CURVE SMOOTH",
"350 88 OFFCURVE",
"264 15 OFFCURVE",
"239 15 CURVE SMOOTH",
"211 15 OFFCURVE",
"132 24 OFFCURVE",
"82 32 CURVE",
"48 8 LINE",
"108 0 OFFCURVE",
"202 -8 OFFCURVE",
"239 -8 CURVE SMOOTH",
"284 -8 OFFCURVE",
"348 70 OFFCURVE",
"371 121 CURVE",
"377 141 OFFCURVE",
"380 156 OFFCURVE",
"380 180 CURVE SMOOTH",
"380 236 OFFCURVE",
"302 281 OFFCURVE",
"237 329 CURVE SMOOTH",
"184 367 OFFCURVE",
"140 398 OFFCURVE",
"140 450 CURVE SMOOTH",
"140 510 OFFCURVE",
"236 576 OFFCURVE",
"260 576 CURVE SMOOTH",
"284 576 OFFCURVE",
"363 571 OFFCURVE",
"403 557 CURVE"
);
},
{
closed = 1;
nodes = (
"82 8 LINE",
"94 144 LINE",
"76 144 LINE",
"48 8 LINE"
);
}
);
};
color = -1;
layerId = "16B79A64-180D-495F-8650-CA27198DF3EF";
paths = (
{
closed = 1;
nodes = (
"246 -8 OFFCURVE",
"310 70 OFFCURVE",
"333 121 CURVE",
"339 141 OFFCURVE",
"342 156 OFFCURVE",
"342 180 CURVE SMOOTH",
"342 236 OFFCURVE",
"264 281 OFFCURVE",
"199 329 CURVE SMOOTH",
"147 368 OFFCURVE",
"102 398 OFFCURVE",
"102 450 CURVE SMOOTH",
"102 510 OFFCURVE",
"198 576 OFFCURVE",
"222 576 CURVE SMOOTH",
"246 576 OFFCURVE",
"325 571 OFFCURVE",
"365 557 CURVE",
"380 585 LINE",
"338 593 OFFCURVE",
"256 601 OFFCURVE",
"215 601 CURVE SMOOTH",
"192 601 OFFCURVE",
"118 541 OFFCURVE",
"89 501 CURVE",
"78 480 OFFCURVE",
"73 460 OFFCURVE",
"73 439 CURVE SMOOTH",
"73 387 OFFCURVE",
"125 348 OFFCURVE",
"182 305 CURVE SMOOTH",
"244 258 OFFCURVE",
"312 230 OFFCURVE",
"312 172 CURVE SMOOTH",
"312 88 OFFCURVE",
"226 15 OFFCURVE",
"201 15 CURVE SMOOTH",
"173 15 OFFCURVE",
"94 24 OFFCURVE",
"44 32 CURVE",
"10 8 LINE",
"70 0 OFFCURVE",
"164 -8 OFFCURVE",
"201 -8 CURVE SMOOTH"
);
},
{
closed = 1;
nodes = (
"44 8 LINE",
"56 144 LINE",
"38 144 LINE",
"10 8 LINE"
);
},
{
closed = 1;
nodes = (
"355 458 LINE",
"380 584 LINE",
"346 584 LINE",
"337 458 LINE"
);
}
);
width = 378;
},
{
anchors = (
{
name = bottom;
position = "{208, 0}";
},
{
name = top;
position = "{318, 613}";
}
);
background = {
paths = (
{
closed = 1;
nodes = (
"302 -9 OFFCURVE",
"437 61 OFFCURVE",
"472 113 CURVE",
"479 129 OFFCURVE",
"487 164 OFFCURVE",
"487 187 CURVE SMOOTH",
"487 274 OFFCURVE",
"402 328 OFFCURVE",
"339 383 CURVE SMOOTH",
"301 415 OFFCURVE",
"271 448 OFFCURVE",
"271 487 CURVE SMOOTH",
"271 519 OFFCURVE",
"279 532 OFFCURVE",
"297 532 CURVE SMOOTH",
"327 532 OFFCURVE",
"408 516 OFFCURVE",
"444 509 CURVE",
"535 610 LINE",
"479 616 OFFCURVE",
"345 626 OFFCURVE",
"326 626 CURVE SMOOTH",
"292 626 OFFCURVE",
"140 549 OFFCURVE",
"110 504 CURVE",
"103 484 OFFCURVE",
"94 450 OFFCURVE",
"94 426 CURVE SMOOTH",
"94 349 OFFCURVE",
"158 300 OFFCURVE",
"215 255 CURVE SMOOTH",
"261 218 OFFCURVE",
"303 184 OFFCURVE",
"303 138 CURVE SMOOTH",
"303 122 OFFCURVE",
"282 88 OFFCURVE",
"268 88 CURVE SMOOTH",
"228 88 OFFCURVE",
"157 98 OFFCURVE",
"108 105 CURVE",
"22 1 LINE",
"79 -4 OFFCURVE",
"176 -9 OFFCURVE",
"264 -9 CURVE SMOOTH"
);
},
{
closed = 1;
nodes = (
"22 1 LINE",
"145 1 LINE",
"162 242 LINE",
"69 242 LINE"
);
},
{
closed = 1;
nodes = (
"490 391 LINE",
"535 610 LINE",
"412 610 LINE",
"397 391 LINE"
);
}
);
};
color = -1;
layerId = "E259E77F-022A-45EF-A0F1-1168268390B3";
paths = (
{
closed = 1;
nodes = (
"270 -9 OFFCURVE",
"405 61 OFFCURVE",
"440 113 CURVE",
"447 129 OFFCURVE",
"455 164 OFFCURVE",
"455 187 CURVE SMOOTH",
"455 274 OFFCURVE",
"369 327 OFFCURVE",
"307 383 CURVE SMOOTH",
"270 416 OFFCURVE",
"239 448 OFFCURVE",
"239 487 CURVE SMOOTH",
"239 519 OFFCURVE",
"247 528 OFFCURVE",
"265 528 CURVE SMOOTH",
"295 528 OFFCURVE",
"376 516 OFFCURVE",
"412 509 CURVE",
"503 610 LINE",
"447 616 OFFCURVE",
"313 626 OFFCURVE",
"294 626 CURVE SMOOTH",
"260 626 OFFCURVE",
"108 549 OFFCURVE",
"78 504 CURVE",
"71 484 OFFCURVE",
"62 450 OFFCURVE",
"62 426 CURVE SMOOTH",
"62 349 OFFCURVE",
"126 301 OFFCURVE",
"183 255 CURVE SMOOTH",
"229 218 OFFCURVE",
"271 184 OFFCURVE",
"271 138 CURVE SMOOTH",
"271 122 OFFCURVE",
"254 92 OFFCURVE",
"236 92 CURVE SMOOTH",
"196 92 OFFCURVE",
"125 98 OFFCURVE",
"76 105 CURVE",
"-10 1 LINE",
"47 -4 OFFCURVE",
"144 -9 OFFCURVE",
"232 -9 CURVE SMOOTH"
);
},
{
closed = 1;
nodes = (
"113 1 LINE",
"130 242 LINE",
"37 242 LINE",
"-10 1 LINE"
);
},
{
closed = 1;
nodes = (
"458 391 LINE",
"503 610 LINE",
"380 610 LINE",
"365 391 LINE"
);
}
);
width = 470;
}
);
leftKerningGroup = S;
rightKerningGroup = S;
unicode = 0053;
},
{
color = 4;
glyphname = Germandbls;
layers = (
{
background = {
paths = (
{
closed = 1;
nodes = (
"153 0 LINE",
"217 374 LINE SMOOTH",
"238 497 OFFCURVE",
"269 528 OFFCURVE",
"294 541 CURVE",
"334 551 OFFCURVE",
"437 544 OFFCURVE",
"498 507 CURVE",
"541 605 OFFCURVE",
"431 611 OFFCURVE",
"365 611 CURVE",
"347 611 OFFCURVE",
"242 566 OFFCURVE",
"174 507 CURVE",
"152 473 OFFCURVE",
"137 430 OFFCURVE",
"122 343 CURVE SMOOTH",
"62 0 LINE"
);
},
{
closed = 1;
nodes = (
"105 0 LINE",
"115 72 LINE",
"10 38 LINE",
"4 0 LINE"
);
},
{
closed = 1;
nodes = (
"204 1 LINE",
"286 1 LINE",
"297 184 LINE",
"245 184 LINE"
);
},
{
closed = 1;
nodes = (
"408 -9 OFFCURVE",
"509 42 OFFCURVE",
"544 94 CURVE",
"551 110 OFFCURVE",
"559 145 OFFCURVE",
"559 168 CURVE SMOOTH",
"559 294 OFFCURVE",
"380 334 OFFCURVE",
"380 423 CURVE SMOOTH",
"380 465 OFFCURVE",
"397 490 OFFCURVE",
"410 499 CURVE",
"430 506 OFFCURVE",
"463 509 OFFCURVE",
"498 507 CURVE",
"498 572 LINE",
"462 572 OFFCURVE",
"343 515 OFFCURVE",
"309 462 CURVE",
"298 441 OFFCURVE",
"291 416 OFFCURVE",
"291 383 CURVE SMOOTH",
"291 268 OFFCURVE",
"466 233 OFFCURVE",
"466 131 CURVE SMOOTH",
"466 106 OFFCURVE",
"438 55 OFFCURVE",
"417 55 CURVE SMOOTH",
"379 55 OFFCURVE",
"328 64 OFFCURVE",
"290 72 CURVE",
"204 1 LINE",
"261 -4 OFFCURVE",
"322 -9 OFFCURVE",
"370 -9 CURVE SMOOTH"
);
}
);
};
color = -1;
layerId = "D9712079-C16A-42CB-8BA4-BD9ECFFACF10";
paths = (
{
closed = 1;
nodes = (
"154 0 LINE",
"249 540 LINE",
"494 554 LINE",
"585 568 LINE",
"570 603 LINE",
"105 603 LINE",
"98 565 LINE",
"157 545 LINE",
"71 58 LINE",
"5 38 LINE",
"-1 0 LINE"
);
},
{
closed = 1;
nodes = (
"282 1 LINE",
"298 184 LINE",
"246 184 LINE",
"200 1 LINE"
);
},
{
closed = 1;
nodes = (
"444 -9 OFFCURVE",
"557 129 OFFCURVE",
"557 237 CURVE SMOOTH",
"557 315 OFFCURVE",
"484 340 OFFCURVE",
"406 340 CURVE SMOOTH",
"381 340 OFFCURVE",
"354 339 OFFCURVE",
"327 336 CURVE",
"317 289 LINE",
"431 289 LINE SMOOTH",
"452 289 OFFCURVE",
"460 268 OFFCURVE",
"460 237 CURVE SMOOTH",
"460 185 OFFCURVE",
"426 69 OFFCURVE",
"381 60 CURVE SMOOTH",
"360 56 OFFCURVE",
"268 53 OFFCURVE",
"220 53 CURVE",
"200 1 LINE",
"238 -2 OFFCURVE",
"315 -9 OFFCURVE",
"336 -9 CURVE SMOOTH"
);
},
{
closed = 1;
nodes = (
"382 333 LINE",
"378 347 LINE",
"585 568 LINE",
"500 587 LINE",
"290 341 LINE",
"316 288 LINE"
);
}
);
width = 557;
},
{
background = {
paths = (
{
closed = 1;
nodes = (
"93 0 LINE",
"171 427 LINE SMOOTH",
"183 492 OFFCURVE",
"246 546 OFFCURVE",
"329 572 CURVE",
"361 572 OFFCURVE",
"404 563 OFFCURVE",
"437 528 CURVE",
"462 565 OFFCURVE",
"391 599 OFFCURVE",
"332 599 CURVE",
"309 599 OFFCURVE",
"228 561 OFFCURVE",
"176 503 CURVE",
"152 470 OFFCURVE",
"143 441 OFFCURVE",
"135 398 CURVE SMOOTH",
"65 0 LINE"
);
},
{
closed = 1;
nodes = (
"83 0 LINE",
"88 28 LINE",
"10 18 LINE",
"7 0 LINE"
);
},
{
closed = 1;
nodes = (
"165 8 LINE",
"199 8 LINE",
"211 144 LINE",
"193 144 LINE"
);
},
{
closed = 1;
nodes = (
"391 -8 OFFCURVE",
"455 56 OFFCURVE",
"478 107 CURVE",
"484 127 OFFCURVE",
"487 142 OFFCURVE",
"487 166 CURVE SMOOTH",
"487 272 OFFCURVE",
"269 324 OFFCURVE",
"269 420 CURVE SMOOTH",
"269 475 OFFCURVE",
"331 509 OFFCURVE",
"376 528 CURVE",
"393 532 OFFCURVE",
"422 532 OFFCURVE",
"437 528 CURVE",
"416 564 LINE",
"343 547 OFFCURVE",
"291 512 OFFCURVE",
"256 473 CURVE",
"245 451 OFFCURVE",
"240 432 OFFCURVE",
"240 409 CURVE SMOOTH",
"240 309 OFFCURVE",
"457 257 OFFCURVE",
"457 160 CURVE SMOOTH",
"457 76 OFFCURVE",
"371 15 OFFCURVE",
"346 15 CURVE SMOOTH",
"318 15 OFFCURVE",
"249 24 OFFCURVE",
"199 32 CURVE",
"165 8 LINE",
"225 0 OFFCURVE",
"309 -8 OFFCURVE",
"346 -8 CURVE SMOOTH"
);
}
);
};
color = -1;
layerId = "16B79A64-180D-495F-8650-CA27198DF3EF";
paths = (
{
closed = 1;
nodes = (
"95 0 LINE",
"194 564 LINE",
"500 571 LINE",
"518 575 LINE",
"507 591 LINE",
"112 591 LINE",
"108 574 LINE",
"164 566 LINE",
"69 25 LINE",
"11 17 LINE",
"8 0 LINE"
);
},
{
closed = 1;
nodes = (
"198 8 LINE",
"210 144 LINE",
"192 144 LINE",
"164 8 LINE"
);
},
{
closed = 1;
nodes = (
"379 -9 OFFCURVE",
"490 137 OFFCURVE",
"490 236 CURVE SMOOTH",
"490 299 OFFCURVE",
"440 321 OFFCURVE",
"351 321 CURVE SMOOTH",
"330 321 OFFCURVE",
"307 320 OFFCURVE",
"282 318 CURVE",
"277 298 LINE",
"379 298 LINE SMOOTH",
"430 298 OFFCURVE",
"461 272 OFFCURVE",
"461 227 CURVE SMOOTH",
"461 158 OFFCURVE",
"394 60 OFFCURVE",
"331 24 CURVE SMOOTH",
"312 12 OFFCURVE",
"227 21 OFFCURVE",
"169 26 CURVE",
"164 8 LINE",
"196 3 OFFCURVE",
"259 -9 OFFCURVE",
"285 -9 CURVE SMOOTH"
);
},
{
closed = 1;
nodes = (
"303 312 LINE",
"298 326 LINE",
"518 575 LINE",
"484 576 LINE",
"265 316 LINE",
"277 298 LINE"
);
}
);
width = 504;
},
{
background = {
paths = (
{
closed = 1;
nodes = (
"210 0 LINE",
"274 369 LINE SMOOTH",
"295 492 OFFCURVE",
"325 508 OFFCURVE",
"350 521 CURVE",
"390 531 OFFCURVE",
"542 506 OFFCURVE",
"603 469 CURVE",
"682 611 OFFCURVE",
"490 624 OFFCURVE",
"424 624 CURVE",
"406 624 OFFCURVE",
"209 566 OFFCURVE",
"141 507 CURVE",
"119 473 OFFCURVE",
"104 430 OFFCURVE",
"89 343 CURVE SMOOTH",
"28 0 LINE"
);
},
{
closed = 1;
nodes = (
"137 0 LINE",
"152 108 LINE",
"-19 72 LINE",
"-30 0 LINE"
);
},
{
closed = 1;
nodes = (
"244 1 LINE",
"367 1 LINE",
"381 202 LINE",
"288 202 LINE"
);
},
{
closed = 1;
nodes = (
"515 -9 OFFCURVE",
"648 61 OFFCURVE",
"683 113 CURVE",
"690 129 OFFCURVE",
"698 164 OFFCURVE",
"698 187 CURVE SMOOTH",
"698 324 OFFCURVE",
"503 325 OFFCURVE",
"503 428 CURVE SMOOTH",
"503 446 OFFCURVE",
"508 464 OFFCURVE",
"521 474 CURVE",
"540 479 OFFCURVE",
"573 478 OFFCURVE",
"603 469 CURVE",
"578 574 LINE",
"525 574 OFFCURVE",
"374 490 OFFCURVE",
"344 445 CURVE",
"336 425 OFFCURVE",
"328 395 OFFCURVE",
"328 367 CURVE SMOOTH",
"328 239 OFFCURVE",
"516 239 OFFCURVE",
"516 138 CURVE SMOOTH",
"516 122 OFFCURVE",
"495 88 OFFCURVE",
"481 88 CURVE SMOOTH",
"441 88 OFFCURVE",
"379 98 OFFCURVE",
"330 105 CURVE",
"244 1 LINE",
"301 -4 OFFCURVE",
"389 -9 OFFCURVE",
"477 -9 CURVE SMOOTH"
);
}
);
};
color = -1;
layerId = "E259E77F-022A-45EF-A0F1-1168268390B3";
paths = (
{
closed = 1;
nodes = (
"214 0 LINE",
"304 510 LINE",
"610 526 LINE",
"707 565 LINE",
"689 612 LINE",
"77 612 LINE",
"65 540 LINE",
"120 515 LINE",
"46 97 LINE",
"-18 72 LINE",
"-31 0 LINE"
);
},
{
closed = 1;
nodes = (
"377 1 LINE",
"391 202 LINE",
"298 202 LINE",
"254 1 LINE"
);
},
{
closed = 1;
nodes = (
"585 -15 OFFCURVE",
"676 116 OFFCURVE",
"676 225 CURVE SMOOTH",
"676 297 OFFCURVE",
"625 346 OFFCURVE",
"507 346 CURVE SMOOTH",
"473 346 OFFCURVE",
"433 342 OFFCURVE",
"388 334 CURVE",
"372 259 LINE",
"441 259 LINE SMOOTH",
"463 259 OFFCURVE",
"490 237 OFFCURVE",
"490 205 CURVE SMOOTH",
"490 168 OFFCURVE",
"464 110 OFFCURVE",
"422 96 CURVE SMOOTH",
"403 89 OFFCURVE",
"379 92 OFFCURVE",
"284 92 CURVE",
"254 1 LINE",
"304 -6 OFFCURVE",
"377 -15 OFFCURVE",
"407 -15 CURVE SMOOTH"
);
},
{
closed = 1;
nodes = (
"492 342 LINE",
"487 356 LINE",
"707 565 LINE",
"590 602 LINE",
"325 323 LINE",
"372 259 LINE"
);
}
);
width = 680;
}
);
leftKerningGroup = H;
leftMetricsKey = H;
rightKerningGroup = o;
unicode = 1E9E;
},
{
color = 4;
glyphname = Schwa;
layers = (
{
background = {
paths = (
{
closed = 1;
nodes = (
"106 408 LINE",
"158 408 LINE",
"206 575 LINE",
"124 575 LINE"
);
},
{
closed = 1;
nodes = (
"294 -9 OFFCURVE",
"405 66 OFFCURVE",
"446 109 CURVE",
"477 176 OFFCURVE",
"513 323 OFFCURVE",
"513 404 CURVE SMOOTH",
"513 547 OFFCURVE",
"430 611 OFFCURVE",
"337 611 CURVE SMOOTH",
"312 611 OFFCURVE",
"191 590 OFFCURVE",
"124 575 CURVE",
"129 506 LINE",
"191 519 OFFCURVE",
"312 549 OFFCURVE",
"326 549 CURVE SMOOTH",
"380 549 OFFCURVE",
"418 516 OFFCURVE",
"418 417 CURVE SMOOTH",
"418 334 OFFCURVE",
"383 167 OFFCURVE",
"353 94 CURVE",
"333 77 OFFCURVE",
"274 54 OFFCURVE",
"266 53 CURVE",
"258 52 OFFCURVE",
"250 52 OFFCURVE",
"243 52 CURVE SMOOTH",
"166 52 OFFCURVE",
"140 100 OFFCURVE",
"140 176 CURVE SMOOTH",
"140 194 OFFCURVE",
"142 215 OFFCURVE",
"144 237 CURVE",
"415 265 LINE",
"422 308 LINE",
"55 281 LINE",
"49 247 OFFCURVE",
"47 217 OFFCURVE",
"47 191 CURVE SMOOTH",
"47 24 OFFCURVE",
"151 -9 OFFCURVE",
"259 -9 CURVE SMOOTH"
);
}
);
};
color = -1;
layerId = "D9712079-C16A-42CB-8BA4-BD9ECFFACF10";
paths = (
{
closed = 1;
nodes = (
"294 -9 OFFCURVE",
"405 66 OFFCURVE",
"446 109 CURVE",
"477 176 OFFCURVE",
"513 323 OFFCURVE",
"513 404 CURVE SMOOTH",
"513 547 OFFCURVE",
"430 611 OFFCURVE",
"337 611 CURVE SMOOTH",
"312 611 OFFCURVE",
"191 590 OFFCURVE",
"124 575 CURVE",
"129 506 LINE",
"191 519 OFFCURVE",
"312 549 OFFCURVE",
"326 549 CURVE SMOOTH",
"380 549 OFFCURVE",
"418 516 OFFCURVE",
"418 417 CURVE SMOOTH",
"418 334 OFFCURVE",
"383 167 OFFCURVE",
"353 94 CURVE",
"331 77 OFFCURVE",
"280 52 OFFCURVE",
"243 52 CURVE SMOOTH",
"166 52 OFFCURVE",
"140 100 OFFCURVE",
"140 176 CURVE SMOOTH",
"140 194 OFFCURVE",
"142 215 OFFCURVE",
"144 237 CURVE",
"415 265 LINE",
"422 308 LINE",
"55 281 LINE",
"49 247 OFFCURVE",
"47 217 OFFCURVE",
"47 191 CURVE SMOOTH",
"47 24 OFFCURVE",
"151 -9 OFFCURVE",
"259 -9 CURVE SMOOTH"
);
},
{
closed = 1;
nodes = (
"158 408 LINE",
"206 575 LINE",
"124 575 LINE",
"106 408 LINE"
);
}
);
width = 527;
},
{
background = {
paths = (
{
closed = 1;
nodes = (
"279 -9 OFFCURVE",
"369 58 OFFCURVE",
"410 101 CURVE",
"460 184 OFFCURVE",
"487 304 OFFCURVE",
"487 388 CURVE SMOOTH",
"487 519 OFFCURVE",
"426 611 OFFCURVE",
"333 611 CURVE SMOOTH",
"308 611 OFFCURVE",
"187 595 OFFCURVE",
"120 585 CURVE",
"125 549 LINE",
"187 561 OFFCURVE",
"306 582 OFFCURVE",
"320 582 CURVE SMOOTH",
"396 582 OFFCURVE",
"455 516 OFFCURVE",
"455 387 CURVE SMOOTH",
"455 302 OFFCURVE",
"433 190 OFFCURVE",
"389 114 CURVE",
"363 82 OFFCURVE",
"297 36 OFFCURVE",
"270 26 CURVE",
"258 21 OFFCURVE",
"246 20 OFFCURVE",
"236 20 CURVE SMOOTH",
"131 20 OFFCURVE",
"93 95 OFFCURVE",
"93 212 CURVE SMOOTH",
"93 225 OFFCURVE",
"93 238 OFFCURVE",
"94 252 CURVE",
"454 281 LINE",
"458 301 LINE",
"65 274 LINE",
"62 249 OFFCURVE",
"61 226 OFFCURVE",
"61 204 CURVE SMOOTH",
"61 72 OFFCURVE",
"112 -9 OFFCURVE",
"244 -9 CURVE SMOOTH"
);
},
{
closed = 1;
nodes = (
"129 449 LINE",
"154 585 LINE",
"120 585 LINE",
"110 449 LINE"
);
}
);
};
color = -1;
layerId = "16B79A64-180D-495F-8650-CA27198DF3EF";
paths = (
{
closed = 1;
nodes = (
"279 -9 OFFCURVE",
"369 58 OFFCURVE",
"410 101 CURVE",
"460 184 OFFCURVE",
"487 304 OFFCURVE",
"487 388 CURVE SMOOTH",
"487 519 OFFCURVE",
"426 611 OFFCURVE",
"333 611 CURVE SMOOTH",
"308 611 OFFCURVE",
"187 595 OFFCURVE",
"120 585 CURVE",
"125 549 LINE",
"187 561 OFFCURVE",
"306 582 OFFCURVE",
"320 582 CURVE SMOOTH",
"396 582 OFFCURVE",
"455 516 OFFCURVE",
"455 387 CURVE SMOOTH",
"455 302 OFFCURVE",
"433 190 OFFCURVE",
"389 114 CURVE",
"359 80 OFFCURVE",
"285 20 OFFCURVE",
"236 20 CURVE SMOOTH",
"131 20 OFFCURVE",
"93 95 OFFCURVE",
"93 212 CURVE SMOOTH",
"93 225 OFFCURVE",
"93 238 OFFCURVE",
"94 252 CURVE",
"454 281 LINE",
"458 301 LINE",
"65 274 LINE",
"62 249 OFFCURVE",
"61 226 OFFCURVE",
"61 204 CURVE SMOOTH",
"61 72 OFFCURVE",
"112 -9 OFFCURVE",
"244 -9 CURVE SMOOTH"
);
},
{
closed = 1;
nodes = (
"129 449 LINE",
"154 585 LINE",
"120 585 LINE",
"110 449 LINE"
);
}
);
width = 505;
},
{
color = -1;
layerId = "E259E77F-022A-45EF-A0F1-1168268390B3";
paths = (
{
closed = 1;
nodes = (
"296 -13 OFFCURVE",
"440 48 OFFCURVE",
"516 105 CURVE",
"550 188 OFFCURVE",
"587 329 OFFCURVE",
"587 423 CURVE SMOOTH",
"587 574 OFFCURVE",
"491 625 OFFCURVE",
"339 625 CURVE SMOOTH",
"314 625 OFFCURVE",
"185 613 OFFCURVE",
"98 602 CURVE",
"136 494 LINE",
"200 508 OFFCURVE",
"303 529 OFFCURVE",
"317 529 CURVE SMOOTH",
"371 529 OFFCURVE",
"396 516 OFFCURVE",
"396 417 CURVE SMOOTH",
"396 341 OFFCURVE",
"367 172 OFFCURVE",
"338 102 CURVE",
"323 93 OFFCURVE",
"289 79 OFFCURVE",
"284 79 CURVE SMOOTH",
"212 79 OFFCURVE",
"202 113 OFFCURVE",
"202 189 CURVE SMOOTH",
"202 199 OFFCURVE",
"202 209 OFFCURVE",
"202 220 CURVE",
"431 243 LINE",
"438 330 LINE",
"22 300 LINE",
"14 260 OFFCURVE",
"10 223 OFFCURVE",
"10 190 CURVE SMOOTH",
"10 61 OFFCURVE",
"77 -13 OFFCURVE",
"259 -13 CURVE SMOOTH"
);
},
{
closed = 1;
nodes = (
"161 377 LINE",
"221 602 LINE",
"98 602 LINE",
"68 377 LINE"
);
}
);
width = 582;
}
);
leftKerningGroup = O;
rightKerningGroup = O;
rightMetricsKey = O;
unicode = 018F;
},
{
color = 4;
glyphname = T;
layers = (
{
anchors = (
{
name = bottom;
position = "{199, 0}";
},
{
name = center;
position = "{252, 304}";
},
{
name = top;
position = "{302, 603}";
}
);
color = -1;
layerId = "D9712079-C16A-42CB-8BA4-BD9ECFFACF10";
paths = (
{
closed = 1;
nodes = (
"242 0 LINE",
"347 603 LINE",
"256 603 LINE",
"151 0 LINE"
);
},
{
closed = 1;
nodes = (
"316 0 LINE",
"324 46 LINE",
"212 74 LINE",
"89 38 LINE",
"83 0 LINE"
);
},
{
closed = 1;
nodes = (
"110 415 LINE",
"157 603 LINE",
"78 603 LINE",
"59 415 LINE"
);
},
{
closed = 1;
nodes = (
"289 554 LINE",
"501 535 LINE",
"523 603 LINE",
"78 603 LINE",
"78 535 LINE"
);
},
{
closed = 1;
nodes = (
"479 415 LINE",
"523 603 LINE",
"443 603 LINE",
"427 415 LINE"
);
}
);
width = 460;
},
{
anchors = (
{
name = bottom;
position = "{172, 0}";
},
{
name = center;
position = "{226, 308}";
},
{
name = top;
position = "{306, 591}";
}
);
color = -1;
layerId = "16B79A64-180D-495F-8650-CA27198DF3EF";
paths = (
{
closed = 1;
nodes = (
"185 0 LINE",
"288 591 LINE",
"260 591 LINE",
"157 0 LINE"
);
},
{
closed = 1;
nodes = (
"263 0 LINE",
"266 18 LINE",
"180 28 LINE",
"89 15 LINE",
"86 0 LINE"
);
},
{
closed = 1;
nodes = (
"94 452 LINE",
"125 591 LINE",
"94 591 LINE",
"75 452 LINE"
);
},
{
closed = 1;
nodes = (
"274 563 LINE",
"450 570 LINE",
"456 591 LINE",
"94 591 LINE",
"94 573 LINE"
);
},
{
closed = 1;
nodes = (
"432 452 LINE",
"456 591 LINE",
"424 591 LINE",
"413 452 LINE"
);
}
);
width = 407;
},
{
anchors = (
{
name = bottom;
position = "{261, 0}";
},
{
name = center;
position = "{300, 283}";
},
{
name = top;
position = "{358, 613}";
}
);
color = -1;
layerId = "E259E77F-022A-45EF-A0F1-1168268390B3";
paths = (
{
closed = 1;
nodes = (
"343 0 LINE",
"448 613 LINE",
"266 613 LINE",
"161 0 LINE"
);
},
{
closed = 1;
nodes = (
"422 0 LINE",
"435 80 LINE",
"285 108 LINE",
"94 72 LINE",
"83 0 LINE"
);
},
{
closed = 1;
nodes = (
"149 372 LINE",
"197 613 LINE",
"81 613 LINE",
"56 372 LINE"
);
},
{
closed = 1;
nodes = (
"340 544 LINE",
"595 494 LINE",
"626 613 LINE",
"81 613 LINE",
"72 494 LINE"
);
},
{
closed = 1;
nodes = (
"583 372 LINE",
"626 613 LINE",
"510 613 LINE",
"490 372 LINE"
);
}
);
width = 573;
}
);
leftKerningGroup = T;
rightKerningGroup = T;
unicode = 0054;
},
{
color = 4;
glyphname = U;
layers = (
{
anchors = (
{
name = bottom;
position = "{287, 0}";
},
{
name = ogonek;
position = "{497, 0}";
},
{
name = top;
position = "{349, 603}";
},
{
name = topright;
position = "{522, 595}";
}
);
color = -1;
layerId = "D9712079-C16A-42CB-8BA4-BD9ECFFACF10";
paths = (
{
closed = 1;
nodes = (
"210 -8 OFFCURVE",
"327 44 OFFCURVE",
"381 68 CURVE",
"387 114 LINE",
"346 101 OFFCURVE",
"239 73 OFFCURVE",
"216 73 CURVE SMOOTH",
"195 73 OFFCURVE",
"174 81 OFFCURVE",
"174 135 CURVE SMOOTH",
"174 177 OFFCURVE",
"183 214 OFFCURVE",
"250 603 CURVE",
"160 603 LINE",
"86 166 OFFCURVE",
"81 153 OFFCURVE",
"81 113 CURVE SMOOTH",
"81 32 OFFCURVE",
"120 -8 OFFCURVE",
"199 -8 CURVE SMOOTH"
);
},
{
closed = 1;
nodes = (
"497 0 LINE",
"503 38 LINE",
"447 58 LINE",
"539 603 LINE",
"450 603 LINE",
"360 72 LINE",
"370 0 LINE"
);
},
{
closed = 1;
nodes = (
"304 557 LINE",
"312 603 LINE",
"99 603 LINE",
"93 565 LINE",
"197 529 LINE"
);
},
{
closed = 1;
nodes = (
"594 565 LINE",
"600 603 LINE",
"387 603 LINE",
"379 557 LINE",
"481 529 LINE"
);
}
);
width = 573;
},
{
anchors = (
{
name = bottom;
position = "{241, 0}";
},
{
name = ogonek;
position = "{427, 0}";
},
{
name = top;
position = "{306, 591}";
},
{
name = topright;
position = "{504, 590}";
}
);
background = {
paths = (
{
closed = 1;
nodes = (
"143 141 OFFCURVE",
"149 147 OFFCURVE",
"149 155 CURVE SMOOTH",
"149 163 OFFCURVE",
"143 169 OFFCURVE",
"135 169 CURVE SMOOTH",
"127 169 OFFCURVE",
"121 163 OFFCURVE",
"121 155 CURVE SMOOTH",
"121 147 OFFCURVE",
"127 141 OFFCURVE",
"135 141 CURVE"
);
},
{
closed = 1;
nodes = (
"139 93 OFFCURVE",
"145 99 OFFCURVE",
"145 107 CURVE SMOOTH",
"145 115 OFFCURVE",
"139 121 OFFCURVE",
"131 121 CURVE SMOOTH",
"123 121 OFFCURVE",
"117 115 OFFCURVE",
"117 107 CURVE SMOOTH",
"117 99 OFFCURVE",
"123 93 OFFCURVE",
"131 93 CURVE"
);
},
{
closed = 1;
nodes = (
"228 -8 OFFCURVE",
"234 -2 OFFCURVE",
"234 6 CURVE SMOOTH",
"234 14 OFFCURVE",
"228 20 OFFCURVE",
"220 20 CURVE SMOOTH",
"212 20 OFFCURVE",
"206 14 OFFCURVE",
"206 6 CURVE SMOOTH",
"206 -2 OFFCURVE",
"212 -8 OFFCURVE",
"220 -8 CURVE"
);
},
{
closed = 1;
nodes = (
"158 22 OFFCURVE",
"164 28 OFFCURVE",
"164 36 CURVE SMOOTH",
"164 44 OFFCURVE",
"158 50 OFFCURVE",
"150 50 CURVE SMOOTH",
"142 50 OFFCURVE",
"136 44 OFFCURVE",
"136 36 CURVE SMOOTH",
"136 28 OFFCURVE",
"142 22 OFFCURVE",
"150 22 CURVE"
);
},
{
closed = 1;
nodes = (
"375 51 OFFCURVE",
"379 55 OFFCURVE",
"379 61 CURVE SMOOTH",
"379 67 OFFCURVE",
"375 71 OFFCURVE",
"369 71 CURVE SMOOTH",
"363 71 OFFCURVE",
"359 67 OFFCURVE",
"359 61 CURVE SMOOTH",
"359 55 OFFCURVE",
"363 51 OFFCURVE",
"369 51 CURVE SMOOTH"
);
}
);
};
color = -1;
layerId = "16B79A64-180D-495F-8650-CA27198DF3EF";
paths = (
{
closed = 1;
nodes = (
"193 -8 OFFCURVE",
"298 44 OFFCURVE",
"352 72 CURVE",
"354 94 LINE",
"305 68 OFFCURVE",
"211 19 OFFCURVE",
"182 19 CURVE SMOOTH",
"124 19 OFFCURVE",
"100 47 OFFCURVE",
"100 105 CURVE SMOOTH",
"100 150 OFFCURVE",
"111 202 OFFCURVE",
"178 591 CURVE",
"150 591 LINE",
"76 165 OFFCURVE",
"72 144 OFFCURVE",
"72 107 CURVE SMOOTH",
"72 32 OFFCURVE",
"107 -8 OFFCURVE",
"182 -8 CURVE SMOOTH"
);
},
{
closed = 1;
nodes = (
"427 0 LINE",
"430 18 LINE",
"367 27 LINE",
"464 591 LINE",
"436 591 LINE",
"346 72 LINE",
"342 0 LINE"
);
},
{
closed = 1;
nodes = (
"238 573 LINE",
"241 591 LINE",
"89 591 LINE",
"86 576 LINE",
"164 563 LINE"
);
},
{
closed = 1;
nodes = (
"519 576 LINE",
"522 591 LINE",
"370 591 LINE",
"367 573 LINE",
"441 563 LINE"
);
}
);
width = 511;
},
{
anchors = (
{
name = bottom;
position = "{303, 0}";
},
{
name = ogonek;
position = "{589, 0}";
},
{
name = top;
position = "{364, 613}";
},
{
name = topright;
position = "{633, 593}";
}
);
background = {
paths = (
{
closed = 1;
nodes = (
"256 505 LINE",
"388 533 LINE",
"401 613 LINE",
"107 613 LINE",
"96 541 LINE"
);
},
{
closed = 1;
nodes = (
"714 541 LINE",
"725 613 LINE",
"431 613 LINE",
"418 533 LINE",
"543 505 LINE"
);
},
{
closed = 1;
nodes = (
"397 92 LINE",
"422 0 LINE",
"633 0 LINE",
"644 67 LINE",
"577 85 LINE",
"667 613 LINE",
"485 613 LINE"
);
},
{
closed = 1;
nodes = (
"453 173 LINE",
"412 160 OFFCURVE",
"342 142 OFFCURVE",
"319 142 CURVE SMOOTH",
"298 142 OFFCURVE",
"281 152 OFFCURVE",
"281 196 CURVE SMOOTH",
"281 228 OFFCURVE",
"299 313 OFFCURVE",
"350 613 CURVE",
"168 613 LINE",
"94 176 OFFCURVE",
"88 153 OFFCURVE",
"88 113 CURVE SMOOTH",
"88 32 OFFCURVE",
"149 -12 OFFCURVE",
"248 -12 CURVE SMOOTH",
"265 -12 OFFCURVE",
"395 66 OFFCURVE",
"453 98 CURVE"
);
}
);
};
color = -1;
layerId = "E259E77F-022A-45EF-A0F1-1168268390B3";
paths = (
{
closed = 1;
nodes = (
"221 -12 OFFCURVE",
"350 74 OFFCURVE",
"409 113 CURVE",
"409 188 LINE",
"368 171 OFFCURVE",
"298 142 OFFCURVE",
"275 142 CURVE SMOOTH",
"254 142 OFFCURVE",
"237 152 OFFCURVE",
"237 196 CURVE SMOOTH",
"237 228 OFFCURVE",
"255 313 OFFCURVE",
"306 613 CURVE",
"124 613 LINE",
"50 176 OFFCURVE",
"44 153 OFFCURVE",
"44 113 CURVE SMOOTH",
"44 32 OFFCURVE",
"105 -12 OFFCURVE",
"204 -12 CURVE SMOOTH"
);
},
{
closed = 1;
nodes = (
"589 0 LINE",
"600 67 LINE",
"533 85 LINE",
"623 613 LINE",
"441 613 LINE",
"354 102 LINE",
"390 0 LINE"
);
},
{
closed = 1;
nodes = (
"344 533 LINE",
"357 613 LINE",
"63 613 LINE",
"52 541 LINE",
"212 505 LINE"
);
},
{
closed = 1;
nodes = (
"670 541 LINE",
"681 613 LINE",
"387 613 LINE",
"374 533 LINE",
"499 505 LINE"
);
}
);
width = 640;
}
);
leftKerningGroup = U;
rightKerningGroup = U;
unicode = 0055;
},
{
glyphname = Uhorn;
layers = (
{
anchors = (
{
name = bottom;
position = "{263, 0}";
},
{
name = ogonek;
position = "{446, -3}";
},
{
name = top;
position = "{306, 591}";
}
);
background = {
paths = (
{
closed = 1;
nodes = (
"238 -8 OFFCURVE",
"343 44 OFFCURVE",
"397 72 CURVE",
"399 94 LINE",
"350 68 OFFCURVE",
"256 19 OFFCURVE",
"227 19 CURVE SMOOTH",
"169 19 OFFCURVE",
"145 47 OFFCURVE",
"145 105 CURVE SMOOTH",
"145 150 OFFCURVE",
"156 202 OFFCURVE",
"223 591 CURVE",
"195 591 LINE",
"121 165 OFFCURVE",
"117 144 OFFCURVE",
"117 107 CURVE SMOOTH",
"117 32 OFFCURVE",
"152 -8 OFFCURVE",
"227 -8 CURVE SMOOTH"
);
},
{
closed = 1;
nodes = (
"472 0 LINE",
"475 18 LINE",
"412 27 LINE",
"509 591 LINE",
"481 591 LINE",
"391 72 LINE",
"387 0 LINE"
);
},
{
closed = 1;
nodes = (
"283 570 LINE",
"286 591 LINE",
"134 591 LINE",
"131 573 LINE",
"209 563 LINE"
);
},
{
closed = 1;
nodes = (
"491 591 LINE",
"415 591 LINE",
"412 570 LINE",
"486 563 LINE"
);
}
);
};
color = -1;
components = (
{
name = horncomb.case;
transform = "{1, 0, 0, 1, 404, 42}";
}
);
layerId = "16B79A64-180D-495F-8650-CA27198DF3EF";
paths = (
{
closed = 1;
nodes = (
"193 -8 OFFCURVE",
"298 44 OFFCURVE",
"352 72 CURVE",
"354 94 LINE",
"305 68 OFFCURVE",
"211 19 OFFCURVE",
"182 19 CURVE SMOOTH",
"124 19 OFFCURVE",
"100 47 OFFCURVE",
"100 105 CURVE SMOOTH",
"100 150 OFFCURVE",
"111 202 OFFCURVE",
"178 591 CURVE",
"150 591 LINE",
"76 165 OFFCURVE",
"72 144 OFFCURVE",
"72 107 CURVE SMOOTH",
"72 32 OFFCURVE",
"107 -8 OFFCURVE",
"182 -8 CURVE SMOOTH"
);
},
{
closed = 1;
nodes = (
"427 0 LINE",
"430 18 LINE",
"367 27 LINE",
"464 591 LINE",
"436 591 LINE",
"346 72 LINE",
"342 0 LINE"
);
},
{
closed = 1;
nodes = (
"238 573 LINE",
"241 591 LINE",
"89 591 LINE",
"86 576 LINE",
"164 563 LINE"
);
},
{
closed = 1;
nodes = (
"464 591 LINE",
"370 591 LINE",
"367 573 LINE",
"441 563 LINE"
);
}
);
width = 511;
},
{
anchors = (
{
name = bottom;
position = "{305, 0}";
},
{
name = ogonek;
position = "{511, -22}";
},
{
name = top;
position = "{349, 603}";
}
);
color = -1;
components = (
{
name = horncomb.case;
transform = "{1, 0, 0, 1, 472, 34}";
}
);
layerId = "D9712079-C16A-42CB-8BA4-BD9ECFFACF10";
paths = (
{
closed = 1;
nodes = (
"210 -8 OFFCURVE",
"327 44 OFFCURVE",
"381 68 CURVE",
"387 114 LINE",
"346 101 OFFCURVE",
"239 73 OFFCURVE",
"216 73 CURVE SMOOTH",
"195 73 OFFCURVE",
"174 81 OFFCURVE",
"174 135 CURVE SMOOTH",
"174 177 OFFCURVE",
"183 214 OFFCURVE",
"250 603 CURVE",
"160 603 LINE",
"86 166 OFFCURVE",
"81 153 OFFCURVE",
"81 113 CURVE SMOOTH",
"81 32 OFFCURVE",
"120 -8 OFFCURVE",
"199 -8 CURVE SMOOTH"
);
},
{
closed = 1;
nodes = (
"497 0 LINE",
"503 38 LINE",
"447 58 LINE",
"539 603 LINE",
"450 603 LINE",
"360 72 LINE",
"370 0 LINE"
);
},
{
closed = 1;
nodes = (
"304 557 LINE",
"312 603 LINE",
"99 603 LINE",
"93 565 LINE",
"197 529 LINE"
);
},
{
closed = 1;
nodes = (
"539 603 LINE",
"387 603 LINE",
"379 557 LINE",
"481 529 LINE"
);
}
);
width = 573;
},
{
anchors = (
{
name = bottom;
position = "{335, 0}";
},
{
name = ogonek;
position = "{593, -15}";
},
{
name = top;
position = "{364, 613}";
}
);
color = -1;
components = (
{
name = horncomb.case;
transform = "{1, 0, 0, 1, 488, 31}";
}
);
layerId = "E259E77F-022A-45EF-A0F1-1168268390B3";
paths = (
{
closed = 1;
nodes = (
"221 -12 OFFCURVE",
"350 74 OFFCURVE",
"409 113 CURVE",
"409 188 LINE",
"368 171 OFFCURVE",
"298 142 OFFCURVE",
"275 142 CURVE SMOOTH",
"254 142 OFFCURVE",
"237 152 OFFCURVE",
"237 196 CURVE SMOOTH",
"237 228 OFFCURVE",
"255 313 OFFCURVE",
"306 613 CURVE",
"124 613 LINE",
"50 176 OFFCURVE",
"44 153 OFFCURVE",
"44 113 CURVE SMOOTH",
"44 32 OFFCURVE",
"105 -12 OFFCURVE",
"204 -12 CURVE SMOOTH"
);
},
{
closed = 1;
nodes = (
"589 0 LINE",
"600 67 LINE",
"533 85 LINE",
"623 613 LINE",
"441 613 LINE",
"354 102 LINE",
"390 0 LINE"
);
},
{
closed = 1;
nodes = (
"344 533 LINE",
"357 613 LINE",
"63 613 LINE",
"52 541 LINE",
"212 505 LINE"
);
},
{
closed = 1;
nodes = (
"623 613 LINE",
"387 613 LINE",
"374 533 LINE",
"499 505 LINE"
);
}
);
width = 640;
}
);
leftKerningGroup = U;
rightKerningGroup = U;
unicode = 01AF;
},
{
color = 4;
glyphname = V;
layers = (
{
background = {
paths = (
{
closed = 1;
nodes = (
"317 7 CURVE",
"360 105 OFFCURVE",
"520 474 OFFCURVE",
"552 545 CURVE",
"617 565 LINE",
"624 603 LINE",
"403 603 LINE",
"395 557 LINE",
"464 540 LINE",
"422 433 OFFCURVE",
"305 159 OFFCURVE",
"279 92 CURVE",
"268 92 LINE",
"268 92 OFFCURVE",
"265 187 OFFCURVE",
"263 231 CURVE",
"241 540 LINE",
"313 557 LINE",
"321 603 LINE",
"92 603 LINE",
"85 565 LINE",
"144 545 LINE",
"190 1 LINE",
"190 1 OFFCURVE",
"200 -7 OFFCURVE",
"204 -7 CURVE SMOOTH",
"206 -7 OFFCURVE",
"279 1 OFFCURVE"
);
}
);
};
color = -1;
layerId = "D9712079-C16A-42CB-8BA4-BD9ECFFACF10";
paths = (
{
closed = 1;
nodes = (
"290 6 LINE",
"527 563 LINE",
"458 603 LINE",
"248 65 LINE",
"238 65 LINE",
"236 209 LINE",
"217 603 LINE",
"124 603 LINE",
"164 2 LINE",
"174 -8 LINE"
);
},
{
closed = 1;
nodes = (
"274 557 LINE",
"282 603 LINE",
"79 603 LINE",
"73 565 LINE",
"177 529 LINE"
);
},
{
closed = 1;
nodes = (
"527 563 LINE",
"525 603 LINE",
"373 603 LINE",
"365 557 LINE",
"467 529 LINE"
);
}
);
width = 505;
},
{
background = {
paths = (
{
closed = 1;
nodes = (
"249 571 LINE",
"253 591 LINE",
"105 591 LINE",
"101 571 LINE",
"158 566 LINE",
"205 -2 LINE",
"205 -2 OFFCURVE",
"215 -10 OFFCURVE",
"218 -10 CURVE SMOOTH",
"223 -10 OFFCURVE",
"255 -5 OFFCURVE",
"255 -5 CURVE",
"505 566 LINE",
"562 571 LINE",
"566 591 LINE",
"418 591 LINE",
"414 571 LINE",
"475 564 LINE",
"240 25 LINE",
"232 25 LINE",
"232 25 OFFCURVE",
"223 141 OFFCURVE",
"217 208 CURVE",
"217 208 OFFCURVE",
"188 564 OFFCURVE",
"188 564 CURVE"
);
}
);
};
color = -1;
layerId = "16B79A64-180D-495F-8650-CA27198DF3EF";
paths = (
{
closed = 1;
nodes = (
"225 0 LINE",
"469 574 LINE",
"449 591 LINE",
"206 16 LINE",
"200 16 LINE",
"192 160 LINE",
"159 591 LINE",
"130 591 LINE",
"175 0 LINE",
"184 -9 LINE"
);
},
{
closed = 1;
nodes = (
"225 573 LINE",
"228 591 LINE",
"72 591 LINE",
"69 576 LINE",
"149 563 LINE"
);
},
{
closed = 1;
nodes = (
"469 574 LINE",
"466 591 LINE",
"384 591 LINE",
"381 573 LINE",
"450 563 LINE"
);
}
);
width = 450;
},
{
color = -1;
layerId = "E259E77F-022A-45EF-A0F1-1168268390B3";
paths = (
{
closed = 1;
nodes = (
"356 0 LINE",
"612 548 LINE",
"481 613 LINE",
"311 141 LINE",
"300 141 LINE",
"299 281 LINE",
"283 613 LINE",
"104 613 LINE",
"155 10 LINE",
"174 -9 LINE"
);
},
{
closed = 1;
nodes = (
"341 533 LINE",
"354 613 LINE",
"67 613 LINE",
"56 541 LINE",
"216 505 LINE"
);
},
{
closed = 1;
nodes = (
"612 548 LINE",
"599 613 LINE",
"400 613 LINE",
"387 533 LINE",
"502 505 LINE"
);
}
);
width = 572;
}
);
leftKerningGroup = V;
rightKerningGroup = V;
unicode = 0056;
},
{
color = 4;
glyphname = W;
layers = (
{
anchors = (
{
name = top;
position = "{449, 603}";
}
);
color = -1;
layerId = "D9712079-C16A-42CB-8BA4-BD9ECFFACF10";
paths = (
{
closed = 1;
nodes = (
"555 6 LINE",
"790 563 LINE",
"721 603 LINE",
"513 65 LINE",
"503 65 LINE",
"502 209 LINE",
"482 603 LINE",
"399 603 LINE",
"429 2 LINE",
"439 -8 LINE"
);
},
{
closed = 1;
nodes = (
"298 6 LINE",
"407 322 LINE",
"430 322 LINE",
"413 511 LINE",
"256 65 LINE",
"246 65 LINE",
"241 209 LINE",
"217 603 LINE",
"124 603 LINE",
"172 2 LINE",
"182 -8 LINE"
);
},
{
closed = 1;
nodes = (
"274 557 LINE",
"282 603 LINE",
"79 603 LINE",
"73 565 LINE",
"177 529 LINE"
);
},
{
closed = 1;
nodes = (
"544 557 LINE",
"552 603 LINE",
"345 603 LINE",
"339 565 LINE",
"443 529 LINE"
);
},
{
closed = 1;
nodes = (
"790 563 LINE",
"788 603 LINE",
"636 603 LINE",
"628 557 LINE",
"730 529 LINE"
);
}
);
width = 768;
},
{
anchors = (
{
name = top;
position = "{427, 591}";
}
);
background = {
paths = (
{
closed = 1;
nodes = (
"435 454 LINE",
"251 12 LINE",
"245 12 LINE",
"231 160 LINE",
"184 591 LINE",
"155 591 LINE",
"223 0 LINE",
"232 -9 LINE",
"269 0 LINE",
"440 408 LINE"
);
},
{
closed = 1;
nodes = (
"174 563 LINE",
"249 570 LINE",
"252 591 LINE",
"97 591 LINE",
"94 573 LINE"
);
},
{
closed = 1;
nodes = (
"470 -9 LINE",
"507 0 LINE",
"748 591 LINE",
"721 591 LINE",
"489 12 LINE",
"483 12 LINE",
"472 160 LINE",
"433 591 LINE",
"401 591 LINE",
"422 366 LINE",
"426 366 LINE",
"461 0 LINE"
);
},
{
closed = 1;
nodes = (
"425 563 LINE",
"500 570 LINE",
"503 591 LINE",
"348 591 LINE",
"345 573 LINE"
);
},
{
closed = 1;
nodes = (
"802 591 LINE",
"651 591 LINE",
"648 570 LINE",
"722 563 LINE",
"799 573 LINE"
);
}
);
};
color = -1;
layerId = "16B79A64-180D-495F-8650-CA27198DF3EF";
paths = (
{
closed = 1;
nodes = (
"489 0 LINE",
"733 574 LINE",
"713 591 LINE",
"470 16 LINE",
"464 16 LINE",
"458 160 LINE",
"434 591 LINE",
"405 591 LINE",
"439 0 LINE",
"448 -9 LINE"
);
},
{
closed = 1;
nodes = (
"222 0 LINE",
"409 457 LINE",
"423 457 LINE",
"417 534 LINE",
"203 16 LINE",
"197 16 LINE",
"190 160 LINE",
"159 591 LINE",
"130 591 LINE",
"173 0 LINE",
"182 -9 LINE"
);
},
{
closed = 1;
nodes = (
"225 573 LINE",
"228 591 LINE",
"72 591 LINE",
"69 576 LINE",
"149 563 LINE"
);
},
{
closed = 1;
nodes = (
"500 573 LINE",
"503 591 LINE",
"347 591 LINE",
"344 576 LINE",
"424 563 LINE"
);
},
{
closed = 1;
nodes = (
"733 574 LINE",
"730 591 LINE",
"648 591 LINE",
"645 573 LINE",
"714 563 LINE"
);
}
);
width = 714;
},
{
anchors = (
{
name = top;
position = "{532, 613}";
}
);
color = -1;
layerId = "E259E77F-022A-45EF-A0F1-1168268390B3";
paths = (
{
closed = 1;
nodes = (
"662 0 LINE",
"923 548 LINE",
"792 613 LINE",
"617 141 LINE",
"606 141 LINE",
"608 281 LINE",
"600 613 LINE",
"428 613 LINE",
"461 10 LINE",
"480 -9 LINE"
);
},
{
closed = 1;
nodes = (
"349 0 LINE",
"440 207 LINE",
"472 207 LINE",
"443 505 LINE",
"304 141 LINE",
"293 141 LINE",
"299 281 LINE",
"283 613 LINE",
"104 613 LINE",
"148 10 LINE",
"167 -9 LINE"
);
},
{
closed = 1;
nodes = (
"337 533 LINE",
"350 613 LINE",
"67 613 LINE",
"56 541 LINE",
"216 505 LINE"
);
},
{
closed = 1;
nodes = (
"654 533 LINE",
"667 613 LINE",
"392 613 LINE",
"381 541 LINE",
"529 505 LINE"
);
},
{
closed = 1;
nodes = (
"923 548 LINE",
"910 613 LINE",
"709 613 LINE",
"696 533 LINE",
"813 505 LINE"
);
}
);
width = 883;
}
);
leftKerningGroup = W;
leftMetricsKey = V;
rightKerningGroup = W;
rightMetricsKey = V;
unicode = 0057;
},
{
color = 4;
glyphname = X;
layers = (
{
color = -1;
layerId = "D9712079-C16A-42CB-8BA4-BD9ECFFACF10";
paths = (
{
closed = 1;
nodes = (
"71 0 LINE",
"260 253 LINE",
"332 319 LINE",
"548 603 LINE",
"460 603 LINE",
"300 369 LINE",
"227 307 LINE",
"-14 0 LINE"
);
},
{
closed = 1;
nodes = (
"174 0 LINE",
"182 46 LINE",
"80 74 LINE",
"-33 38 LINE",
"-39 0 LINE"
);
},
{
closed = 1;
nodes = (
"495 0 LINE",
"501 38 LINE",
"380 74 LINE",
"273 46 LINE",
"265 0 LINE"
);
},
{
closed = 1;
nodes = (
"470 0 LINE",
"332 319 LINE",
"300 369 LINE",
"192 603 LINE",
"98 603 LINE",
"227 307 LINE",
"260 253 LINE",
"368 0 LINE"
);
},
{
closed = 1;
nodes = (
"292 557 LINE",
"300 603 LINE",
"80 603 LINE",
"74 565 LINE",
"178 529 LINE"
);
},
{
closed = 1;
nodes = (
"567 565 LINE",
"573 603 LINE",
"361 603 LINE",
"353 557 LINE",
"455 529 LINE"
);
}
);
width = 510;
},
{
background = {
components = (
{
name = H;
transform = "{1, 0, 0, 1, 851, 0}";
},
{
name = H;
transform = "{1, 0, 0, 1, -54, 0}";
}
);
paths = (
{
closed = 1;
nodes = (
"328 363 OFFCURVE",
"334 369 OFFCURVE",
"334 377 CURVE SMOOTH",
"334 385 OFFCURVE",
"328 391 OFFCURVE",
"320 391 CURVE SMOOTH",
"312 391 OFFCURVE",
"306 385 OFFCURVE",
"306 377 CURVE SMOOTH",
"306 369 OFFCURVE",
"312 363 OFFCURVE",
"320 363 CURVE"
);
},
{
closed = 1;
nodes = (
"476 563 OFFCURVE",
"482 569 OFFCURVE",
"482 577 CURVE SMOOTH",
"482 585 OFFCURVE",
"476 591 OFFCURVE",
"468 591 CURVE SMOOTH",
"460 591 OFFCURVE",
"454 585 OFFCURVE",
"454 577 CURVE SMOOTH",
"454 569 OFFCURVE",
"460 563 OFFCURVE",
"468 563 CURVE"
);
},
{
closed = 1;
nodes = (
"245 363 OFFCURVE",
"251 369 OFFCURVE",
"251 377 CURVE SMOOTH",
"251 385 OFFCURVE",
"245 391 OFFCURVE",
"237 391 CURVE SMOOTH",
"229 391 OFFCURVE",
"223 385 OFFCURVE",
"223 377 CURVE SMOOTH",
"223 369 OFFCURVE",
"229 363 OFFCURVE",
"237 363 CURVE"
);
},
{
closed = 1;
nodes = (
"163 563 OFFCURVE",
"169 569 OFFCURVE",
"169 577 CURVE SMOOTH",
"169 585 OFFCURVE",
"163 591 OFFCURVE",
"155 591 CURVE SMOOTH",
"147 591 OFFCURVE",
"141 585 OFFCURVE",
"141 577 CURVE SMOOTH",
"141 569 OFFCURVE",
"147 563 OFFCURVE",
"155 563 CURVE"
);
},
{
closed = 1;
nodes = (
"306 231 OFFCURVE",
"312 237 OFFCURVE",
"312 245 CURVE SMOOTH",
"312 253 OFFCURVE",
"306 259 OFFCURVE",
"298 259 CURVE SMOOTH",
"290 259 OFFCURVE",
"284 253 OFFCURVE",
"284 245 CURVE SMOOTH",
"284 237 OFFCURVE",
"290 231 OFFCURVE",
"298 231 CURVE"
);
},
{
closed = 1;
nodes = (
"401 0 OFFCURVE",
"407 6 OFFCURVE",
"407 14 CURVE SMOOTH",
"407 22 OFFCURVE",
"401 28 OFFCURVE",
"393 28 CURVE SMOOTH",
"385 28 OFFCURVE",
"379 22 OFFCURVE",
"379 14 CURVE SMOOTH",
"379 6 OFFCURVE",
"385 0 OFFCURVE",
"393 0 CURVE"
);
},
{
closed = 1;
nodes = (
"48 0 OFFCURVE",
"54 6 OFFCURVE",
"54 14 CURVE SMOOTH",
"54 22 OFFCURVE",
"48 28 OFFCURVE",
"40 28 CURVE SMOOTH",
"32 28 OFFCURVE",
"26 22 OFFCURVE",
"26 14 CURVE SMOOTH",
"26 6 OFFCURVE",
"32 0 OFFCURVE",
"40 0 CURVE"
);
},
{
closed = 1;
nodes = (
"213 220 OFFCURVE",
"219 226 OFFCURVE",
"219 234 CURVE SMOOTH",
"219 242 OFFCURVE",
"213 248 OFFCURVE",
"205 248 CURVE SMOOTH",
"197 248 OFFCURVE",
"191 242 OFFCURVE",
"191 234 CURVE SMOOTH",
"191 226 OFFCURVE",
"197 220 OFFCURVE",
"205 220 CURVE"
);
}
);
};
color = -1;
layerId = "16B79A64-180D-495F-8650-CA27198DF3EF";
paths = (
{
closed = 1;
nodes = (
"25 0 LINE",
"232 291 LINE",
"250 305 LINE",
"452 591 LINE",
"422 591 LINE",
"237 323 LINE",
"221 315 LINE",
"-7 0 LINE"
);
},
{
closed = 1;
nodes = (
"100 0 LINE",
"103 18 LINE",
"29 28 LINE",
"-49 15 LINE",
"-52 0 LINE"
);
},
{
closed = 1;
nodes = (
"425 0 LINE",
"428 15 LINE",
"345 28 LINE",
"266 18 LINE",
"263 0 LINE"
);
},
{
closed = 1;
nodes = (
"374 0 LINE",
"250 313 LINE",
"244 323 LINE",
"144 591 LINE",
"113 591 LINE",
"220 305 LINE",
"227 296 LINE",
"342 0 LINE"
);
},
{
closed = 1;
nodes = (
"217 573 LINE",
"220 591 LINE",
"60 591 LINE",
"57 576 LINE",
"139 563 LINE"
);
},
{
closed = 1;
nodes = (
"492 576 LINE",
"495 591 LINE",
"343 591 LINE",
"340 573 LINE",
"414 563 LINE"
);
}
);
width = 429;
},
{
background = {
paths = (
{
closed = 1;
nodes = (
"465 336 LINE",
"404 379 LINE",
"308 613 LINE",
"96 613 LINE",
"253 302 LINE",
"312 255 LINE",
"414 0 LINE",
"630 0 LINE"
);
},
{
closed = 1;
nodes = (
"461 319 LINE",
"710 613 LINE",
"532 613 LINE",
"389 382 LINE",
"246 325 LINE",
"-21 0 LINE",
"152 0 LINE",
"322 253 LINE"
);
},
{
closed = 1;
nodes = (
"240 505 LINE",
"382 533 LINE",
"395 613 LINE",
"96 613 LINE",
"85 541 LINE"
);
},
{
closed = 1;
nodes = (
"711 541 LINE",
"722 613 LINE",
"423 613 LINE",
"410 533 LINE",
"540 505 LINE"
);
},
{
closed = 1;
nodes = (
"-10 72 LINE",
"-21 0 LINE",
"268 0 LINE",
"281 80 LINE",
"161 108 LINE"
);
},
{
closed = 1;
nodes = (
"471 108 LINE",
"324 80 LINE",
"311 0 LINE",
"630 0 LINE",
"641 72 LINE"
);
}
);
};
color = -1;
layerId = "E259E77F-022A-45EF-A0F1-1168268390B3";
paths = (
{
closed = 1;
nodes = (
"121 0 LINE",
"291 253 LINE",
"430 319 LINE",
"679 613 LINE",
"501 613 LINE",
"358 382 LINE",
"215 325 LINE",
"-52 0 LINE"
);
},
{
closed = 1;
nodes = (
"237 0 LINE",
"250 80 LINE",
"130 108 LINE",
"-41 72 LINE",
"-52 0 LINE"
);
},
{
closed = 1;
nodes = (
"599 0 LINE",
"610 72 LINE",
"440 108 LINE",
"293 80 LINE",
"280 0 LINE"
);
},
{
closed = 1;
nodes = (
"594 0 LINE",
"429 336 LINE",
"368 379 LINE",
"272 613 LINE",
"70 613 LINE",
"227 302 LINE",
"286 255 LINE",
"388 0 LINE"
);
},
{
closed = 1;
nodes = (
"351 533 LINE",
"364 613 LINE",
"65 613 LINE",
"54 541 LINE",
"209 505 LINE"
);
},
{
closed = 1;
nodes = (
"680 541 LINE",
"691 613 LINE",
"392 613 LINE",
"379 533 LINE",
"509 505 LINE"
);
}
);
width = 615;
}
);
leftKerningGroup = X;
rightKerningGroup = X;
unicode = 0058;
},
{
color = 4;
glyphname = Y;
layers = (
{
anchors = (
{
name = bottom;
position = "{215, 0}";
},
{
name = top;
position = "{293, 603}";
}
);
background = {
paths = (
{
closed = 1;
nodes = (
"323 227 LINE",
"293 58 LINE",
"355 38 LINE",
"348 0 LINE",
"125 0 LINE",
"132 38 LINE",
"200 58 LINE",
"229 224 LINE",
"127 545 LINE",
"68 565 LINE",
"75 603 LINE",
"304 603 LINE",
"296 557 LINE",
"227 540 LINE",
"293 315 LINE",
"302 315 LINE",
"443 540 LINE",
"377 557 LINE",
"385 603 LINE",
"606 603 LINE",
"599 565 LINE",
"534 545 LINE"
);
}
);
};
color = -1;
layerId = "D9712079-C16A-42CB-8BA4-BD9ECFFACF10";
paths = (
{
closed = 1;
nodes = (
"249 0 LINE",
"289 241 LINE",
"493 563 LINE",
"430 603 LINE",
"266 314 LINE",
"258 314 LINE",
"170 603 LINE",
"76 603 LINE",
"198 231 LINE",
"159 0 LINE"
);
},
{
closed = 1;
nodes = (
"320 0 LINE",
"328 46 LINE",
"216 74 LINE",
"93 38 LINE",
"87 0 LINE"
);
},
{
closed = 1;
nodes = (
"239 557 LINE",
"247 603 LINE",
"45 603 LINE",
"39 565 LINE",
"143 529 LINE"
);
},
{
closed = 1;
nodes = (
"493 563 LINE",
"491 603 LINE",
"338 603 LINE",
"330 557 LINE",
"449 534 LINE"
);
}
);
width = 462;
},
{
anchors = (
{
name = bottom;
position = "{183, 0}";
},
{
name = top;
position = "{266, 591}";
}
);
background = {
paths = (
{
closed = 1;
nodes = (
"147 563 OFFCURVE",
"153 569 OFFCURVE",
"153 577 CURVE SMOOTH",
"153 585 OFFCURVE",
"147 591 OFFCURVE",
"139 591 CURVE SMOOTH",
"131 591 OFFCURVE",
"125 585 OFFCURVE",
"125 577 CURVE SMOOTH",
"125 569 OFFCURVE",
"131 563 OFFCURVE",
"139 563 CURVE"
);
},
{
closed = 1;
nodes = (
"232 313 OFFCURVE",
"238 319 OFFCURVE",
"238 327 CURVE SMOOTH",
"238 335 OFFCURVE",
"232 341 OFFCURVE",
"224 341 CURVE SMOOTH",
"216 341 OFFCURVE",
"210 335 OFFCURVE",
"210 327 CURVE SMOOTH",
"210 319 OFFCURVE",
"216 313 OFFCURVE",
"224 313 CURVE"
);
},
{
closed = 1;
nodes = (
"310 303 OFFCURVE",
"316 309 OFFCURVE",
"316 317 CURVE SMOOTH",
"316 325 OFFCURVE",
"310 331 OFFCURVE",
"302 331 CURVE SMOOTH",
"294 331 OFFCURVE",
"288 325 OFFCURVE",
"288 317 CURVE SMOOTH",
"288 309 OFFCURVE",
"294 303 OFFCURVE",
"302 303 CURVE"
);
},
{
closed = 1;
nodes = (
"466 563 OFFCURVE",
"472 569 OFFCURVE",
"472 577 CURVE SMOOTH",
"472 585 OFFCURVE",
"466 591 OFFCURVE",
"458 591 CURVE SMOOTH",
"450 591 OFFCURVE",
"444 585 OFFCURVE",
"444 577 CURVE SMOOTH",
"444 569 OFFCURVE",
"450 563 OFFCURVE",
"458 563 CURVE"
);
},
{
closed = 1;
nodes = (
"485 566 LINE",
"542 571 LINE",
"545 591 LINE",
"397 591 LINE",
"394 571 LINE",
"453 564 LINE",
"263 273 LINE",
"256 273 LINE",
"168 564 LINE",
"229 571 LINE",
"232 591 LINE",
"84 591 LINE",
"81 571 LINE",
"136 566 LINE",
"237 239 LINE",
"199 25 LINE",
"141 20 LINE",
"138 0 LINE",
"282 0 LINE",
"285 20 LINE",
"229 25 LINE",
"267 239 LINE"
);
}
);
};
color = -1;
layerId = "16B79A64-180D-495F-8650-CA27198DF3EF";
paths = (
{
closed = 1;
nodes = (
"187 0 LINE",
"231 244 LINE",
"438 573 LINE",
"419 591 LINE",
"225 275 LINE",
"220 275 LINE",
"124 591 LINE",
"94 591 LINE",
"202 239 LINE",
"159 0 LINE"
);
},
{
closed = 1;
nodes = (
"265 0 LINE",
"268 18 LINE",
"182 28 LINE",
"91 15 LINE",
"88 0 LINE"
);
},
{
closed = 1;
nodes = (
"193 573 LINE",
"196 591 LINE",
"52 591 LINE",
"49 576 LINE",
"117 563 LINE"
);
},
{
closed = 1;
nodes = (
"438 573 LINE",
"437 591 LINE",
"342 591 LINE",
"339 573 LINE",
"413 563 LINE"
);
}
);
width = 411;
},
{
anchors = (
{
name = bottom;
position = "{264, 0}";
},
{
name = top;
position = "{360, 613}";
}
);
background = {
paths = (
{
closed = 1;
nodes = (
"132 72 LINE",
"119 0 LINE",
"440 0 LINE",
"453 72 LINE",
"392 97 LINE",
"418 245 LINE",
"468 314 OFFCURVE",
"587 480 OFFCURVE",
"612 520 CURVE",
"677 540 LINE",
"690 612 LINE",
"431 612 LINE",
"417 532 LINE",
"465 515 LINE",
"441 472 OFFCURVE",
"386 378 OFFCURVE",
"368 351 CURVE",
"358 351 LINE",
"358 351 OFFCURVE",
"346 406 OFFCURVE",
"320 515 CURVE",
"373 532 LINE",
"387 612 LINE",
"85 612 LINE",
"72 540 LINE",
"131 520 LINE",
"227 243 LINE",
"201 97 LINE"
);
}
);
};
color = -1;
layerId = "E259E77F-022A-45EF-A0F1-1168268390B3";
paths = (
{
closed = 1;
nodes = (
"343 0 LINE",
"387 251 LINE",
"589 548 LINE",
"481 613 LINE",
"337 350 LINE",
"327 350 LINE",
"271 613 LINE",
"81 613 LINE",
"201 243 LINE",
"160 0 LINE"
);
},
{
closed = 1;
nodes = (
"421 0 LINE",
"434 80 LINE",
"284 108 LINE",
"93 72 LINE",
"82 0 LINE"
);
},
{
closed = 1;
nodes = (
"333 533 LINE",
"346 613 LINE",
"47 613 LINE",
"36 541 LINE",
"186 505 LINE"
);
},
{
closed = 1;
nodes = (
"589 548 LINE",
"575 613 LINE",
"388 613 LINE",
"375 533 LINE",
"511 505 LINE"
);
}
);
width = 551;
}
);
leftKerningGroup = Y;
rightKerningGroup = Y;
unicode = 0059;
},
{
color = 4;
glyphname = Z;
layers = (
{
anchors = (
{
name = bottom;
position = "{197, 0}";
},
{
name = top;
position = "{298, 603}";
}
);
layerId = "D9712079-C16A-42CB-8BA4-BD9ECFFACF10";
paths = (
{
closed = 1;
nodes = (
"69 0 LINE",
"483 565 LINE",
"490 603 LINE",
"410 603 LINE",
"6 50 LINE",
"-2 0 LINE"
);
},
{
closed = 1;
nodes = (
"410 0 LINE",
"410 58 LINE",
"63 74 LINE",
"6 50 LINE",
"-2 0 LINE"
);
},
{
closed = 1;
nodes = (
"410 0 LINE",
"430 184 LINE",
"379 184 LINE",
"330 0 LINE"
);
},
{
closed = 1;
nodes = (
"138 428 LINE",
"180 603 LINE",
"103 603 LINE",
"85 428 LINE"
);
},
{
closed = 1;
nodes = (
"483 565 LINE",
"490 603 LINE",
"103 603 LINE",
"103 547 LINE",
"411 533 LINE"
);
}
);
width = 471;
},
{
anchors = (
{
name = bottom;
position = "{157, 0}";
},
{
name = top;
position = "{250, 591}";
}
);
background = {
paths = (
{
closed = 1;
nodes = (
"462 571 LINE",
"466 591 LINE",
"129 591 LINE",
"132 570 LINE",
"427 563 LINE"
);
},
{
closed = 1;
nodes = (
"29 0 LINE",
"48 0 LINE",
"462 571 LINE",
"466 591 LINE",
"439 591 LINE",
"34 26 LINE"
);
},
{
closed = 1;
nodes = (
"34 26 LINE",
"29 0 LINE",
"379 0 LINE",
"375 23 LINE",
"64 31 LINE"
);
},
{
closed = 1;
nodes = (
"129 591 LINE",
"117 460 LINE",
"135 460 LINE",
"162 591 LINE"
);
},
{
closed = 1;
nodes = (
"379 0 LINE",
"395 137 LINE",
"377 137 LINE",
"346 0 LINE"
);
}
);
};
layerId = "16B79A64-180D-495F-8650-CA27198DF3EF";
paths = (
{
closed = 1;
nodes = (
"4 0 LINE",
"421 571 LINE",
"425 591 LINE",
"403 591 LINE",
"-7 26 LINE",
"-12 0 LINE"
);
},
{
closed = 1;
nodes = (
"338 0 LINE",
"334 23 LINE",
"23 27 LINE",
"-7 26 LINE",
"-12 0 LINE"
);
},
{
closed = 1;
nodes = (
"338 0 LINE",
"354 137 LINE",
"336 137 LINE",
"305 0 LINE"
);
},
{
closed = 1;
nodes = (
"94 460 LINE",
"121 591 LINE",
"88 591 LINE",
"76 460 LINE"
);
},
{
closed = 1;
nodes = (
"421 571 LINE",
"425 591 LINE",
"88 591 LINE",
"91 570 LINE",
"386 565 LINE"
);
}
);
width = 392;
},
{
anchors = (
{
name = bottom;
position = "{219, 0}";
},
{
name = top;
position = "{313, 613}";
}
);
layerId = "E259E77F-022A-45EF-A0F1-1168268390B3";
paths = (
{
closed = 1;
nodes = (
"146 0 LINE",
"552 545 LINE",
"567 613 LINE",
"397 613 LINE",
"-3 80 LINE",
"-15 0 LINE"
);
},
{
closed = 1;
nodes = (
"475 0 LINE",
"479 83 LINE",
"54 119 LINE",
"-3 80 LINE",
"-15 0 LINE"
);
},
{
closed = 1;
nodes = (
"478 0 LINE",
"508 243 LINE",
"420 243 LINE",
"360 0 LINE"
);
},
{
closed = 1;
nodes = (
"138 373 LINE",
"188 613 LINE",
"72 613 LINE",
"45 373 LINE"
);
},
{
closed = 1;
nodes = (
"552 545 LINE",
"567 613 LINE",
"72 613 LINE",
"64 532 LINE",
"480 498 LINE"
);
}
);
width = 520;
}
);
leftKerningGroup = Z;
rightKerningGroup = Z;
unicode = 005A;
},
{
color = 4;
glyphname = M.alt;
layers = (
{
layerId = "16B79A64-180D-495F-8650-CA27198DF3EF";
paths = (
{
closed = 1;
nodes = (
"163 0 LINE",
"166 21 LINE",
"102 27 LINE",
"188 520 LINE",
"243 540 OFFCURVE",
"325 572 OFFCURVE",
"367 572 CURVE SMOOTH",
"422 572 OFFCURVE",
"430 544 OFFCURVE",
"418 473 CURVE SMOOTH",
"341 26 LINE",
"281 18 LINE",
"278 0 LINE",
"430 0 LINE",
"433 21 LINE",
"369 27 LINE",
"455 520 LINE",
"516 539 OFFCURVE",
"595 572 OFFCURVE",
"639 572 CURVE SMOOTH",
"679 572 OFFCURVE",
"697 544 OFFCURVE",
"685 473 CURVE SMOOTH",
"608 27 LINE",
"543 21 LINE",
"540 0 LINE",
"692 0 LINE",
"695 18 LINE",
"635 25 LINE",
"712 465 LINE SMOOTH",
"729 562 OFFCURVE",
"707 601 OFFCURVE",
"637 601 CURVE SMOOTH",
"602 601 OFFCURVE",
"491 556 OFFCURVE",
"455 544 CURVE",
"449 582 OFFCURVE",
"417 601 OFFCURVE",
"365 601 CURVE SMOOTH",
"334 601 OFFCURVE",
"224 557 OFFCURVE",
"192 546 CURVE",
"194 591 LINE",
"111 591 LINE",
"108 573 LINE",
"168 566 LINE",
"73 25 LINE",
"14 18 LINE",
"11 0 LINE"
);
}
);
width = 756;
},
{
layerId = "D9712079-C16A-42CB-8BA4-BD9ECFFACF10";
paths = (
{
closed = 1;
nodes = (
"217 0 LINE",
"225 46 LINE",
"164 63 LINE",
"239 495 LINE",
"281 508 OFFCURVE",
"350 530 OFFCURVE",
"373 530 CURVE SMOOTH",
"399 530 OFFCURVE",
"416 513 OFFCURVE",
"402 434 CURVE SMOOTH",
"336 58 LINE",
"274 38 LINE",
"268 0 LINE",
"481 0 LINE",
"489 46 LINE",
"428 63 LINE",
"503 495 LINE",
"545 508 OFFCURVE",
"614 530 OFFCURVE",
"643 530 CURVE SMOOTH",
"663 530 OFFCURVE",
"681 514 OFFCURVE",
"667 435 CURVE SMOOTH",
"603 63 LINE",
"539 46 LINE",
"531 0 LINE",
"744 0 LINE",
"750 38 LINE",
"693 58 LINE",
"758 431 LINE SMOOTH",
"783 574 OFFCURVE",
"729 611 OFFCURVE",
"642 611 CURVE SMOOTH",
"636 611 OFFCURVE",
"555 570 OFFCURVE",
"500 544 CURVE",
"485 582 OFFCURVE",
"453 611 OFFCURVE",
"378 611 CURVE SMOOTH",
"374 611 OFFCURVE",
"303 572 OFFCURVE",
"248 544 CURVE",
"237 603 LINE",
"105 603 LINE",
"99 565 LINE",
"157 545 LINE",
"72 58 LINE",
"10 38 LINE",
"4 0 LINE"
);
}
);
width = 813;
},
{
layerId = "E259E77F-022A-45EF-A0F1-1168268390B3";
paths = (
{
closed = 1;
nodes = (
"269 0 LINE",
"282 80 LINE",
"231 92 LINE",
"292 451 LINE",
"323 460 OFFCURVE",
"364 470 OFFCURVE",
"385 470 CURVE SMOOTH",
"422 470 OFFCURVE",
"442 459 OFFCURVE",
"427 372 CURVE SMOOTH",
"379 92 LINE",
"325 80 LINE",
"312 0 LINE",
"601 0 LINE",
"612 72 LINE",
"559 85 LINE",
"622 451 LINE",
"653 460 OFFCURVE",
"686 470 OFFCURVE",
"707 470 CURVE SMOOTH",
"744 470 OFFCURVE",
"763 459 OFFCURVE",
"748 372 CURVE SMOOTH",
"701 92 LINE",
"648 80 LINE",
"634 0 LINE",
"928 0 LINE",
"939 72 LINE",
"882 85 LINE",
"939 419 LINE SMOOTH",
"963 558 OFFCURVE",
"930 625 OFFCURVE",
"760 625 CURVE SMOOTH",
"752 625 OFFCURVE",
"650 572 OFFCURVE",
"612 551 CURVE",
"593 601 OFFCURVE",
"544 625 OFFCURVE",
"454 625 CURVE SMOOTH",
"446 625 OFFCURVE",
"345 572 OFFCURVE",
"307 551 CURVE",
"295 613 LINE",
"77 613 LINE",
"66 541 LINE",
"124 528 LINE",
"47 85 LINE",
"-14 72 LINE",
"-26 0 LINE"
);
}
);
width = 969;
}
);
leftKerningGroup = H;
leftMetricsKey = H;
rightKerningGroup = N.alt;
},
{
color = 4;
glyphname = N.alt;
layers = (
{
anchors = (
{
name = bottom;
position = "{233, 0}";
},
{
name = top;
position = "{327, 591}";
}
);
layerId = "16B79A64-180D-495F-8650-CA27198DF3EF";
paths = (
{
closed = 1;
nodes = (
"163 0 LINE",
"166 21 LINE",
"102 27 LINE",
"188 520 LINE",
"249 540 OFFCURVE",
"339 572 OFFCURVE",
"386 572 CURVE SMOOTH",
"438 572 OFFCURVE",
"460 541 OFFCURVE",
"446 463 CURVE SMOOTH",
"370 27 LINE",
"305 21 LINE",
"302 0 LINE",
"454 0 LINE",
"457 18 LINE",
"397 25 LINE",
"472 455 LINE SMOOTH",
"490 559 OFFCURVE",
"465 601 OFFCURVE",
"384 601 CURVE SMOOTH",
"349 601 OFFCURVE",
"227 556 OFFCURVE",
"193 546 CURVE",
"193 591 LINE",
"111 591 LINE",
"108 573 LINE",
"168 566 LINE",
"73 25 LINE",
"14 18 LINE",
"11 0 LINE"
);
}
);
width = 518;
},
{
anchors = (
{
name = bottom;
position = "{262, 0}";
},
{
name = top;
position = "{357, 603}";
}
);
layerId = "D9712079-C16A-42CB-8BA4-BD9ECFFACF10";
paths = (
{
closed = 1;
nodes = (
"216 0 LINE",
"224 46 LINE",
"163 63 LINE",
"238 495 LINE",
"282 506 OFFCURVE",
"380 530 OFFCURVE",
"406 530 CURVE SMOOTH",
"435 530 OFFCURVE",
"458 517 OFFCURVE",
"440 412 CURVE SMOOTH",
"379 63 LINE",
"315 46 LINE",
"307 0 LINE",
"521 0 LINE",
"526 38 LINE",
"469 58 LINE",
"535 433 LINE SMOOTH",
"554 543 OFFCURVE",
"517 611 OFFCURVE",
"420 611 CURVE SMOOTH",
"408 611 OFFCURVE",
"302 567 OFFCURVE",
"247 544 CURVE",
"236 603 LINE",
"105 603 LINE",
"99 565 LINE",
"156 545 LINE",
"71 58 LINE",
"9 38 LINE",
"3 0 LINE"
);
}
);
width = 590;
},
{
anchors = (
{
name = bottom;
position = "{290, 0}";
},
{
name = top;
position = "{384, 613}";
}
);
layerId = "E259E77F-022A-45EF-A0F1-1168268390B3";
paths = (
{
closed = 1;
nodes = (
"274 0 LINE",
"287 80 LINE",
"230 92 LINE",
"292 451 LINE",
"325 460 OFFCURVE",
"362 470 OFFCURVE",
"386 470 CURVE SMOOTH",
"423 470 OFFCURVE",
"443 462 OFFCURVE",
"428 378 CURVE SMOOTH",
"378 92 LINE",
"320 80 LINE",
"307 0 LINE",
"605 0 LINE",
"618 72 LINE",
"560 85 LINE",
"615 407 LINE SMOOTH",
"640 555 OFFCURVE",
"619 625 OFFCURVE",
"465 625 CURVE SMOOTH",
"456 625 OFFCURVE",
"350 572 OFFCURVE",
"308 551 CURVE",
"296 613 LINE",
"77 613 LINE",
"66 541 LINE",
"123 528 LINE",
"48 85 LINE",
"-14 72 LINE",
"-25 0 LINE"
);
}
);
width = 646;
}
);
leftKerningGroup = H;
leftMetricsKey = H;
rightKerningGroup = N.alt;
rightMetricsKey = M.alt;
},
{
color = 4;
glyphname = Eng.alt;
layers = (
{
color = -1;
layerId = "16B79A64-180D-495F-8650-CA27198DF3EF";
paths = (
{
closed = 1;
nodes = (
"342 -129 OFFCURVE",
"379 -72 OFFCURVE",
"393 6 CURVE SMOOTH",
"472 455 LINE SMOOTH",
"490 559 OFFCURVE",
"465 601 OFFCURVE",
"384 601 CURVE SMOOTH",
"349 601 OFFCURVE",
"227 556 OFFCURVE",
"193 546 CURVE",
"193 591 LINE",
"111 591 LINE",
"108 573 LINE",
"168 566 LINE",
"73 25 LINE",
"14 18 LINE",
"11 0 LINE",
"163 0 LINE",
"166 21 LINE",
"102 27 LINE",
"188 520 LINE",
"249 540 OFFCURVE",
"339 572 OFFCURVE",
"386 572 CURVE SMOOTH",
"438 572 OFFCURVE",
"459 541 OFFCURVE",
"446 463 CURVE SMOOTH",
"361 -28 OFFCURVE",
"354 -94 OFFCURVE",
"318 -101 CURVE SMOOTH",
"303 -104 OFFCURVE",
"251 -103 OFFCURVE",
"225 -103 CURVE",
"222 -120 LINE",
"247 -124 OFFCURVE",
"304 -129 OFFCURVE",
"310 -129 CURVE SMOOTH"
);
}
);
width = 521;
},
{
color = -1;
layerId = "D9712079-C16A-42CB-8BA4-BD9ECFFACF10";
paths = (
{
closed = 1;
nodes = (
"346 -153 OFFCURVE",
"449 -55 OFFCURVE",
"460 7 CURVE SMOOTH",
"535 433 LINE SMOOTH",
"554 543 OFFCURVE",
"517 611 OFFCURVE",
"420 611 CURVE SMOOTH",
"408 611 OFFCURVE",
"302 567 OFFCURVE",
"247 544 CURVE",
"236 603 LINE",
"105 603 LINE",
"99 565 LINE",
"156 545 LINE",
"71 58 LINE",
"9 38 LINE",
"3 0 LINE",
"216 0 LINE",
"224 46 LINE",
"163 63 LINE",
"238 495 LINE",
"282 506 OFFCURVE",
"380 530 OFFCURVE",
"406 530 CURVE SMOOTH",
"435 530 OFFCURVE",
"458 517 OFFCURVE",
"440 412 CURVE SMOOTH",
"362 -34 OFFCURVE",
"360 -72 OFFCURVE",
"324 -79 CURVE SMOOTH",
"309 -82 OFFCURVE",
"252 -82 OFFCURVE",
"226 -82 CURVE",
"211 -129 LINE",
"244 -138 OFFCURVE",
"301 -153 OFFCURVE",
"316 -153 CURVE SMOOTH"
);
}
);
width = 578;
},
{
layerId = "E259E77F-022A-45EF-A0F1-1168268390B3";
paths = (
{
closed = 1;
nodes = (
"427 -184 OFFCURVE",
"537 -53 OFFCURVE",
"548 14 CURVE SMOOTH",
"615 407 LINE SMOOTH",
"640 555 OFFCURVE",
"619 625 OFFCURVE",
"465 625 CURVE SMOOTH",
"456 625 OFFCURVE",
"350 572 OFFCURVE",
"308 551 CURVE",
"296 613 LINE",
"77 613 LINE",
"66 541 LINE",
"123 528 LINE",
"48 85 LINE",
"-14 72 LINE",
"-25 0 LINE",
"274 0 LINE",
"287 80 LINE",
"230 92 LINE",
"292 451 LINE",
"325 460 OFFCURVE",
"362 470 OFFCURVE",
"386 470 CURVE SMOOTH",
"423 470 OFFCURVE",
"443 462 OFFCURVE",
"428 378 CURVE SMOOTH",
"359 -20 OFFCURVE",
"352 -65 OFFCURVE",
"332 -70 CURVE SMOOTH",
"317 -74 OFFCURVE",
"240 -73 OFFCURVE",
"214 -73 CURVE",
"196 -151 LINE",
"237 -162 OFFCURVE",
"357 -184 OFFCURVE",
"392 -184 CURVE SMOOTH"
);
}
);
width = 636;
}
);
leftKerningGroup = H;
leftMetricsKey = H;
rightKerningGroup = J;
},
{
color = 4;
glyphname = Nhookleft.alt;
layers = (
{
color = -1;
layerId = "16B79A64-180D-495F-8650-CA27198DF3EF";
paths = (
{
closed = 1;
nodes = (
"42 -129 OFFCURVE",
"86 -69 OFFCURVE",
"96 -13 CURVE SMOOTH",
"189 520 LINE",
"250 540 OFFCURVE",
"340 572 OFFCURVE",
"387 572 CURVE SMOOTH",
"439 572 OFFCURVE",
"461 541 OFFCURVE",
"447 463 CURVE SMOOTH",
"371 27 LINE",
"306 21 LINE",
"303 0 LINE",
"455 0 LINE",
"458 18 LINE",
"398 25 LINE",
"473 455 LINE SMOOTH",
"491 559 OFFCURVE",
"466 601 OFFCURVE",
"385 601 CURVE SMOOTH",
"350 601 OFFCURVE",
"228 556 OFFCURVE",
"194 546 CURVE",
"194 591 LINE",
"112 591 LINE",
"109 573 LINE",
"169 566 LINE",
"67 -9 LINE SMOOTH",
"58 -59 OFFCURVE",
"37 -98 OFFCURVE",
"21 -101 CURVE SMOOTH",
"6 -104 OFFCURVE",
"-46 -103 OFFCURVE",
"-72 -103 CURVE",
"-75 -120 LINE",
"-50 -124 OFFCURVE",
"6 -129 OFFCURVE",
"12 -129 CURVE SMOOTH"
);
}
);
width = 529;
},
{
color = -1;
layerId = "D9712079-C16A-42CB-8BA4-BD9ECFFACF10";
paths = (
{
closed = 1;
nodes = (
"24 -153 OFFCURVE",
"137 -54 OFFCURVE",
"148 8 CURVE SMOOTH",
"234 495 LINE",
"278 506 OFFCURVE",
"376 530 OFFCURVE",
"402 530 CURVE SMOOTH",
"431 530 OFFCURVE",
"454 517 OFFCURVE",
"436 412 CURVE SMOOTH",
"375 63 LINE",
"311 46 LINE",
"303 0 LINE",
"517 0 LINE",
"522 38 LINE",
"465 58 LINE",
"531 433 LINE SMOOTH",
"550 543 OFFCURVE",
"513 611 OFFCURVE",
"416 611 CURVE SMOOTH",
"404 611 OFFCURVE",
"298 567 OFFCURVE",
"243 544 CURVE",
"232 603 LINE",
"101 603 LINE",
"95 565 LINE",
"152 545 LINE",
"65 40 LINE SMOOTH",
"59 5 OFFCURVE",
"44 -73 OFFCURVE",
"14 -79 CURVE SMOOTH",
"-1 -82 OFFCURVE",
"-56 -82 OFFCURVE",
"-82 -82 CURVE",
"-97 -129 LINE",
"-64 -138 OFFCURVE",
"-21 -153 OFFCURVE",
"-6 -153 CURVE SMOOTH"
);
}
);
width = 581;
},
{
layerId = "E259E77F-022A-45EF-A0F1-1168268390B3";
paths = (
{
closed = 1;
nodes = (
"81 -184 OFFCURVE",
"197 -54 OFFCURVE",
"209 13 CURVE SMOOTH",
"285 451 LINE",
"318 460 OFFCURVE",
"355 470 OFFCURVE",
"379 470 CURVE SMOOTH",
"416 470 OFFCURVE",
"436 462 OFFCURVE",
"421 378 CURVE SMOOTH",
"371 92 LINE",
"313 80 LINE",
"300 0 LINE",
"598 0 LINE",
"611 72 LINE",
"553 85 LINE",
"608 407 LINE SMOOTH",
"633 555 OFFCURVE",
"612 625 OFFCURVE",
"458 625 CURVE SMOOTH",
"449 625 OFFCURVE",
"343 572 OFFCURVE",
"301 551 CURVE",
"289 613 LINE",
"70 613 LINE",
"59 541 LINE",
"116 528 LINE",
"35 49 LINE SMOOTH",
"29 14 OFFCURVE",
"14 -65 OFFCURVE",
"-6 -70 CURVE SMOOTH",
"-21 -74 OFFCURVE",
"-98 -73 OFFCURVE",
"-124 -73 CURVE",
"-142 -151 LINE",
"-101 -162 OFFCURVE",
"11 -184 OFFCURVE",
"46 -184 CURVE SMOOTH"
);
}
);
width = 641;
}
);
leftKerningGroup = J;
rightKerningGroup = N.alt;
},
{
color = 4;
glyphname = a;
layers = (
{
anchors = (
{
name = bottom;
position = "{193, 0}";
},
{
name = ogonek;
position = "{371, 22}";
},
{
name = top;
position = "{255, 448}";
}
);
background = {
paths = (
{
closed = 1;
nodes = (
"206 -9 OFFCURVE",
"266 100 OFFCURVE",
"306 170 CURVE",
"320 170 LINE",
"337 268 LINE",
"283 186 OFFCURVE",
"204 65 OFFCURVE",
"193 65 CURVE SMOOTH",
"177 65 OFFCURVE",
"161 91 OFFCURVE",
"161 147 CURVE SMOOTH",
"161 282 OFFCURVE",
"205 394 OFFCURVE",
"242 404 CURVE SMOOTH",
"257 408 OFFCURVE",
"315 395 OFFCURVE",
"357 377 CURVE",
"444 435 LINE",
"412 442 OFFCURVE",
"300 457 OFFCURVE",
"283 457 CURVE SMOOTH",
"261 457 OFFCURVE",
"143 386 OFFCURVE",
"119 358 CURVE",
"94 315 OFFCURVE",
"69 226 OFFCURVE",
"69 141 CURVE SMOOTH",
"69 50 OFFCURVE",
"106 -9 OFFCURVE",
"199 -9 CURVE SMOOTH"
);
},
{
closed = 1;
nodes = (
"322 -9 OFFCURVE",
"418 22 OFFCURVE",
"418 22 CURVE",
"423 52 LINE",
"378 63 LINE",
"444 435 LINE",
"357 435 LINE",
"318 207 LINE",
"288 22 LINE",
"288 15 OFFCURVE",
"311 -9 OFFCURVE",
"315 -9 CURVE SMOOTH"
);
}
);
};
color = -1;
layerId = "D9712079-C16A-42CB-8BA4-BD9ECFFACF10";
paths = (
{
closed = 1;
nodes = (
"159 -9 OFFCURVE",
"217 96 OFFCURVE",
"257 166 CURVE",
"271 166 LINE",
"290 268 LINE",
"236 186 OFFCURVE",
"157 65 OFFCURVE",
"146 65 CURVE SMOOTH",
"130 65 OFFCURVE",
"114 91 OFFCURVE",
"114 147 CURVE SMOOTH",
"114 282 OFFCURVE",
"158 389 OFFCURVE",
"195 399 CURVE SMOOTH",
"210 403 OFFCURVE",
"268 395 OFFCURVE",
"310 377 CURVE",
"397 435 LINE",
"365 442 OFFCURVE",
"253 457 OFFCURVE",
"236 457 CURVE SMOOTH",
"214 457 OFFCURVE",
"96 386 OFFCURVE",
"72 358 CURVE",
"47 315 OFFCURVE",
"22 226 OFFCURVE",
"22 141 CURVE SMOOTH",
"22 50 OFFCURVE",
"59 -9 OFFCURVE",
"152 -9 CURVE SMOOTH"
);
},
{
closed = 1;
nodes = (
"273 -9 OFFCURVE",
"330 9 OFFCURVE",
"371 22 CURVE",
"376 52 LINE",
"331 63 LINE",
"397 435 LINE",
"310 435 LINE",
"271 207 LINE",
"241 22 LINE",
"241 15 OFFCURVE",
"264 -9 OFFCURVE",
"268 -9 CURVE SMOOTH"
);
}
);
width = 437;
},
{
anchors = (
{
name = bottom;
position = "{233, 0}";
},
{
name = ogonek;
position = "{456, 15}";
},
{
name = top;
position = "{285, 462}";
}
);
background = {
paths = (
{
closed = 1;
nodes = (
"531 448 LINE",
"499 455 OFFCURVE",
"356 477 OFFCURVE",
"339 477 CURVE SMOOTH",
"309 477 OFFCURVE",
"163 414 OFFCURVE",
"117 380 CURVE",
"93 334 OFFCURVE",
"58 217 OFFCURVE",
"58 141 CURVE SMOOTH",
"58 51 OFFCURVE",
"96 -8 OFFCURVE",
"211 -8 CURVE SMOOTH",
"223 -8 OFFCURVE",
"266 72 OFFCURVE",
"307 147 CURVE",
"333 147 LINE",
"350 242 LINE",
"319 199 OFFCURVE",
"274 156 OFFCURVE",
"263 156 CURVE SMOOTH",
"241 156 OFFCURVE",
"233 165 OFFCURVE",
"233 198 CURVE SMOOTH",
"233 304 OFFCURVE",
"274 386 OFFCURVE",
"289 396 CURVE",
"304 398 OFFCURVE",
"395 374 OFFCURVE",
"444 352 CURVE"
);
},
{
closed = 1;
nodes = (
"299 40 LINE SMOOTH",
"297 26 OFFCURVE",
"324 -9 OFFCURVE",
"333 -9 CURVE SMOOTH",
"362 -9 OFFCURVE",
"468 8 OFFCURVE",
"502 15 CURVE",
"514 84 LINE",
"468 95 LINE",
"531 448 LINE",
"364 448 LINE"
);
}
);
};
layerId = "E259E77F-022A-45EF-A0F1-1168268390B3";
paths = (
{
closed = 1;
nodes = (
"169 -8 OFFCURVE",
"217 76 OFFCURVE",
"261 152 CURVE",
"287 152 LINE",
"304 236 LINE",
"272 203 OFFCURVE",
"225 156 OFFCURVE",
"219 156 CURVE SMOOTH",
"195 156 OFFCURVE",
"187 165 OFFCURVE",
"187 198 CURVE SMOOTH",
"187 304 OFFCURVE",
"226 392 OFFCURVE",
"243 396 CURVE SMOOTH",
"256 399 OFFCURVE",
"349 374 OFFCURVE",
"398 352 CURVE",
"485 448 LINE",
"453 455 OFFCURVE",
"310 477 OFFCURVE",
"293 477 CURVE SMOOTH",
"263 477 OFFCURVE",
"118 414 OFFCURVE",
"72 380 CURVE",
"43 332 OFFCURVE",
"12 217 OFFCURVE",
"12 141 CURVE SMOOTH",
"12 51 OFFCURVE",
"50 -8 OFFCURVE",
"165 -8 CURVE SMOOTH"
);
},
{
closed = 1;
nodes = (
"321 -9 OFFCURVE",
"422 8 OFFCURVE",
"456 15 CURVE",
"468 84 LINE",
"422 95 LINE",
"485 448 LINE",
"318 448 LINE",
"274 173 LINE",
"258 40 LINE SMOOTH",
"256 26 OFFCURVE",
"283 -9 OFFCURVE",
"292 -9 CURVE SMOOTH"
);
}
);
width = 504;
},
{
anchors = (
{
name = bottom;
position = "{192, 0}";
},
{
name = ogonek;
position = "{337, 3}";
},
{
name = top;
position = "{251, 440}";
}
);
background = {
paths = (
{
closed = 1;
nodes = (
"205 -9 OFFCURVE",
"299 157 OFFCURVE",
"341 230 CURVE",
"351 230 LINE",
"359 290 LINE",
"323 228 OFFCURVE",
"198 18 OFFCURVE",
"185 18 CURVE SMOOTH",
"123 18 OFFCURVE",
"116 78 OFFCURVE",
"116 143 CURVE SMOOTH",
"116 338 OFFCURVE",
"209 393 OFFCURVE",
"239 411 CURVE",
"275 433 OFFCURVE",
"317 424 OFFCURVE",
"380 405 CURVE",
"392 431 LINE",
"356 439 OFFCURVE",
"301 449 OFFCURVE",
"276 449 CURVE SMOOTH",
"252 449 OFFCURVE",
"188 408 OFFCURVE",
"150 367 CURVE",
"115 317 OFFCURVE",
"86 238 OFFCURVE",
"86 136 CURVE SMOOTH",
"86 46 OFFCURVE",
"107 -9 OFFCURVE",
"195 -9 CURVE SMOOTH"
);
}
);
};
color = -1;
layerId = "16B79A64-180D-495F-8650-CA27198DF3EF";
paths = (
{
closed = 1;
nodes = (
"157 -9 OFFCURVE",
"251 157 OFFCURVE",
"293 230 CURVE",
"303 230 LINE",
"311 290 LINE",
"275 228 OFFCURVE",
"150 18 OFFCURVE",
"137 18 CURVE SMOOTH",
"75 18 OFFCURVE",
"68 78 OFFCURVE",
"68 143 CURVE SMOOTH",
"68 338 OFFCURVE",
"158 392 OFFCURVE",
"190 410 CURVE SMOOTH",
"232 434 OFFCURVE",
"267 423 OFFCURVE",
"332 405 CURVE",
"360 428 LINE",
"326 435 OFFCURVE",
"257 449 OFFCURVE",
"228 449 CURVE SMOOTH",
"204 449 OFFCURVE",
"140 408 OFFCURVE",
"102 367 CURVE",
"67 317 OFFCURVE",
"38 238 OFFCURVE",
"38 136 CURVE SMOOTH",
"38 47 OFFCURVE",
"60 -9 OFFCURVE",
"147 -9 CURVE SMOOTH"
);
},
{
closed = 1;
nodes = (
"284 -9 OFFCURVE",
"304 -4 OFFCURVE",
"337 3 CURVE",
"339 18 LINE",
"289 22 LINE",
"360 428 LINE",
"331 428 LINE",
"302 254 LINE",
"262 8 LINE",
"261 5 OFFCURVE",
"275 -9 OFFCURVE",
"279 -9 CURVE SMOOTH"
);
}
);
width = 405;
}
);
leftKerningGroup = o;
leftMetricsKey = o;
rightKerningGroup = a;
unicode = 0061;
},
{
color = 4;
glyphname = ae;
layers = (
{
anchors = (
{
name = top;
position = "{339, 448}";
}
);
layerId = "D9712079-C16A-42CB-8BA4-BD9ECFFACF10";
paths = (
{
closed = 1;
nodes = (
"159 -9 OFFCURVE",
"237 124 OFFCURVE",
"276 195 CURVE",
"290 268 LINE",
"236 186 OFFCURVE",
"157 65 OFFCURVE",
"146 65 CURVE SMOOTH",
"130 65 OFFCURVE",
"114 91 OFFCURVE",
"114 147 CURVE SMOOTH",
"114 282 OFFCURVE",
"158 394 OFFCURVE",
"195 404 CURVE SMOOTH",
"210 408 OFFCURVE",
"296 386 OFFCURVE",
"338 368 CURVE",
"426 430 LINE",
"394 437 OFFCURVE",
"253 457 OFFCURVE",
"236 457 CURVE SMOOTH",
"214 457 OFFCURVE",
"96 386 OFFCURVE",
"72 358 CURVE",
"47 315 OFFCURVE",
"22 226 OFFCURVE",
"22 141 CURVE SMOOTH",
"22 50 OFFCURVE",
"59 -9 OFFCURVE",
"152 -9 CURVE SMOOTH"
);
},
{
closed = 1;
nodes = (
"408 -9 OFFCURVE",
"511 30 OFFCURVE",
"553 54 CURVE",
"541 94 LINE",
"505 82 OFFCURVE",
"448 64 OFFCURVE",
"426 64 CURVE SMOOTH",
"372 64 OFFCURVE",
"359 103 OFFCURVE",
"359 172 CURVE SMOOTH",
"359 283 OFFCURVE",
"405 392 OFFCURVE",
"435 404 CURVE SMOOTH",
"441 406 OFFCURVE",
"451 407 OFFCURVE",
"458 407 CURVE SMOOTH",
"484 407 OFFCURVE",
"502 398 OFFCURVE",
"502 365 CURVE SMOOTH",
"502 296 OFFCURVE",
"406 241 OFFCURVE",
"348 237 CURVE",
"348 199 LINE",
"441 205 OFFCURVE",
"594 264 OFFCURVE",
"594 367 CURVE SMOOTH",
"594 435 OFFCURVE",
"544 457 OFFCURVE",
"479 457 CURVE SMOOTH",
"457 457 OFFCURVE",
"339 386 OFFCURVE",
"315 358 CURVE",
"290 315 OFFCURVE",
"265 225 OFFCURVE",
"265 141 CURVE SMOOTH",
"265 60 OFFCURVE",
"309 -9 OFFCURVE",
"386 -9 CURVE SMOOTH"
);
}
);
width = 593;
},
{
anchors = (
{
name = top;
position = "{343, 440}";
}
);
background = {
paths = (
{
closed = 1;
nodes = (
"421 -9 OFFCURVE",
"477 10 OFFCURVE",
"505 25 CURVE",
"501 40 LINE",
"477 32 OFFCURVE",
"438 17 OFFCURVE",
"411 17 CURVE SMOOTH",
"341 17 OFFCURVE",
"302 60 OFFCURVE",
"302 148 CURVE SMOOTH",
"302 336 OFFCURVE",
"387 389 OFFCURVE",
"420 408 CURVE SMOOTH",
"438 419 OFFCURVE",
"454 424 OFFCURVE",
"472 424 CURVE SMOOTH",
"511 424 OFFCURVE",
"529 407 OFFCURVE",
"529 374 CURVE SMOOTH",
"529 304 OFFCURVE",
"445 218 OFFCURVE",
"299 216 CURVE",
"297 197 LINE",
"447 200 OFFCURVE",
"558 284 OFFCURVE",
"558 378 CURVE SMOOTH",
"558 436 OFFCURVE",
"511 449 OFFCURVE",
"461 449 CURVE SMOOTH",
"437 449 OFFCURVE",
"373 408 OFFCURVE",
"335 367 CURVE",
"299 319 OFFCURVE",
"272 238 OFFCURVE",
"272 142 CURVE SMOOTH",
"272 48 OFFCURVE",
"316 -9 OFFCURVE",
"413 -9 CURVE SMOOTH"
);
}
);
};
layerId = "16B79A64-180D-495F-8650-CA27198DF3EF";
paths = (
{
closed = 1;
nodes = (
"158 -9 OFFCURVE",
"273 188 OFFCURVE",
"303 243 CURVE",
"311 291 LINE",
"275 229 OFFCURVE",
"150 18 OFFCURVE",
"137 18 CURVE SMOOTH",
"75 18 OFFCURVE",
"68 78 OFFCURVE",
"68 143 CURVE SMOOTH",
"68 338 OFFCURVE",
"158 392 OFFCURVE",
"190 410 CURVE SMOOTH",
"232 434 OFFCURVE",
"273 428 OFFCURVE",
"374 396 CURVE",
"405 418 LINE",
"367 427 OFFCURVE",
"256 449 OFFCURVE",
"228 449 CURVE SMOOTH",
"204 449 OFFCURVE",
"140 408 OFFCURVE",
"102 367 CURVE",
"67 317 OFFCURVE",
"38 238 OFFCURVE",
"38 136 CURVE SMOOTH",
"38 47 OFFCURVE",
"60 -9 OFFCURVE",
"147 -9 CURVE SMOOTH"
);
},
{
closed = 1;
nodes = (
"421 -9 OFFCURVE",
"477 10 OFFCURVE",
"505 25 CURVE",
"501 40 LINE",
"477 32 OFFCURVE",
"438 17 OFFCURVE",
"411 17 CURVE SMOOTH",
"339 17 OFFCURVE",
"302 58 OFFCURVE",
"302 148 CURVE SMOOTH",
"302 336 OFFCURVE",
"387 389 OFFCURVE",
"420 408 CURVE SMOOTH",
"437 418 OFFCURVE",
"456 424 OFFCURVE",
"472 424 CURVE SMOOTH",
"511 424 OFFCURVE",
"529 407 OFFCURVE",
"529 374 CURVE SMOOTH",
"529 304 OFFCURVE",
"445 218 OFFCURVE",
"299 216 CURVE",
"297 197 LINE",
"447 200 OFFCURVE",
"558 284 OFFCURVE",
"558 378 CURVE SMOOTH",
"558 436 OFFCURVE",
"511 449 OFFCURVE",
"461 449 CURVE SMOOTH",
"435 449 OFFCURVE",
"373 408 OFFCURVE",
"335 367 CURVE",
"299 319 OFFCURVE",
"272 238 OFFCURVE",
"272 142 CURVE SMOOTH",
"272 48 OFFCURVE",
"316 -9 OFFCURVE",
"413 -9 CURVE SMOOTH"
);
}
);
width = 564;
},
{
anchors = (
{
name = top;
position = "{421, 462}";
}
);
layerId = "E259E77F-022A-45EF-A0F1-1168268390B3";
paths = (
{
closed = 1;
nodes = (
"174 -8 OFFCURVE",
"248 110 OFFCURVE",
"298 197 CURVE",
"304 236 LINE",
"272 203 OFFCURVE",
"225 156 OFFCURVE",
"219 156 CURVE SMOOTH",
"195 156 OFFCURVE",
"187 165 OFFCURVE",
"187 198 CURVE SMOOTH",
"187 304 OFFCURVE",
"226 392 OFFCURVE",
"243 396 CURVE SMOOTH",
"256 399 OFFCURVE",
"349 374 OFFCURVE",
"398 352 CURVE",
"485 448 LINE",
"453 455 OFFCURVE",
"310 477 OFFCURVE",
"293 477 CURVE SMOOTH",
"263 477 OFFCURVE",
"118 414 OFFCURVE",
"72 380 CURVE",
"43 332 OFFCURVE",
"12 217 OFFCURVE",
"12 141 CURVE SMOOTH",
"12 51 OFFCURVE",
"50 -8 OFFCURVE",
"165 -8 CURVE SMOOTH"
);
},
{
closed = 1;
nodes = (
"479 -9 OFFCURVE",
"584 23 OFFCURVE",
"646 47 CURVE",
"629 121 LINE",
"571 104 OFFCURVE",
"532 91 OFFCURVE",
"502 91 CURVE SMOOTH",
"464 91 OFFCURVE",
"449 110 OFFCURVE",
"449 168 CURVE SMOOTH",
"449 266 OFFCURVE",
"472 381 OFFCURVE",
"502 394 CURVE SMOOTH",
"505 395 OFFCURVE",
"511 396 OFFCURVE",
"515 396 CURVE SMOOTH",
"538 396 OFFCURVE",
"544 376 OFFCURVE",
"544 355 CURVE SMOOTH",
"544 288 OFFCURVE",
"499 251 OFFCURVE",
"441 247 CURVE",
"441 191 LINE",
"574 191 OFFCURVE",
"702 260 OFFCURVE",
"702 381 CURVE SMOOTH",
"702 456 OFFCURVE",
"630 477 OFFCURVE",
"558 477 CURVE SMOOTH",
"527 477 OFFCURVE",
"378 414 OFFCURVE",
"330 380 CURVE",
"304 334 OFFCURVE",
"271 216 OFFCURVE",
"271 146 CURVE SMOOTH",
"271 40 OFFCURVE",
"345 -9 OFFCURVE",
"457 -9 CURVE SMOOTH"
);
}
);
width = 688;
}
);
leftKerningGroup = o;
leftMetricsKey = a;
rightKerningGroup = e;
rightMetricsKey = e;
unicode = 00E6;
},
{
color = 4;
glyphname = b;
layers = (
{
background = {
paths = (
{
closed = 1;
nodes = (
"246 -9 OFFCURVE",
"364 62 OFFCURVE",
"388 90 CURVE",
"410 136 OFFCURVE",
"438 231 OFFCURVE",
"438 307 CURVE SMOOTH",
"438 398 OFFCURVE",
"401 457 OFFCURVE",
"308 457 CURVE SMOOTH",
"301 457 OFFCURVE",
"242 351 OFFCURVE",
"201 278 CURVE",
"187 278 LINE",
"170 180 LINE",
"217 251 OFFCURVE",
"304 383 OFFCURVE",
"314 383 CURVE SMOOTH",
"330 383 OFFCURVE",
"346 357 OFFCURVE",
"346 301 CURVE SMOOTH",
"346 166 OFFCURVE",
"285 54 OFFCURVE",
"265 42 CURVE",
"250 38 OFFCURVE",
"192 53 OFFCURVE",
"150 71 CURVE",
"63 13 LINE",
"95 6 OFFCURVE",
"207 -9 OFFCURVE",
"224 -9 CURVE SMOOTH"
);
},
{
closed = 1;
nodes = (
"150 13 LINE",
"191 245 LINE",
"254 615 LINE",
"255 621 OFFCURVE",
"232 646 OFFCURVE",
"227 646 CURVE SMOOTH",
"222 646 OFFCURVE",
"152 625 OFFCURVE",
"122 615 CURVE",
"117 585 LINE",
"162 574 LINE",
"63 13 LINE"
);
}
);
};
layerId = "D9712079-C16A-42CB-8BA4-BD9ECFFACF10";
paths = (
{
closed = 1;
nodes = (
"220 -9 OFFCURVE",
"338 62 OFFCURVE",
"362 90 CURVE",
"387 133 OFFCURVE",
"412 222 OFFCURVE",
"412 307 CURVE SMOOTH",
"412 398 OFFCURVE",
"375 457 OFFCURVE",
"282 457 CURVE SMOOTH",
"275 457 OFFCURVE",
"218 355 OFFCURVE",
"177 282 CURVE",
"163 282 LINE",
"144 180 LINE",
"191 251 OFFCURVE",
"278 383 OFFCURVE",
"288 383 CURVE SMOOTH",
"304 383 OFFCURVE",
"320 357 OFFCURVE",
"320 301 CURVE SMOOTH",
"320 166 OFFCURVE",
"276 59 OFFCURVE",
"239 49 CURVE SMOOTH",
"224 45 OFFCURVE",
"166 53 OFFCURVE",
"124 71 CURVE",
"37 13 LINE",
"69 6 OFFCURVE",
"181 -9 OFFCURVE",
"198 -9 CURVE SMOOTH"
);
},
{
closed = 1;
nodes = (
"124 13 LINE",
"165 245 LINE",
"228 615 LINE",
"229 621 OFFCURVE",
"206 646 OFFCURVE",
"201 646 CURVE SMOOTH",
"196 646 OFFCURVE",
"126 625 OFFCURVE",
"96 615 CURVE",
"91 585 LINE",
"136 574 LINE",
"37 13 LINE"
);
}
);
width = 440;
},
{
background = {
paths = (
{
closed = 1;
nodes = (
"238 -9 OFFCURVE",
"302 33 OFFCURVE",
"340 74 CURVE",
"375 124 OFFCURVE",
"404 202 OFFCURVE",
"404 304 CURVE SMOOTH",
"404 394 OFFCURVE",
"383 449 OFFCURVE",
"294 449 CURVE SMOOTH",
"284 449 OFFCURVE",
"194 289 OFFCURVE",
"149 211 CURVE",
"139 211 LINE",
"130 150 LINE",
"167 212 OFFCURVE",
"291 422 OFFCURVE",
"304 422 CURVE SMOOTH",
"367 422 OFFCURVE",
"374 362 OFFCURVE",
"374 297 CURVE SMOOTH",
"374 102 OFFCURVE",
"281 48 OFFCURVE",
"251 30 CURVE",
"215 8 OFFCURVE",
"172 17 OFFCURVE",
"109 36 CURVE",
"81 13 LINE",
"115 6 OFFCURVE",
"188 -9 OFFCURVE",
"214 -9 CURVE SMOOTH"
);
},
{
closed = 1;
nodes = (
"110 13 LINE",
"141 193 LINE",
"213 620 LINE",
"214 623 OFFCURVE",
"201 637 OFFCURVE",
"197 637 CURVE SMOOTH",
"192 637 OFFCURVE",
"164 632 OFFCURVE",
"131 625 CURVE",
"129 610 LINE",
"184 606 LINE",
"81 13 LINE"
);
}
);
};
layerId = "16B79A64-180D-495F-8650-CA27198DF3EF";
paths = (
{
closed = 1;
nodes = (
"218 -9 OFFCURVE",
"283 33 OFFCURVE",
"321 74 CURVE",
"355 123 OFFCURVE",
"384 202 OFFCURVE",
"384 304 CURVE SMOOTH",
"384 394 OFFCURVE",
"363 449 OFFCURVE",
"274 449 CURVE SMOOTH",
"264 449 OFFCURVE",
"174 289 OFFCURVE",
"129 211 CURVE",
"119 211 LINE",
"110 150 LINE",
"147 212 OFFCURVE",
"270 421 OFFCURVE",
"284 421 CURVE SMOOTH",
"345 421 OFFCURVE",
"354 360 OFFCURVE",
"354 297 CURVE SMOOTH",
"354 102 OFFCURVE",
"263 48 OFFCURVE",
"232 30 CURVE SMOOTH",
"195 8 OFFCURVE",
"152 17 OFFCURVE",
"89 36 CURVE",
"61 13 LINE",
"95 6 OFFCURVE",
"168 -9 OFFCURVE",
"194 -9 CURVE SMOOTH"
);
},
{
closed = 1;
nodes = (
"90 13 LINE",
"121 193 LINE",
"193 620 LINE",
"194 623 OFFCURVE",
"181 637 OFFCURVE",
"177 637 CURVE SMOOTH",
"172 637 OFFCURVE",
"144 632 OFFCURVE",
"111 625 CURVE",
"109 610 LINE",
"164 606 LINE",
"61 13 LINE"
);
}
);
width = 422;
},
{
background = {
paths = (
{
closed = 1;
nodes = (
"254 -8 OFFCURVE",
"400 55 OFFCURVE",
"446 89 CURVE",
"470 135 OFFCURVE",
"505 252 OFFCURVE",
"505 328 CURVE SMOOTH",
"505 418 OFFCURVE",
"467 477 OFFCURVE",
"352 477 CURVE SMOOTH",
"348 477 OFFCURVE",
"300 393 OFFCURVE",
"256 317 CURVE",
"230 317 LINE",
"213 232 LINE",
"247 266 OFFCURVE",
"292 313 OFFCURVE",
"299 313 CURVE SMOOTH",
"323 313 OFFCURVE",
"330 304 OFFCURVE",
"330 271 CURVE SMOOTH",
"330 165 OFFCURVE",
"289 83 OFFCURVE",
"274 73 CURVE",
"259 71 OFFCURVE",
"168 95 OFFCURVE",
"119 117 CURVE",
"32 21 LINE",
"64 14 OFFCURVE",
"207 -8 OFFCURVE",
"224 -8 CURVE SMOOTH"
);
},
{
closed = 1;
nodes = (
"199 20 LINE",
"245 295 LINE",
"292 615 LINE SMOOTH",
"294 626 OFFCURVE",
"269 665 OFFCURVE",
"260 665 CURVE SMOOTH",
"231 665 OFFCURVE",
"128 648 OFFCURVE",
"94 641 CURVE",
"82 572 LINE",
"128 561 LINE",
"32 20 LINE"
);
}
);
};
layerId = "E259E77F-022A-45EF-A0F1-1168268390B3";
paths = (
{
closed = 1;
nodes = (
"236 -8 OFFCURVE",
"381 55 OFFCURVE",
"427 89 CURVE",
"456 137 OFFCURVE",
"487 252 OFFCURVE",
"487 328 CURVE SMOOTH",
"487 418 OFFCURVE",
"449 477 OFFCURVE",
"334 477 CURVE SMOOTH",
"330 477 OFFCURVE",
"282 393 OFFCURVE",
"238 317 CURVE",
"212 317 LINE",
"195 232 LINE",
"229 266 OFFCURVE",
"274 313 OFFCURVE",
"281 313 CURVE SMOOTH",
"305 313 OFFCURVE",
"312 304 OFFCURVE",
"312 271 CURVE SMOOTH",
"312 165 OFFCURVE",
"273 77 OFFCURVE",
"256 73 CURVE SMOOTH",
"242 70 OFFCURVE",
"150 95 OFFCURVE",
"101 117 CURVE",
"14 21 LINE",
"46 14 OFFCURVE",
"189 -8 OFFCURVE",
"206 -8 CURVE SMOOTH"
);
},
{
closed = 1;
nodes = (
"181 20 LINE",
"227 295 LINE",
"274 615 LINE SMOOTH",
"276 626 OFFCURVE",
"251 665 OFFCURVE",
"242 665 CURVE SMOOTH",
"213 665 OFFCURVE",
"110 648 OFFCURVE",
"76 641 CURVE",
"64 572 LINE",
"110 561 LINE",
"14 20 LINE"
);
}
);
width = 498;
}
);
leftKerningGroup = l;
leftMetricsKey = l;
rightKerningGroup = o;
rightMetricsKey = o;
unicode = 0062;
},
{
color = 4;
glyphname = c;
layers = (
{
anchors = (
{
name = bottom;
position = "{204, 0}";
},
{
name = top;
position = "{238, 448}";
}
);
background = {
paths = (
{
closed = 1;
nodes = (
"212 -9 OFFCURVE",
"270 6 OFFCURVE",
"318 21 CURVE",
"326 64 LINE",
"230 64 LINE SMOOTH",
"198 64 OFFCURVE",
"164 82 OFFCURVE",
"164 172 CURVE SMOOTH",
"164 278 OFFCURVE",
"215 382 OFFCURVE",
"241 406 CURVE",
"261 406 OFFCURVE",
"318 389 OFFCURVE",
"361 366 CURVE",
"391 442 LINE",
"355 446 OFFCURVE",
"305 457 OFFCURVE",
"283 457 CURVE SMOOTH",
"262 457 OFFCURVE",
"143 386 OFFCURVE",
"119 358 CURVE",
"97 312 OFFCURVE",
"69 218 OFFCURVE",
"69 141 CURVE SMOOTH",
"69 60 OFFCURVE",
"110 -9 OFFCURVE",
"198 -9 CURVE SMOOTH"
);
},
{
closed = 1;
nodes = (
"361 297 LINE",
"391 442 LINE",
"305 442 LINE",
"324 297 LINE"
);
}
);
};
guideLines = (
{
position = "{420, 406}";
}
);
layerId = "D9712079-C16A-42CB-8BA4-BD9ECFFACF10";
paths = (
{
closed = 1;
nodes = (
"181 -9 OFFCURVE",
"239 6 OFFCURVE",
"287 21 CURVE",
"295 64 LINE",
"199 64 LINE SMOOTH",
"167 64 OFFCURVE",
"133 82 OFFCURVE",
"133 172 CURVE SMOOTH",
"133 288 OFFCURVE",
"177 389 OFFCURVE",
"208 399 CURVE SMOOTH",
"211 400 OFFCURVE",
"215 401 OFFCURVE",
"220 401 CURVE SMOOTH",
"248 401 OFFCURVE",
"297 386 OFFCURVE",
"330 366 CURVE",
"360 442 LINE",
"324 446 OFFCURVE",
"274 457 OFFCURVE",
"252 457 CURVE SMOOTH",
"231 457 OFFCURVE",
"112 386 OFFCURVE",
"88 358 CURVE",
"63 315 OFFCURVE",
"38 225 OFFCURVE",
"38 141 CURVE SMOOTH",
"38 60 OFFCURVE",
"79 -9 OFFCURVE",
"167 -9 CURVE SMOOTH"
);
},
{
closed = 1;
nodes = (
"330 297 LINE",
"360 442 LINE",
"274 442 LINE",
"293 297 LINE"
);
}
);
width = 348;
},
{
anchors = (
{
name = bottom;
position = "{205, 0}";
},
{
name = top;
position = "{241, 440}";
}
);
background = {
paths = (
{
closed = 1;
nodes = (
"231 -9 OFFCURVE",
"289 -2 OFFCURVE",
"313 4 CURVE",
"316 19 LINE",
"221 17 LINE SMOOTH",
"150 16 OFFCURVE",
"112 60 OFFCURVE",
"112 148 CURVE SMOOTH",
"112 338 OFFCURVE",
"204 401 OFFCURVE",
"257 421 CURVE",
"274 426 OFFCURVE",
"318 420 OFFCURVE",
"358 408 CURVE",
"372 437 LINE",
"346 445 OFFCURVE",
"297 450 OFFCURVE",
"271 450 CURVE SMOOTH",
"247 450 OFFCURVE",
"183 408 OFFCURVE",
"145 367 CURVE",
"109 316 OFFCURVE",
"82 236 OFFCURVE",
"82 142 CURVE SMOOTH",
"82 48 OFFCURVE",
"126 -9 OFFCURVE",
"223 -9 CURVE SMOOTH"
);
},
{
closed = 1;
nodes = (
"343 314 LINE",
"372 437 LINE",
"339 437 LINE",
"326 314 LINE"
);
}
);
};
layerId = "16B79A64-180D-495F-8650-CA27198DF3EF";
paths = (
{
closed = 1;
nodes = (
"200 -9 OFFCURVE",
"258 -2 OFFCURVE",
"282 4 CURVE",
"285 19 LINE",
"190 17 LINE SMOOTH",
"119 16 OFFCURVE",
"81 60 OFFCURVE",
"81 148 CURVE SMOOTH",
"81 336 OFFCURVE",
"167 388 OFFCURVE",
"199 408 CURVE SMOOTH",
"217 419 OFFCURVE",
"233 423 OFFCURVE",
"251 423 CURVE SMOOTH",
"278 423 OFFCURVE",
"304 415 OFFCURVE",
"327 408 CURVE",
"341 437 LINE",
"315 442 OFFCURVE",
"266 449 OFFCURVE",
"240 449 CURVE SMOOTH",
"216 449 OFFCURVE",
"152 408 OFFCURVE",
"114 367 CURVE",
"78 319 OFFCURVE",
"51 236 OFFCURVE",
"51 142 CURVE SMOOTH",
"51 48 OFFCURVE",
"95 -9 OFFCURVE",
"192 -9 CURVE SMOOTH"
);
},
{
closed = 1;
nodes = (
"312 314 LINE",
"341 437 LINE",
"308 437 LINE",
"295 314 LINE"
);
}
);
width = 350;
},
{
anchors = (
{
name = bottom;
position = "{211, 0}";
},
{
name = top;
position = "{250, 462}";
}
);
background = {
paths = (
{
closed = 1;
nodes = (
"219 -9 OFFCURVE",
"303 7 OFFCURVE",
"361 21 CURVE",
"374 91 LINE",
"273 91 LINE SMOOTH",
"221 91 OFFCURVE",
"212 115 OFFCURVE",
"212 165 CURVE SMOOTH",
"212 265 OFFCURVE",
"240 374 OFFCURVE",
"265 394 CURVE",
"283 394 OFFCURVE",
"336 367 OFFCURVE",
"388 331 CURVE",
"445 468 LINE",
"409 472 OFFCURVE",
"342 477 OFFCURVE",
"320 477 CURVE SMOOTH",
"290 477 OFFCURVE",
"141 414 OFFCURVE",
"93 380 CURVE",
"67 334 OFFCURVE",
"34 216 OFFCURVE",
"34 146 CURVE SMOOTH",
"34 48 OFFCURVE",
"102 -9 OFFCURVE",
"205 -9 CURVE SMOOTH"
);
},
{
closed = 1;
nodes = (
"405 286 LINE",
"445 468 LINE",
"316 463 LINE",
"333 286 LINE"
);
}
);
};
layerId = "E259E77F-022A-45EF-A0F1-1168268390B3";
paths = (
{
closed = 1;
nodes = (
"198 -9 OFFCURVE",
"282 7 OFFCURVE",
"340 21 CURVE",
"353 91 LINE",
"252 91 LINE SMOOTH",
"200 91 OFFCURVE",
"191 115 OFFCURVE",
"191 165 CURVE SMOOTH",
"191 265 OFFCURVE",
"213 384 OFFCURVE",
"244 394 CURVE SMOOTH",
"247 395 OFFCURVE",
"250 396 OFFCURVE",
"253 396 CURVE SMOOTH",
"279 396 OFFCURVE",
"321 363 OFFCURVE",
"367 331 CURVE",
"424 468 LINE",
"388 472 OFFCURVE",
"321 477 OFFCURVE",
"299 477 CURVE SMOOTH",
"269 477 OFFCURVE",
"120 414 OFFCURVE",
"72 380 CURVE",
"46 334 OFFCURVE",
"13 216 OFFCURVE",
"13 146 CURVE SMOOTH",
"13 48 OFFCURVE",
"81 -9 OFFCURVE",
"184 -9 CURVE SMOOTH"
);
},
{
closed = 1;
nodes = (
"384 286 LINE",
"424 468 LINE",
"295 463 LINE",
"312 286 LINE"
);
}
);
width = 409;
}
);
leftKerningGroup = o;
rightKerningGroup = c;
unicode = 0063;
},
{
color = 4;
glyphname = d;
layers = (
{
anchors = (
{
name = bottom;
position = "{171, 0}";
},
{
name = center;
position = "{337, 516}";
},
{
name = top;
position = "{383, 603}";
},
{
name = topright;
position = "{453, 448}";
}
);
background = {
paths = (
{
closed = 1;
nodes = (
"159 -9 OFFCURVE",
"219 100 OFFCURVE",
"259 170 CURVE",
"273 170 LINE",
"290 268 LINE",
"241 195 OFFCURVE",
"156 65 OFFCURVE",
"146 65 CURVE SMOOTH",
"130 65 OFFCURVE",
"114 91 OFFCURVE",
"114 147 CURVE SMOOTH",
"114 282 OFFCURVE",
"175 394 OFFCURVE",
"195 406 CURVE",
"210 410 OFFCURVE",
"268 395 OFFCURVE",
"310 377 CURVE",
"346 444 LINE",
"302 450 OFFCURVE",
"247 457 OFFCURVE",
"236 457 CURVE SMOOTH",
"214 457 OFFCURVE",
"96 386 OFFCURVE",
"72 358 CURVE",
"50 312 OFFCURVE",
"22 217 OFFCURVE",
"22 141 CURVE SMOOTH",
"22 50 OFFCURVE",
"59 -9 OFFCURVE",
"152 -9 CURVE SMOOTH"
);
},
{
closed = 1;
nodes = (
"273 -9 OFFCURVE",
"371 22 OFFCURVE",
"371 22 CURVE",
"376 52 LINE",
"331 63 LINE",
"428 615 LINE",
"429 621 OFFCURVE",
"406 646 OFFCURVE",
"401 646 CURVE SMOOTH",
"396 646 OFFCURVE",
"324 625 OFFCURVE",
"294 615 CURVE",
"289 585 LINE",
"334 574 LINE",
"272 211 LINE",
"239 22 LINE",
"239 15 OFFCURVE",
"260 -9 OFFCURVE",
"266 -9 CURVE SMOOTH"
);
}
);
};
layerId = "D9712079-C16A-42CB-8BA4-BD9ECFFACF10";
paths = (
{
closed = 1;
nodes = (
"159 -9 OFFCURVE",
"217 96 OFFCURVE",
"257 166 CURVE",
"271 166 LINE",
"290 268 LINE",
"236 186 OFFCURVE",
"157 65 OFFCURVE",
"146 65 CURVE SMOOTH",
"130 65 OFFCURVE",
"114 91 OFFCURVE",
"114 147 CURVE SMOOTH",
"114 282 OFFCURVE",
"158 389 OFFCURVE",
"195 399 CURVE SMOOTH",
"210 403 OFFCURVE",
"268 395 OFFCURVE",
"310 377 CURVE",
"393 435 LINE",
"361 442 OFFCURVE",
"253 457 OFFCURVE",
"236 457 CURVE SMOOTH",
"214 457 OFFCURVE",
"96 386 OFFCURVE",
"72 358 CURVE",
"47 315 OFFCURVE",
"22 226 OFFCURVE",
"22 141 CURVE SMOOTH",
"22 50 OFFCURVE",
"59 -9 OFFCURVE",
"152 -9 CURVE SMOOTH"
);
},
{
closed = 1;
nodes = (
"271 -9 OFFCURVE",
"329 9 OFFCURVE",
"371 22 CURVE",
"376 52 LINE",
"331 63 LINE",
"428 615 LINE",
"429 621 OFFCURVE",
"406 646 OFFCURVE",
"401 646 CURVE SMOOTH",
"396 646 OFFCURVE",
"324 625 OFFCURVE",
"294 615 CURVE",
"289 585 LINE",
"334 574 LINE",
"272 211 LINE",
"239 22 LINE",
"239 15 OFFCURVE",
"260 -9 OFFCURVE",
"266 -9 CURVE SMOOTH"
);
}
);
width = 434;
},
{
anchors = (
{
name = bottom;
position = "{208, 0}";
},
{
name = center;
position = "{375, 520}";
},
{
name = top;
position = "{433, 613}";
},
{
name = topright;
position = "{498, 462}";
}
);
background = {
paths = (
{
closed = 1;
nodes = (
"169 -8 OFFCURVE",
"220 81 OFFCURVE",
"261 152 CURVE",
"287 152 LINE",
"304 236 LINE",
"272 203 OFFCURVE",
"225 156 OFFCURVE",
"219 156 CURVE SMOOTH",
"195 156 OFFCURVE",
"187 165 OFFCURVE",
"187 198 CURVE SMOOTH",
"187 304 OFFCURVE",
"228 386 OFFCURVE",
"243 396 CURVE",
"258 398 OFFCURVE",
"349 374 OFFCURVE",
"398 352 CURVE",
"405 462 LINE",
"356 469 OFFCURVE",
"303 477 OFFCURVE",
"293 477 CURVE SMOOTH",
"263 477 OFFCURVE",
"117 414 OFFCURVE",
"71 380 CURVE",
"47 334 OFFCURVE",
"12 217 OFFCURVE",
"12 141 CURVE SMOOTH",
"12 51 OFFCURVE",
"50 -8 OFFCURVE",
"165 -8 CURVE SMOOTH"
);
},
{
closed = 1;
nodes = (
"321 -9 OFFCURVE",
"417 8 OFFCURVE",
"451 15 CURVE",
"463 84 LINE",
"422 95 LINE",
"514 615 LINE SMOOTH",
"516 626 OFFCURVE",
"488 665 OFFCURVE",
"479 665 CURVE SMOOTH",
"450 665 OFFCURVE",
"343 648 OFFCURVE",
"309 641 CURVE",
"297 572 LINE",
"338 561 LINE",
"275 176 LINE",
"258 40 LINE SMOOTH",
"256 26 OFFCURVE",
"283 -9 OFFCURVE",
"292 -9 CURVE SMOOTH"
);
}
);
};
layerId = "E259E77F-022A-45EF-A0F1-1168268390B3";
paths = (
{
closed = 1;
nodes = (
"169 -8 OFFCURVE",
"217 76 OFFCURVE",
"261 152 CURVE",
"287 152 LINE",
"304 236 LINE",
"272 203 OFFCURVE",
"225 156 OFFCURVE",
"219 156 CURVE SMOOTH",
"195 156 OFFCURVE",
"187 165 OFFCURVE",
"187 198 CURVE SMOOTH",
"187 304 OFFCURVE",
"226 392 OFFCURVE",
"243 396 CURVE SMOOTH",
"256 399 OFFCURVE",
"349 374 OFFCURVE",
"398 352 CURVE",
"482 448 LINE",
"450 455 OFFCURVE",
"310 477 OFFCURVE",
"293 477 CURVE",
"263 477 OFFCURVE",
"118 414 OFFCURVE",
"72 380 CURVE",
"43 332 OFFCURVE",
"12 217 OFFCURVE",
"12 141 CURVE SMOOTH",
"12 51 OFFCURVE",
"50 -8 OFFCURVE",
"165 -8 CURVE SMOOTH"
);
},
{
closed = 1;
nodes = (
"321 -9 OFFCURVE",
"417 8 OFFCURVE",
"451 15 CURVE",
"463 84 LINE",
"422 95 LINE",
"514 615 LINE SMOOTH",
"516 626 OFFCURVE",
"488 665 OFFCURVE",
"479 665 CURVE SMOOTH",
"450 665 OFFCURVE",
"343 648 OFFCURVE",
"309 641 CURVE",
"297 572 LINE",
"338 561 LINE",
"275 176 LINE",
"258 40 LINE SMOOTH",
"256 26 OFFCURVE",
"283 -9 OFFCURVE",
"292 -9 CURVE SMOOTH"
);
}
);
width = 493;
},
{
anchors = (
{
name = bottom;
position = "{169, 0}";
},
{
name = center;
position = "{333, 525}";
},
{
name = top;
position = "{374, 591}";
},
{
name = topright;
position = "{441, 440}";
}
);
background = {
paths = (
{
closed = 1;
nodes = (
"157 -9 OFFCURVE",
"251 157 OFFCURVE",
"293 230 CURVE",
"303 230 LINE",
"311 290 LINE",
"275 228 OFFCURVE",
"150 18 OFFCURVE",
"137 18 CURVE SMOOTH",
"75 18 OFFCURVE",
"68 78 OFFCURVE",
"68 143 CURVE SMOOTH",
"68 338 OFFCURVE",
"161 393 OFFCURVE",
"191 411 CURVE",
"227 433 OFFCURVE",
"269 424 OFFCURVE",
"332 405 CURVE",
"344 431 LINE",
"308 439 OFFCURVE",
"253 449 OFFCURVE",
"228 449 CURVE SMOOTH",
"204 449 OFFCURVE",
"140 408 OFFCURVE",
"102 367 CURVE",
"67 317 OFFCURVE",
"38 238 OFFCURVE",
"38 136 CURVE SMOOTH",
"38 46 OFFCURVE",
"59 -9 OFFCURVE",
"147 -9 CURVE SMOOTH"
);
},
{
closed = 1;
nodes = (
"282 -9 OFFCURVE",
"309 -4 OFFCURVE",
"342 3 CURVE",
"344 18 LINE",
"289 22 LINE",
"393 620 LINE",
"394 623 OFFCURVE",
"380 637 OFFCURVE",
"376 637 CURVE SMOOTH",
"371 637 OFFCURVE",
"342 632 OFFCURVE",
"309 625 CURVE",
"307 610 LINE",
"362 606 LINE",
"301 253 LINE",
"260 8 LINE",
"259 5 OFFCURVE",
"273 -9 OFFCURVE",
"277 -9 CURVE SMOOTH"
);
}
);
};
layerId = "16B79A64-180D-495F-8650-CA27198DF3EF";
paths = (
{
closed = 1;
nodes = (
"157 -9 OFFCURVE",
"251 157 OFFCURVE",
"293 230 CURVE",
"303 230 LINE",
"311 290 LINE",
"275 228 OFFCURVE",
"150 18 OFFCURVE",
"137 18 CURVE SMOOTH",
"75 18 OFFCURVE",
"68 78 OFFCURVE",
"68 143 CURVE SMOOTH",
"68 338 OFFCURVE",
"158 392 OFFCURVE",
"190 410 CURVE SMOOTH",
"232 434 OFFCURVE",
"267 423 OFFCURVE",
"332 405 CURVE",
"357 428 LINE",
"323 435 OFFCURVE",
"257 449 OFFCURVE",
"228 449 CURVE SMOOTH",
"204 449 OFFCURVE",
"140 408 OFFCURVE",
"102 367 CURVE",
"67 317 OFFCURVE",
"38 238 OFFCURVE",
"38 136 CURVE SMOOTH",
"38 47 OFFCURVE",
"60 -9 OFFCURVE",
"147 -9 CURVE SMOOTH"
);
},
{
closed = 1;
nodes = (
"282 -9 OFFCURVE",
"309 -4 OFFCURVE",
"342 3 CURVE",
"344 18 LINE",
"289 22 LINE",
"393 620 LINE",
"394 623 OFFCURVE",
"380 637 OFFCURVE",
"376 637 CURVE SMOOTH",
"371 637 OFFCURVE",
"342 632 OFFCURVE",
"309 625 CURVE",
"307 610 LINE",
"362 606 LINE",
"301 253 LINE",
"260 8 LINE",
"259 5 OFFCURVE",
"273 -9 OFFCURVE",
"277 -9 CURVE SMOOTH"
);
}
);
width = 420;
}
);
leftKerningGroup = o;
leftMetricsKey = o;
rightKerningGroup = l;
rightMetricsKey = l;
unicode = 0064;
},
{
color = 4;
glyphname = eth;
layers = (
{
layerId = "D9712079-C16A-42CB-8BA4-BD9ECFFACF10";
paths = (
{
closed = 1;
nodes = (
"318 -9 OFFCURVE",
"387 212 OFFCURVE",
"387 395 CURVE SMOOTH",
"387 532 OFFCURVE",
"319 611 OFFCURVE",
"175 611 CURVE",
"184 560 LINE",
"269 560 OFFCURVE",
"295 507 OFFCURVE",
"295 415 CURVE SMOOTH",
"295 293 OFFCURVE",
"285 40 OFFCURVE",
"121 40 CURVE SMOOTH",
"112 40 OFFCURVE",
"106 60 OFFCURVE",
"106 108 CURVE SMOOTH",
"106 192 OFFCURVE",
"132 322 OFFCURVE",
"209 322 CURVE SMOOTH",
"227 322 OFFCURVE",
"275 298 OFFCURVE",
"296 282 CURVE",
"302 329 LINE",
"276 347 OFFCURVE",
"219 380 OFFCURVE",
"210 380 CURVE SMOOTH",
"94 380 OFFCURVE",
"22 282 OFFCURVE",
"22 153 CURVE SMOOTH",
"22 132 OFFCURVE",
"24 111 OFFCURVE",
"28 89 CURVE",
"41 58 OFFCURVE",
"114 -9 OFFCURVE",
"136 -9 CURVE SMOOTH"
);
},
{
closed = 1;
nodes = (
"433 558 LINE",
"440 572 LINE",
"413 596 LINE",
"172 485 LINE",
"165 471 LINE",
"196 448 LINE"
);
}
);
width = 392;
},
{
layerId = "16B79A64-180D-495F-8650-CA27198DF3EF";
paths = (
{
closed = 1;
nodes = (
"267 -9 OFFCURVE",
"334 230 OFFCURVE",
"334 398 CURVE SMOOTH",
"334 532 OFFCURVE",
"289 606 OFFCURVE",
"157 597 CURVE",
"161 578 LINE",
"282 580 OFFCURVE",
"307 507 OFFCURVE",
"307 399 CURVE SMOOTH",
"307 301 OFFCURVE",
"267 15 OFFCURVE",
"122 15 CURVE SMOOTH",
"97 15 OFFCURVE",
"63 48 OFFCURVE",
"63 125 CURVE SMOOTH",
"63 230 OFFCURVE",
"100 335 OFFCURVE",
"200 335 CURVE SMOOTH",
"218 335 OFFCURVE",
"280 313 OFFCURVE",
"305 300 CURVE",
"310 317 LINE",
"278 338 OFFCURVE",
"220 359 OFFCURVE",
"209 359 CURVE SMOOTH",
"101 359 OFFCURVE",
"37 269 OFFCURVE",
"37 147 CURVE SMOOTH",
"37 115 OFFCURVE",
"41 82 OFFCURVE",
"50 54 CURVE",
"65 16 OFFCURVE",
"99 -9 OFFCURVE",
"113 -9 CURVE SMOOTH"
);
},
{
closed = 1;
nodes = (
"412 555 LINE",
"417 562 LINE",
"408 575 LINE",
"170 466 LINE",
"165 458 LINE",
"178 447 LINE"
);
}
);
width = 357;
},
{
layerId = "E259E77F-022A-45EF-A0F1-1168268390B3";
paths = (
{
closed = 1;
nodes = (
"353 -9 OFFCURVE",
"483 129 OFFCURVE",
"483 371 CURVE SMOOTH",
"483 557 OFFCURVE",
"368 655 OFFCURVE",
"175 634 CURVE",
"189 560 LINE",
"273 558 OFFCURVE",
"306 505 OFFCURVE",
"306 415 CURVE SMOOTH",
"306 236 OFFCURVE",
"288 72 OFFCURVE",
"216 72 CURVE SMOOTH",
"202 72 OFFCURVE",
"190 120 OFFCURVE",
"190 173 CURVE SMOOTH",
"190 235 OFFCURVE",
"206 302 OFFCURVE",
"254 302 CURVE SMOOTH",
"272 302 OFFCURVE",
"320 278 OFFCURVE",
"341 262 CURVE",
"347 341 LINE",
"321 359 OFFCURVE",
"216 392 OFFCURVE",
"207 392 CURVE SMOOTH",
"94 392 OFFCURVE",
"15 288 OFFCURVE",
"15 171 CURVE SMOOTH",
"15 145 OFFCURVE",
"19 119 OFFCURVE",
"27 93 CURVE",
"43 64 OFFCURVE",
"179 -9 OFFCURVE",
"199 -9 CURVE SMOOTH"
);
},
{
closed = 1;
nodes = (
"512 554 LINE",
"513 582 LINE",
"477 615 LINE",
"203 481 LINE",
"203 452 LINE",
"242 421 LINE"
);
}
);
width = 482;
}
);
leftKerningGroup = o;
leftMetricsKey = o;
rightKerningGroup = O;
unicode = 00F0;
},
{
color = 4;
glyphname = e;
layers = (
{
anchors = (
{
name = bottom;
position = "{176, 0}";
},
{
name = ogonek;
position = "{310, 54}";
},
{
name = top;
position = "{226, 448}";
}
);
background = {
paths = (
{
closed = 1;
nodes = (
"206 -9 OFFCURVE",
"309 30 OFFCURVE",
"351 54 CURVE",
"339 94 LINE",
"303 82 OFFCURVE",
"246 64 OFFCURVE",
"224 64 CURVE SMOOTH",
"172 64 OFFCURVE",
"157 103 OFFCURVE",
"157 170 CURVE SMOOTH",
"157 265 OFFCURVE",
"201 372 OFFCURVE",
"235 406 CURVE",
"240 407 OFFCURVE",
"249 408 OFFCURVE",
"256 408 CURVE SMOOTH",
"282 408 OFFCURVE",
"300 398 OFFCURVE",
"300 365 CURVE SMOOTH",
"300 296 OFFCURVE",
"204 241 OFFCURVE",
"146 237 CURVE",
"146 199 LINE",
"239 205 OFFCURVE",
"392 264 OFFCURVE",
"392 367 CURVE SMOOTH",
"392 435 OFFCURVE",
"342 457 OFFCURVE",
"277 457 CURVE SMOOTH",
"255 457 OFFCURVE",
"137 386 OFFCURVE",
"113 358 CURVE",
"91 312 OFFCURVE",
"63 217 OFFCURVE",
"63 141 CURVE SMOOTH",
"63 60 OFFCURVE",
"107 -9 OFFCURVE",
"184 -9 CURVE SMOOTH"
);
}
);
};
layerId = "D9712079-C16A-42CB-8BA4-BD9ECFFACF10";
paths = (
{
closed = 1;
nodes = (
"165 -9 OFFCURVE",
"268 30 OFFCURVE",
"310 54 CURVE",
"298 94 LINE",
"262 82 OFFCURVE",
"205 64 OFFCURVE",
"183 64 CURVE SMOOTH",
"129 64 OFFCURVE",
"116 103 OFFCURVE",
"116 172 CURVE SMOOTH",
"116 283 OFFCURVE",
"161 389 OFFCURVE",
"192 399 CURVE SMOOTH",
"198 401 OFFCURVE",
"208 402 OFFCURVE",
"215 402 CURVE SMOOTH",
"239 402 OFFCURVE",
"259 392 OFFCURVE",
"259 361 CURVE SMOOTH",
"259 296 OFFCURVE",
"163 241 OFFCURVE",
"105 237 CURVE",
"105 199 LINE",
"198 205 OFFCURVE",
"351 264 OFFCURVE",
"351 367 CURVE SMOOTH",
"351 435 OFFCURVE",
"301 457 OFFCURVE",
"236 457 CURVE SMOOTH",
"214 457 OFFCURVE",
"96 386 OFFCURVE",
"72 358 CURVE",
"47 315 OFFCURVE",
"22 225 OFFCURVE",
"22 141 CURVE SMOOTH",
"22 60 OFFCURVE",
"66 -9 OFFCURVE",
"143 -9 CURVE SMOOTH"
);
}
);
width = 350;
},
{
anchors = (
{
name = bottom;
position = "{178, 0}";
},
{
name = ogonek;
position = "{272, 25}";
},
{
name = top;
position = "{222, 440}";
}
);
background = {
paths = (
{
closed = 1;
nodes = (
"231 -9 OFFCURVE",
"287 10 OFFCURVE",
"315 25 CURVE",
"311 40 LINE",
"287 32 OFFCURVE",
"248 17 OFFCURVE",
"221 17 CURVE SMOOTH",
"151 17 OFFCURVE",
"112 60 OFFCURVE",
"112 148 CURVE SMOOTH",
"112 336 OFFCURVE",
"197 389 OFFCURVE",
"230 408 CURVE SMOOTH",
"248 419 OFFCURVE",
"264 424 OFFCURVE",
"282 424 CURVE SMOOTH",
"321 424 OFFCURVE",
"339 407 OFFCURVE",
"339 374 CURVE SMOOTH",
"339 304 OFFCURVE",
"255 218 OFFCURVE",
"109 216 CURVE",
"107 197 LINE",
"257 200 OFFCURVE",
"368 284 OFFCURVE",
"368 378 CURVE SMOOTH",
"368 436 OFFCURVE",
"321 449 OFFCURVE",
"271 449 CURVE SMOOTH",
"247 449 OFFCURVE",
"183 408 OFFCURVE",
"145 367 CURVE",
"109 319 OFFCURVE",
"82 238 OFFCURVE",
"82 142 CURVE SMOOTH",
"82 48 OFFCURVE",
"126 -9 OFFCURVE",
"223 -9 CURVE SMOOTH"
);
}
);
};
layerId = "16B79A64-180D-495F-8650-CA27198DF3EF";
paths = (
{
closed = 1;
nodes = (
"188 -9 OFFCURVE",
"244 10 OFFCURVE",
"272 25 CURVE",
"268 40 LINE",
"244 32 OFFCURVE",
"205 17 OFFCURVE",
"178 17 CURVE SMOOTH",
"108 17 OFFCURVE",
"69 60 OFFCURVE",
"69 148 CURVE SMOOTH",
"69 336 OFFCURVE",
"154 387 OFFCURVE",
"187 407 CURVE SMOOTH",
"205 418 OFFCURVE",
"221 424 OFFCURVE",
"239 424 CURVE SMOOTH",
"278 424 OFFCURVE",
"296 407 OFFCURVE",
"296 374 CURVE SMOOTH",
"296 304 OFFCURVE",
"212 218 OFFCURVE",
"66 216 CURVE",
"64 197 LINE",
"214 200 OFFCURVE",
"325 284 OFFCURVE",
"325 378 CURVE SMOOTH",
"325 436 OFFCURVE",
"278 449 OFFCURVE",
"228 449 CURVE SMOOTH",
"204 449 OFFCURVE",
"140 409 OFFCURVE",
"102 367 CURVE",
"66 319 OFFCURVE",
"39 238 OFFCURVE",
"39 142 CURVE SMOOTH",
"39 48 OFFCURVE",
"83 -9 OFFCURVE",
"180 -9 CURVE SMOOTH"
);
}
);
width = 331;
},
{
anchors = (
{
name = bottom;
position = "{221, 0}";
},
{
name = ogonek;
position = "{387, 47}";
},
{
name = top;
position = "{259, 462}";
}
);
background = {
paths = (
{
closed = 1;
nodes = (
"242 -9 OFFCURVE",
"347 23 OFFCURVE",
"409 47 CURVE",
"392 121 LINE",
"334 104 OFFCURVE",
"295 91 OFFCURVE",
"265 91 CURVE SMOOTH",
"227 91 OFFCURVE",
"212 110 OFFCURVE",
"212 168 CURVE SMOOTH",
"212 266 OFFCURVE",
"240 374 OFFCURVE",
"265 394 CURVE",
"268 395 OFFCURVE",
"274 396 OFFCURVE",
"278 396 CURVE SMOOTH",
"301 396 OFFCURVE",
"307 376 OFFCURVE",
"307 355 CURVE SMOOTH",
"307 288 OFFCURVE",
"262 251 OFFCURVE",
"204 247 CURVE",
"204 191 LINE",
"337 191 OFFCURVE",
"465 260 OFFCURVE",
"465 381 CURVE SMOOTH",
"465 456 OFFCURVE",
"393 477 OFFCURVE",
"321 477 CURVE SMOOTH",
"290 477 OFFCURVE",
"141 414 OFFCURVE",
"93 380 CURVE",
"67 334 OFFCURVE",
"34 216 OFFCURVE",
"34 146 CURVE SMOOTH",
"34 40 OFFCURVE",
"108 -9 OFFCURVE",
"220 -9 CURVE SMOOTH"
);
}
);
};
layerId = "E259E77F-022A-45EF-A0F1-1168268390B3";
paths = (
{
closed = 1;
nodes = (
"220 -9 OFFCURVE",
"325 23 OFFCURVE",
"387 47 CURVE",
"370 121 LINE",
"312 104 OFFCURVE",
"273 91 OFFCURVE",
"243 91 CURVE SMOOTH",
"205 91 OFFCURVE",
"190 110 OFFCURVE",
"190 168 CURVE SMOOTH",
"190 266 OFFCURVE",
"212 384 OFFCURVE",
"243 394 CURVE SMOOTH",
"246 395 OFFCURVE",
"252 396 OFFCURVE",
"256 396 CURVE SMOOTH",
"279 396 OFFCURVE",
"285 376 OFFCURVE",
"285 355 CURVE SMOOTH",
"285 288 OFFCURVE",
"240 251 OFFCURVE",
"182 247 CURVE",
"182 191 LINE",
"315 191 OFFCURVE",
"443 260 OFFCURVE",
"443 381 CURVE SMOOTH",
"443 456 OFFCURVE",
"371 477 OFFCURVE",
"299 477 CURVE SMOOTH",
"268 477 OFFCURVE",
"119 414 OFFCURVE",
"71 380 CURVE",
"45 334 OFFCURVE",
"12 216 OFFCURVE",
"12 146 CURVE SMOOTH",
"12 40 OFFCURVE",
"86 -9 OFFCURVE",
"198 -9 CURVE SMOOTH"
);
}
);
width = 429;
}
);
leftKerningGroup = o;
leftMetricsKey = o;
rightKerningGroup = e;
unicode = 0065;
},
{
color = 4;
glyphname = schwa;
layers = (
{
color = -1;
layerId = "D9712079-C16A-42CB-8BA4-BD9ECFFACF10";
paths = (
{
closed = 1;
nodes = (
"155 -9 OFFCURVE",
"273 62 OFFCURVE",
"297 90 CURVE",
"322 133 OFFCURVE",
"347 223 OFFCURVE",
"347 307 CURVE SMOOTH",
"347 388 OFFCURVE",
"303 457 OFFCURVE",
"226 457 CURVE SMOOTH",
"204 457 OFFCURVE",
"101 418 OFFCURVE",
"59 394 CURVE",
"71 354 LINE",
"110 367 OFFCURVE",
"164 384 OFFCURVE",
"186 384 CURVE SMOOTH",
"240 384 OFFCURVE",
"253 345 OFFCURVE",
"253 276 CURVE SMOOTH",
"253 165 OFFCURVE",
"207 56 OFFCURVE",
"177 44 CURVE SMOOTH",
"171 42 OFFCURVE",
"161 41 OFFCURVE",
"154 41 CURVE SMOOTH",
"128 41 OFFCURVE",
"110 50 OFFCURVE",
"110 83 CURVE SMOOTH",
"110 152 OFFCURVE",
"206 207 OFFCURVE",
"264 211 CURVE",
"264 249 LINE",
"171 243 OFFCURVE",
"18 184 OFFCURVE",
"18 81 CURVE SMOOTH",
"18 13 OFFCURVE",
"68 -9 OFFCURVE",
"133 -9 CURVE SMOOTH"
);
}
);
width = 375;
},
{
color = -1;
layerId = "16B79A64-180D-495F-8650-CA27198DF3EF";
paths = (
{
closed = 1;
nodes = (
"147 -9 OFFCURVE",
"211 32 OFFCURVE",
"249 73 CURVE",
"285 121 OFFCURVE",
"312 202 OFFCURVE",
"312 298 CURVE SMOOTH",
"312 392 OFFCURVE",
"268 449 OFFCURVE",
"171 449 CURVE SMOOTH",
"163 449 OFFCURVE",
"107 430 OFFCURVE",
"79 415 CURVE",
"83 400 LINE",
"107 408 OFFCURVE",
"146 423 OFFCURVE",
"173 423 CURVE SMOOTH",
"243 423 OFFCURVE",
"282 380 OFFCURVE",
"282 292 CURVE SMOOTH",
"282 104 OFFCURVE",
"196 52 OFFCURVE",
"164 32 CURVE SMOOTH",
"146 21 OFFCURVE",
"130 16 OFFCURVE",
"112 16 CURVE SMOOTH",
"73 16 OFFCURVE",
"55 33 OFFCURVE",
"55 66 CURVE SMOOTH",
"55 136 OFFCURVE",
"139 222 OFFCURVE",
"285 224 CURVE",
"287 243 LINE",
"137 240 OFFCURVE",
"26 156 OFFCURVE",
"26 62 CURVE SMOOTH",
"26 4 OFFCURVE",
"73 -9 OFFCURVE",
"123 -9 CURVE SMOOTH"
);
}
);
width = 351;
},
{
color = -1;
layerId = "E259E77F-022A-45EF-A0F1-1168268390B3";
paths = (
{
closed = 1;
nodes = (
"175 -9 OFFCURVE",
"324 54 OFFCURVE",
"372 88 CURVE",
"398 134 OFFCURVE",
"431 252 OFFCURVE",
"431 322 CURVE SMOOTH",
"431 428 OFFCURVE",
"357 477 OFFCURVE",
"245 477 CURVE SMOOTH",
"223 477 OFFCURVE",
"123 445 OFFCURVE",
"56 421 CURVE",
"73 347 LINE",
"122 361 OFFCURVE",
"170 377 OFFCURVE",
"200 377 CURVE SMOOTH",
"238 377 OFFCURVE",
"253 358 OFFCURVE",
"253 300 CURVE SMOOTH",
"253 202 OFFCURVE",
"230 87 OFFCURVE",
"200 74 CURVE SMOOTH",
"197 73 OFFCURVE",
"191 72 OFFCURVE",
"187 72 CURVE SMOOTH",
"164 72 OFFCURVE",
"158 92 OFFCURVE",
"158 113 CURVE SMOOTH",
"158 180 OFFCURVE",
"203 217 OFFCURVE",
"261 221 CURVE",
"261 277 LINE",
"128 277 OFFCURVE",
"0 208 OFFCURVE",
"0 87 CURVE SMOOTH",
"0 12 OFFCURVE",
"72 -9 OFFCURVE",
"144 -9 CURVE SMOOTH"
);
}
);
width = 442;
}
);
leftKerningGroup = o;
leftMetricsKey = o;
rightKerningGroup = o;
rightMetricsKey = o;
unicode = 0259;
},
{
color = 4;
glyphname = f;
layers = (
{
anchors = (
{
name = top;
position = "{265, 640}";
}
);
color = -1;
layerId = "D9712079-C16A-42CB-8BA4-BD9ECFFACF10";
paths = (
{
closed = 1;
nodes = (
"73 -9 OFFCURVE",
"131 0 OFFCURVE",
"173 7 CURVE",
"179 48 LINE",
"133 63 LINE",
"212 526 LINE SMOOTH",
"217 554 OFFCURVE",
"231 582 OFFCURVE",
"240 582 CURVE SMOOTH",
"255 582 OFFCURVE",
"316 566 OFFCURVE",
"336 560 CURVE",
"342 570 OFFCURVE",
"363 606 OFFCURVE",
"364 610 CURVE SMOOTH",
"366 617 OFFCURVE",
"355 634 OFFCURVE",
"347 640 CURVE",
"322 643 OFFCURVE",
"273 646 OFFCURVE",
"264 646 CURVE SMOOTH",
"234 646 OFFCURVE",
"125 532 OFFCURVE",
"118 491 CURVE SMOOTH",
"39 24 LINE",
"37 17 OFFCURVE",
"60 -9 OFFCURVE",
"66 -9 CURVE SMOOTH"
);
},
{
closed = 1;
nodes = (
"291 448 LINE",
"113 453 LINE",
"64 434 LINE",
"58 395 LINE",
"281 394 LINE"
);
}
);
width = 276;
},
{
anchors = (
{
name = top;
position = "{247, 611}";
}
);
color = -1;
layerId = "16B79A64-180D-495F-8650-CA27198DF3EF";
paths = (
{
closed = 1;
nodes = (
"82 -9 OFFCURVE",
"110 -4 OFFCURVE",
"143 3 CURVE",
"145 18 LINE",
"90 22 LINE",
"180 547 LINE SMOOTH",
"185 574 OFFCURVE",
"222 610 OFFCURVE",
"227 610 CURVE SMOOTH",
"242 610 OFFCURVE",
"308 599 OFFCURVE",
"328 593 CURVE",
"333 599 OFFCURVE",
"339 609 OFFCURVE",
"339 612 CURVE SMOOTH",
"339 615 OFFCURVE",
"333 623 OFFCURVE",
"330 625 CURVE",
"307 631 OFFCURVE",
"243 637 OFFCURVE",
"234 637 CURVE SMOOTH",
"212 637 OFFCURVE",
"155 570 OFFCURVE",
"150 542 CURVE SMOOTH",
"60 8 LINE",
"59 5 OFFCURVE",
"73 -9 OFFCURVE",
"77 -9 CURVE SMOOTH"
);
},
{
closed = 1;
nodes = (
"277 440 LINE",
"133 443 LINE",
"79 438 LINE",
"76 420 LINE",
"273 419 LINE"
);
}
);
width = 260;
},
{
anchors = (
{
name = top;
position = "{293, 640}";
}
);
color = -1;
layerId = "E259E77F-022A-45EF-A0F1-1168268390B3";
paths = (
{
closed = 1;
nodes = (
"60 -9 OFFCURVE",
"165 0 OFFCURVE",
"242 7 CURVE",
"255 80 LINE",
"194 95 LINE",
"269 520 LINE SMOOTH",
"274 548 OFFCURVE",
"279 569 OFFCURVE",
"294 569 CURVE SMOOTH",
"303 569 OFFCURVE",
"366 536 OFFCURVE",
"398 520 CURVE",
"415 544 OFFCURVE",
"444 590 OFFCURVE",
"444 604 CURVE SMOOTH",
"444 611 OFFCURVE",
"424 651 OFFCURVE",
"418 659 CURVE",
"393 662 OFFCURVE",
"296 665 OFFCURVE",
"287 665 CURVE SMOOTH",
"244 665 OFFCURVE",
"107 548 OFFCURVE",
"100 507 CURVE SMOOTH",
"18 40 LINE SMOOTH",
"16 26 OFFCURVE",
"44 -9 OFFCURVE",
"53 -9 CURVE SMOOTH"
);
},
{
closed = 1;
nodes = (
"365 462 LINE",
"94 467 LINE",
"24 448 LINE",
"12 376 LINE",
"349 375 LINE"
);
}
);
width = 318;
}
);
leftKerningGroup = f;
rightKerningGroup = f;
unicode = 0066;
},
{
color = 4;
glyphname = g;
layers = (
{
anchors = (
{
name = top;
position = "{247, 448}";
}
);
background = {
paths = (
{
closed = 1;
nodes = (
"238 -181 OFFCURVE",
"353 -72 OFFCURVE",
"362 -21 CURVE SMOOTH",
"443 435 LINE",
"357 435 LINE",
"296 87 OFFCURVE",
"291 59 OFFCURVE",
"278 -6 CURVE SMOOTH",
"263 -77 OFFCURVE",
"247 -132 OFFCURVE",
"239 -132 CURVE SMOOTH",
"214 -132 OFFCURVE",
"134 -92 OFFCURVE",
"113 -80 CURVE",
"114 -72 LINE",
"155 -27 OFFCURVE",
"241 71 OFFCURVE",
"300 146 CURVE",
"317 146 LINE",
"333 238 LINE",
"177 69 LINE",
"33 -55 LINE",
"22 -124 LINE",
"68 -141 OFFCURVE",
"180 -181 OFFCURVE",
"208 -181 CURVE SMOOTH"
);
},
{
closed = 1;
nodes = (
"219 102 LINE",
"202 98 OFFCURVE",
"167 106 OFFCURVE",
"167 179 CURVE SMOOTH",
"167 284 OFFCURVE",
"215 382 OFFCURVE",
"240 406 CURVE",
"257 408 OFFCURVE",
"316 395 OFFCURVE",
"360 375 CURVE",
"443 435 LINE",
"409 442 OFFCURVE",
"299 457 OFFCURVE",
"282 457 CURVE SMOOTH",
"260 457 OFFCURVE",
"142 386 OFFCURVE",
"118 358 CURVE",
"91 305 OFFCURVE",
"77 221 OFFCURVE",
"77 173 CURVE SMOOTH",
"77 95 OFFCURVE",
"117 53 OFFCURVE",
"165 47 CURVE"
);
}
);
};
color = -1;
layerId = "D9712079-C16A-42CB-8BA4-BD9ECFFACF10";
paths = (
{
closed = 1;
nodes = (
"188 -181 OFFCURVE",
"303 -72 OFFCURVE",
"312 -21 CURVE SMOOTH",
"393 435 LINE",
"307 435 LINE",
"246 87 OFFCURVE",
"241 59 OFFCURVE",
"228 -6 CURVE SMOOTH",
"214 -77 OFFCURVE",
"197 -132 OFFCURVE",
"189 -132 CURVE SMOOTH",
"164 -132 OFFCURVE",
"84 -92 OFFCURVE",
"63 -80 CURVE",
"64 -72 LINE",
"105 -27 OFFCURVE",
"191 71 OFFCURVE",
"250 146 CURVE",
"267 146 LINE",
"283 238 LINE",
"127 69 LINE",
"-17 -55 LINE",
"-28 -124 LINE",
"18 -141 OFFCURVE",
"130 -181 OFFCURVE",
"158 -181 CURVE SMOOTH"
);
},
{
closed = 1;
nodes = (
"169 102 LINE",
"152 98 OFFCURVE",
"117 106 OFFCURVE",
"117 179 CURVE SMOOTH",
"117 284 OFFCURVE",
"156 386 OFFCURVE",
"190 398 CURVE SMOOTH",
"207 404 OFFCURVE",
"266 395 OFFCURVE",
"310 375 CURVE",
"393 435 LINE",
"359 442 OFFCURVE",
"249 457 OFFCURVE",
"232 457 CURVE SMOOTH",
"210 457 OFFCURVE",
"92 386 OFFCURVE",
"68 358 CURVE",
"39 308 OFFCURVE",
"27 225 OFFCURVE",
"27 173 CURVE SMOOTH",
"27 95 OFFCURVE",
"67 53 OFFCURVE",
"115 47 CURVE"
);
}
);
width = 424;
},
{
anchors = (
{
name = top;
position = "{242, 440}";
}
);
background = {
paths = (
{
closed = 1;
nodes = (
"273 -175 OFFCURVE",
"324 -96 OFFCURVE",
"333 -45 CURVE SMOOTH",
"415 428 LINE",
"385 414 LINE",
"325 66 OFFCURVE",
"317 33 OFFCURVE",
"305 -32 CURVE SMOOTH",
"292 -103 OFFCURVE",
"261 -150 OFFCURVE",
"253 -150 CURVE SMOOTH",
"228 -150 OFFCURVE",
"92 -92 OFFCURVE",
"70 -78 CURVE",
"71 -68 LINE",
"119 -18 OFFCURVE",
"280 154 OFFCURVE",
"350 238 CURVE",
"360 238 LINE",
"367 279 LINE",
"171 67 LINE",
"48 -55 LINE",
"41 -92 LINE",
"87 -117 OFFCURVE",
"221 -175 OFFCURVE",
"243 -175 CURVE SMOOTH"
);
},
{
closed = 1;
nodes = (
"191 69 LINE",
"139 72 OFFCURVE",
"123 111 OFFCURVE",
"123 180 CURVE SMOOTH",
"123 256 OFFCURVE",
"155 366 OFFCURVE",
"244 411 CURVE SMOOTH",
"281 430 OFFCURVE",
"317 426 OFFCURVE",
"388 405 CURVE",
"415 428 LINE",
"381 435 OFFCURVE",
"308 449 OFFCURVE",
"282 449 CURVE SMOOTH",
"258 449 OFFCURVE",
"193 408 OFFCURVE",
"155 367 CURVE",
"119 319 OFFCURVE",
"92 240 OFFCURVE",
"92 173 CURVE SMOOTH",
"92 108 OFFCURVE",
"116 53 OFFCURVE",
"173 48 CURVE"
);
}
);
};
color = -1;
layerId = "16B79A64-180D-495F-8650-CA27198DF3EF";
paths = (
{
closed = 1;
nodes = (
"222 -175 OFFCURVE",
"273 -96 OFFCURVE",
"282 -45 CURVE SMOOTH",
"364 428 LINE",
"334 414 LINE",
"274 66 OFFCURVE",
"266 33 OFFCURVE",
"254 -32 CURVE SMOOTH",
"241 -103 OFFCURVE",
"210 -150 OFFCURVE",
"202 -150 CURVE SMOOTH",
"177 -150 OFFCURVE",
"41 -92 OFFCURVE",
"19 -78 CURVE",
"20 -68 LINE",
"68 -18 OFFCURVE",
"229 154 OFFCURVE",
"299 238 CURVE",
"309 238 LINE",
"316 279 LINE",
"120 67 LINE",
"-3 -55 LINE",
"-10 -92 LINE",
"36 -117 OFFCURVE",
"170 -175 OFFCURVE",
"192 -175 CURVE SMOOTH"
);
},
{
closed = 1;
nodes = (
"140 69 LINE",
"88 72 OFFCURVE",
"72 111 OFFCURVE",
"72 180 CURVE SMOOTH",
"72 256 OFFCURVE",
"104 364 OFFCURVE",
"193 410 CURVE SMOOTH",
"230 429 OFFCURVE",
"266 426 OFFCURVE",
"337 405 CURVE",
"364 428 LINE",
"330 435 OFFCURVE",
"257 449 OFFCURVE",
"231 449 CURVE SMOOTH",
"205 449 OFFCURVE",
"141 409 OFFCURVE",
"104 367 CURVE",
"68 319 OFFCURVE",
"41 240 OFFCURVE",
"41 173 CURVE SMOOTH",
"41 108 OFFCURVE",
"65 53 OFFCURVE",
"122 48 CURVE"
);
}
);
width = 422;
},
{
anchors = (
{
name = top;
position = "{283, 462}";
}
);
background = {
paths = (
{
closed = 1;
nodes = (
"266 -186 OFFCURVE",
"423 -76 OFFCURVE",
"433 -16 CURVE SMOOTH",
"514 448 LINE",
"354 448 LINE",
"329 299 OFFCURVE",
"305 149 OFFCURVE",
"280 0 CURVE SMOOTH",
"270 -70 OFFCURVE",
"263 -103 OFFCURVE",
"251 -103 CURVE SMOOTH",
"244 -103 OFFCURVE",
"196 -82 OFFCURVE",
"169 -64 CURVE",
"171 -46 LINE",
"202 -2 OFFCURVE",
"245 57 OFFCURVE",
"284 110 CURVE",
"305 110 LINE",
"343 233 LINE",
"162 39 LINE",
"27 -36 LINE",
"7 -149 LINE",
"62 -160 OFFCURVE",
"208 -186 OFFCURVE",
"232 -186 CURVE SMOOTH"
);
},
{
closed = 1;
nodes = (
"277 139 LINE",
"231 139 OFFCURVE",
"222 177 OFFCURVE",
"222 230 CURVE SMOOTH",
"222 310 OFFCURVE",
"255 384 OFFCURVE",
"272 396 CURVE SMOOTH",
"284 398 OFFCURVE",
"380 374 OFFCURVE",
"427 352 CURVE",
"514 448 LINE",
"482 455 OFFCURVE",
"339 477 OFFCURVE",
"322 477 CURVE SMOOTH",
"292 477 OFFCURVE",
"146 414 OFFCURVE",
"100 380 CURVE",
"68 306 OFFCURVE",
"48 232 OFFCURVE",
"48 170 CURVE SMOOTH",
"48 89 OFFCURVE",
"81 29 OFFCURVE",
"166 17 CURVE"
);
}
);
};
color = -1;
layerId = "E259E77F-022A-45EF-A0F1-1168268390B3";
paths = (
{
closed = 1;
nodes = (
"235 -186 OFFCURVE",
"392 -76 OFFCURVE",
"402 -16 CURVE SMOOTH",
"483 448 LINE",
"323 448 LINE",
"298 299 OFFCURVE",
"275 149 OFFCURVE",
"249 0 CURVE SMOOTH",
"237 -70 OFFCURVE",
"232 -103 OFFCURVE",
"220 -103 CURVE SMOOTH",
"213 -103 OFFCURVE",
"165 -82 OFFCURVE",
"138 -64 CURVE",
"140 -46 LINE",
"171 -2 OFFCURVE",
"214 57 OFFCURVE",
"253 110 CURVE",
"274 110 LINE",
"312 233 LINE",
"131 39 LINE",
"-4 -36 LINE",
"-24 -149 LINE",
"31 -160 OFFCURVE",
"177 -186 OFFCURVE",
"201 -186 CURVE SMOOTH"
);
},
{
closed = 1;
nodes = (
"246 139 LINE",
"200 139 OFFCURVE",
"191 177 OFFCURVE",
"191 230 CURVE SMOOTH",
"191 310 OFFCURVE",
"219 389 OFFCURVE",
"241 396 CURVE SMOOTH",
"251 399 OFFCURVE",
"349 374 OFFCURVE",
"396 352 CURVE",
"483 448 LINE",
"451 455 OFFCURVE",
"308 477 OFFCURVE",
"291 477 CURVE SMOOTH",
"261 477 OFFCURVE",
"115 414 OFFCURVE",
"69 380 CURVE",
"35 308 OFFCURVE",
"17 232 OFFCURVE",
"17 170 CURVE SMOOTH",
"17 89 OFFCURVE",
"50 29 OFFCURVE",
"135 17 CURVE"
);
}
);
width = 501;
}
);
leftKerningGroup = o;
leftMetricsKey = o;
rightKerningGroup = g;
unicode = 0067;
},
